<svg viewBox="0 0 21.0137 20.9994" fill="none" xmlns="http://www.w3.org/2000/svg" xmlns:xlink="http://www.w3.org/1999/xlink">
    <path id="Vector"
          d="M1.83 3.26C1.61 3.52 1.38 3.79 1.16 4.05C0.73 3.61 0.36 3.23 0 2.87C0.91 1.95 1.85 1.01 2.77 0.09C3.7 1.02 4.63 1.95 5.55 2.87C5.19 3.23 4.81 3.6 4.4 4.02C4.16 3.75 3.91 3.46 3.58 3.11L3.58 6.9C5.31 5.17 7.08 3.4 8.83 1.64C8.37 1.64 7.85 1.61 7.33 1.65C6.88 1.69 6.57 1.54 6.27 1.21C5.92 0.81 5.51 0.45 5.08 0.02C5.24 0.01 5.33 0 5.42 0C9.82 0 14.21 -0.01 18.6 0C20 0 21 0.97 21 2.37C21.01 6.78 21.01 11.2 21.01 15.61C21.01 15.67 21 15.74 20.92 15.86C20.52 15.44 20.14 15 19.72 14.62C19.44 14.36 19.33 14.1 19.35 13.73C19.38 13.21 19.36 12.68 19.36 12.17C17.6 13.93 15.85 15.68 14.11 17.43L17.9 17.43C17.55 17.14 17.26 16.9 16.97 16.66C17.44 16.21 17.82 15.84 18.2 15.48C19.08 16.37 20.01 17.32 20.93 18.25C20.04 19.14 19.1 20.07 18.17 20.99C17.82 20.64 17.45 20.26 17.05 19.86C17.28 19.66 17.53 19.44 17.78 19.21C17.77 19.17 17.75 19.14 17.74 19.1L17.37 19.1C13.05 19.1 8.72 19.1 4.39 19.1C3.21 19.1 2.35 18.52 2.03 17.48C1.94 17.19 1.91 16.87 1.91 16.57C1.91 12.26 1.91 7.96 1.91 3.65C1.91 3.54 1.91 3.42 1.91 3.3C1.88 3.29 1.86 3.28 1.83 3.26L1.83 3.26ZM3.56 16.18C8.41 11.33 13.24 6.49 18.09 1.64C17.4 1.64 16.69 1.64 15.98 1.65C15.89 1.65 15.78 1.74 15.71 1.81C11.71 5.8 7.72 9.8 3.72 13.8C3.65 13.87 3.57 13.98 3.56 14.07C3.55 14.78 3.56 15.49 3.56 16.18L3.56 16.18ZM19.36 2.95C14.52 7.79 9.69 12.62 4.86 17.45C5.52 17.45 6.22 17.45 6.92 17.44C7.01 17.44 7.11 17.35 7.19 17.28C11.19 13.28 15.19 9.27 19.19 5.27C19.27 5.19 19.35 5.09 19.35 5C19.37 4.3 19.36 3.6 19.36 2.95L19.36 2.95ZM19.36 7.58C16.07 10.87 12.78 14.16 9.49 17.45C10.15 17.45 10.85 17.45 11.55 17.44C11.64 17.44 11.74 17.35 11.82 17.27C14.28 14.82 16.74 12.36 19.2 9.89C19.27 9.82 19.35 9.71 19.35 9.62C19.37 8.92 19.36 8.22 19.36 7.58L19.36 7.58ZM3.56 11.52C6.86 8.22 10.14 4.94 13.43 1.64C12.77 1.64 12.1 1.64 11.42 1.65C11.33 1.65 11.22 1.73 11.15 1.8C8.67 4.27 6.2 6.75 3.72 9.23C3.65 9.3 3.57 9.41 3.57 9.5C3.55 10.18 3.56 10.85 3.56 11.52Z"
          fill="currentColor" fill-opacity="1.000000" fill-rule="nonzero"/>
</svg>
