<svg viewBox="0 0 24 24" fill="none" xmlns="http://www.w3.org/2000/svg" xmlns:xlink="http://www.w3.org/1999/xlink">
    <defs>
        <clipPath id="clip122_2010">
            <rect id="BACKGROUND_2" rx="0.000000" width="20.017076" height="20.000000" transform="translate(1.500000 2.500000)" fill="white" fill-opacity="0"/>
        </clipPath>
        <clipPath id="clip122_2009">
            <rect id="Icon" rx="0.000000" width="23.000000" height="23.000000" transform="translate(0.500000 0.500000)" fill="white" fill-opacity="0"/>
        </clipPath>
    </defs>
    <g clip-path="url(#clip122_2009)">
        <rect id="BACKGROUND_2" rx="0.000000" width="20.017076" height="20.000000" transform="translate(1.500000 2.500000)" fill="#FFFFFF" fill-opacity="0"/>
        <g clip-path="url(#clip122_2010)">
            <path id="Vector"
                  d="M2.26 15.76L12.1 15.76L12.1 17.56L18.26 17.56L18.26 15.76L20.7 15.76C20.86 17.91 20.87 19.83 18.67 21.28C18.64 21.3 18.62 21.33 18.56 21.38C18.83 21.61 19.1 21.83 19.36 22.05C19 22.39 18.72 22.66 18.39 22.98C18.1 22.68 17.78 22.33 17.44 22.02C17.34 21.92 17.16 21.88 17.02 21.88C16.78 21.86 16.54 21.9 16.3 21.9C13.1 21.9 9.91 21.9 6.71 21.9C6.56 21.9 6.39 21.93 6.25 21.89C5.83 21.76 5.56 21.96 5.3 22.26C5.09 22.52 4.84 22.76 4.61 23C4.31 22.68 4.03 22.39 3.73 22.07C3.93 21.89 4.19 21.66 4.49 21.4C4.28 21.25 4.13 21.15 3.99 21.04C2.92 20.22 2.35 19.13 2.27 17.79C2.23 17.12 2.26 16.46 2.26 15.76L2.26 15.76Z"
                  fill="currentColor" fill-opacity="1.000000" fill-rule="nonzero"/>
            <path id="Vector"
                  d="M2.27 10.78C2.27 10.66 2.26 10.56 2.26 10.45C2.26 8.71 2.25 6.97 2.26 5.23C2.26 3.32 3.59 1.98 5.5 2C6.14 2 6.8 1.99 7.41 2.13C8.51 2.39 9.2 3.15 9.53 4.22C9.59 4.42 9.68 4.52 9.9 4.59C11.19 4.93 12.09 6.14 12.11 7.48C12.11 7.69 12.11 7.91 12.11 8.14L6.02 8.14C5.73 6.61 6.56 5.02 8.31 4.53C8.15 3.85 7.48 3.27 6.77 3.24C6.23 3.22 5.7 3.22 5.16 3.24C4.24 3.28 3.5 4.13 3.49 5.14C3.48 6.89 3.49 8.64 3.49 10.4C3.49 10.51 3.49 10.63 3.49 10.78L2.27 10.78L2.27 10.78Z"
                  fill="currentColor" fill-opacity="1.000000" fill-rule="nonzero"/>
            <path id="Vector"
                  d="M12.09 14.53C11.96 14.53 11.86 14.53 11.77 14.53C8.64 14.53 5.51 14.53 2.38 14.53C1.71 14.53 1.23 14.21 1.06 13.66C0.8 12.85 1.38 12.06 2.26 12.05C3.2 12.03 4.14 12.04 5.08 12.04C7.29 12.04 9.5 12.04 11.71 12.04C11.83 12.04 11.95 12.04 12.09 12.04L12.09 14.53L12.09 14.53Z"
                  fill="currentColor" fill-opacity="1.000000" fill-rule="nonzero"/>
            <path id="Vector"
                  d="M17.02 16.37L13.36 16.37C13.35 16.25 13.34 16.15 13.34 16.04C13.34 14.77 13.34 13.5 13.34 12.24C13.34 11.32 13.84 10.81 14.76 10.81C15.1 10.81 15.44 10.8 15.77 10.81C16.54 10.84 17.03 11.35 17.04 12.11C17.04 13.43 17.04 14.76 17.04 16.08C17.04 16.17 17.03 16.25 17.02 16.37Z"
                  fill="currentColor" fill-opacity="1.000000" fill-rule="nonzero"/>
            <path id="Vector" d="M18.28 14.52L18.28 12.04C18.87 12.04 19.46 12.04 20.05 12.04C20.35 12.04 20.66 12.02 20.96 12.07C21.61 12.18 22.04 12.71 22.01 13.33C21.99 13.95 21.53 14.47 20.89 14.5C20.03 14.55 19.17 14.52 18.28 14.52L18.28 14.52Z"
                  fill="currentColor" fill-opacity="1.000000" fill-rule="nonzero"/>
        </g>
    </g>
</svg>
