<svg viewBox="0 0 19.5 19.5" fill="none" xmlns="http://www.w3.org/2000/svg" xmlns:xlink="http://www.w3.org/1999/xlink">
    <path id="Vector (Stroke)"
          d="M4.5 0C4.91 0 5.25 0.33 5.25 0.75L5.25 2.25L14.25 2.25L14.25 0.75C14.25 0.33 14.58 0 15 0C15.41 0 15.75 0.33 15.75 0.75L15.75 2.25L16.5 2.25C18.15 2.25 19.5 3.59 19.5 5.25L19.5 16.5C19.5 18.15 18.15 19.5 16.5 19.5L3 19.5C1.34 19.5 0 18.15 0 16.5L0 5.25C0 3.59 1.34 2.25 3 2.25L3.75 2.25L3.75 0.75C3.75 0.33 4.08 0 4.5 0ZM18 9C18 8.17 17.32 7.5 16.5 7.5L3 7.5C2.17 7.5 1.5 8.17 1.5 9L1.5 16.5C1.5 17.32 2.17 18 3 18L16.5 18C17.32 18 18 17.32 18 16.5L18 9Z"
          fill="currentColor" fill-opacity="1.000000" fill-rule="evenodd"/>
</svg>
