<svg viewBox="0 0 18 21" fill="none" xmlns="http://www.w3.org/2000/svg" xmlns:xlink="http://www.w3.org/1999/xlink">
    <path id="Vector 449 (Stroke)"
          d="M11.61 0.09C11.91 0.26 12.06 0.61 11.97 0.94L9.98 8.25L17.25 8.25C17.54 8.25 17.81 8.42 17.93 8.7C18.05 8.97 18 9.29 17.79 9.51L7.29 20.76C7.06 21.01 6.68 21.07 6.38 20.9C6.08 20.73 5.93 20.38 6.02 20.05L8.01 12.75L0.75 12.75C0.45 12.75 0.18 12.57 0.06 12.29C-0.06 12.02 -0.01 11.7 0.2 11.48L10.7 0.23C10.93 -0.02 11.31 -0.08 11.61 0.09Z"
          fill="currentColor" fill-opacity="1.000000" fill-rule="evenodd"/>
</svg>
