<svg viewBox="0 0 16.5 20.2485" fill="none" xmlns="http://www.w3.org/2000/svg" xmlns:xlink="http://www.w3.org/1999/xlink">
    <defs/>
    <path id="Subtract"
          d="M7.78 20.1C7.82 20.11 7.84 20.13 7.86 20.14L7.88 20.15C8.11 20.27 8.38 20.27 8.61 20.15L8.63 20.14C8.65 20.13 8.67 20.11 8.71 20.1C8.77 20.06 8.85 20.01 8.96 19.94C9.18 19.81 9.48 19.61 9.85 19.35C10.58 18.84 11.56 18.07 12.53 17.07C14.48 15.08 16.5 12.09 16.5 8.25C16.5 3.69 12.8 0 8.25 0C3.69 0 0 3.69 0 8.25C0 12.09 2.01 15.08 3.96 17.07C4.93 18.07 5.91 18.84 6.64 19.35C7.01 19.61 7.31 19.81 7.53 19.94C7.64 20.01 7.72 20.06 7.78 20.1ZM8.25 11.25C9.9 11.25 11.25 9.9 11.25 8.25C11.25 6.59 9.9 5.25 8.25 5.25C6.59 5.25 5.25 6.59 5.25 8.25C5.25 9.9 6.59 11.25 8.25 11.25Z"
          fill="currentColor" fill-opacity="1.000000" fill-rule="evenodd"/>
</svg>
