<svg viewBox="0 0 21 21" fill="none" xmlns="http://www.w3.org/2000/svg" xmlns:xlink="http://www.w3.org/1999/xlink">
    <path id="Vector (Stroke)"
          d="M0 3C0 1.34 1.34 0 3 0L4.37 0C5.23 0 5.98 0.58 6.19 1.42L7.29 5.84C7.47 6.57 7.2 7.34 6.6 7.79L5.3 8.76C5.17 8.86 5.14 9.01 5.18 9.11C6.31 12.21 8.78 14.68 11.88 15.81C11.98 15.85 12.13 15.82 12.23 15.69L13.2 14.39C13.65 13.79 14.42 13.52 15.15 13.7L19.58 14.8C20.41 15.01 21 15.76 21 16.62L21 18C21 19.65 19.65 21 18 21L15.75 21C7.05 21 0 13.94 0 5.25L0 3Z"
          fill="currentColor" fill-opacity="1.000000" fill-rule="evenodd"/>
</svg>
