<svg viewBox="0 0 21 18.6423" fill="none" xmlns="http://www.w3.org/2000/svg" xmlns:xlink="http://www.w3.org/1999/xlink">
    <defs/>
    <path id="Union"
          d="M0 1.87C0 0.83 0.83 0 1.87 0L19.12 0C20.16 0 21 0.83 21 1.87L21 11.62C21 12.66 20.16 13.5 19.12 13.5L1.87 13.5C0.83 13.5 0 12.66 0 11.62L0 1.87ZM6.75 6.75C6.75 4.67 8.42 3 10.5 3C12.57 3 14.25 4.67 14.25 6.75C14.25 8.82 12.57 10.5 10.5 10.5C8.42 10.5 6.75 8.82 6.75 6.75ZM10.5 4.5C9.25 4.5 8.25 5.5 8.25 6.75C8.25 7.99 9.25 9 10.5 9C11.74 9 12.75 7.99 12.75 6.75C12.75 5.5 11.74 4.5 10.5 4.5ZM3 6.75C3 6.33 3.33 6 3.75 6L3.75 6C4.17 6 4.5 6.33 4.5 6.75L4.5 6.75C4.5 7.17 4.17 7.5 3.75 7.5L3.75 7.5C3.33 7.5 3 7.17 3 6.75L3 6.75ZM17.25 6C16.83 6 16.5 6.33 16.5 6.75L16.5 6.75C16.5 7.17 16.83 7.5 17.25 7.5L17.25 7.5C17.67 7.5 18 7.17 18 6.75L18 6.75C18 6.33 17.67 6 17.25 6L17.25 6ZM0 15.75C0 15.33 0.33 15 0.75 15L18 15C18.41 15 18.75 15.33 18.75 15.75L18.75 16.75C18.75 18.01 17.54 18.89 16.34 18.57C11.38 17.22 6.15 16.5 0.75 16.5C0.33 16.5 0 16.16 0 15.75Z"
          fill="currentColor" fill-opacity="1.000000" fill-rule="evenodd"/>
</svg>
