<svg viewBox="0 0 21 19.5002" fill="none" xmlns="http://www.w3.org/2000/svg" xmlns:xlink="http://www.w3.org/1999/xlink">
    <path id="Subtract"
          d="M17.95 0.49C18.09 0.88 17.89 1.31 17.5 1.45L1 7.45C0.61 7.59 0.18 7.39 0.04 7C-0.1 6.61 0.1 6.18 0.49 6.04L1.5 5.67L1.5 0.75C1.5 0.33 1.83 0 2.25 0L3.75 0C4.16 0 4.5 0.33 4.5 0.75L4.5 4.58L16.99 0.04C17.38 -0.1 17.81 0.1 17.95 0.49ZM16.5 3.41L1.51 8.86L1.5 8.87L1.5 18L0.75 18C0.33 18 0 18.33 0 18.75C0 19.16 0.33 19.5 0.75 19.5L20.25 19.5C20.66 19.5 21 19.16 21 18.75C21 18.33 20.66 18 20.25 18L19.5 18L19.5 9.52L19.99 9.7C20.38 9.84 20.81 9.64 20.95 9.25C21.09 8.86 20.89 8.43 20.5 8.29L16.5 6.83L16.5 3.41ZM16.5 8.43L16.5 18L18 18L18 8.98L16.5 8.43ZM6.75 12.75C6.75 12.33 7.08 12 7.5 12L10.5 12C10.91 12 11.25 12.33 11.25 12.75L11.25 17.25C11.25 17.66 10.91 18 10.5 18L7.5 18C7.08 18 6.75 17.66 6.75 17.25L6.75 12.75Z"
          fill="currentColor" fill-opacity="1.000000" fill-rule="evenodd"/>
</svg>
