<svg viewBox="0 0 566 308" fill="none" xmlns="http://www.w3.org/2000/svg" xmlns:xlink="http://www.w3.org/1999/xlink">
    <defs>
        <clipPath id="clip181_178">
            <rect id="Abstract Design" rx="0.000000" width="565.000000" height="307.000000" transform="translate(0.500000 0.500000)" fill="white" fill-opacity="0"/>
        </clipPath>
    </defs>
    <rect id="Abstract Design" rx="0.000000" width="565.000000" height="307.000000" transform="translate(0.500000 0.500000)" fill="#FFFFFF" fill-opacity="0"/>
    <g clip-path="url(#clip181_178)">
        <path id="Vector" d="M138.53 4.66C138.95 4.06 139.55 4.28 139.17 1.7C137.77 -2.52 139.55 2.49 139.39 1.78C139.18 3.02 138.42 2.42 137.95 2.35C138.09 2.91 138.29 3.81 138.53 4.66Z" fill="currentColor" fill-opacity="1.000000"
              fill-rule="evenodd"/>
        <path id="Vector" d="M49.68 262.73C46.44 257.35 43.8 251.44 41.21 246.16C39.84 248.29 35.89 271.54 30.44 308L42.23 308C45.81 281.23 48.46 264.64 49.68 262.73Z" fill="currentColor" fill-opacity="1.000000" fill-rule="evenodd"/>
        <path id="Vector" d="M39.58 247.3C36.96 242.31 34.53 237.56 32.07 233.95C30.73 235.88 25.96 264.38 19.39 308L30.05 308C34.83 272.2 38.29 249.35 39.58 247.3Z" fill="currentColor" fill-opacity="1.000000" fill-rule="evenodd"/>
        <path id="Vector" d="M30.89 232.5C28.69 229.36 26.58 226.37 24.51 223.54C22.05 237.77 19.55 251.81 17.16 265.76C14.73 279.93 12.33 294.03 9.99 307.97L10.15 307.99L19.74 307.99C23.31 283.2 27.1 257.94 30.89 232.49L30.89 232.5Z"
              fill="currentColor" fill-opacity="1.000000" fill-rule="evenodd"/>
        <path id="Vector"
              d="M23.64 222.06C21.8 219.13 20.05 216.51 18.37 214.05C15.21 229.67 12.04 245.12 9 260.28C5.92 275.58 2.9 290.71 0 305.55L0 306.16C2.76 306.68 5.6 307.19 8.51 307.67C10.89 293.62 13.41 279.35 15.94 264.96C18.44 250.81 21.09 236.53 23.64 222.06Z"
              fill="currentColor" fill-opacity="1.000000" fill-rule="evenodd"/>
        <path id="Vector" d="M17.54 212.96C15.97 210.61 14.73 208.24 13.63 205.72C9.78 222.51 5.87 239.16 2.26 255.54L0 265.85L0 299.04C2.57 286.09 5.25 272.94 7.95 259.65C11.06 244.32 14.29 228.69 17.55 212.97L17.54 212.96Z" fill="currentColor"
              fill-opacity="1.000000" fill-rule="evenodd"/>
        <path id="Vector" d="M12.83 204.76C11.49 202.65 10.29 200.65 9.24 198.44C6.13 211.02 3.03 223.5 0 235.85L0 260.78L1.3 254.99C5.01 238.55 8.88 221.75 12.83 204.77L12.83 204.76Z" fill="currentColor" fill-opacity="1.000000" fill-rule="evenodd"/>
        <path id="Vector" d="M8.64 197.52C7.59 195.77 6.86 193.72 6.15 191.68C4.07 199.45 2.02 207.17 0 214.84L0 232.27C2.86 220.81 5.77 209.22 8.64 197.52L8.64 197.52Z" fill="currentColor" fill-opacity="1.000000" fill-rule="evenodd"/>
        <path id="Vector" d="M5.37 191.14C4.66 189.37 4.01 187.55 3.55 185.79L0 198.45L0 211.33C1.77 204.64 3.56 197.9 5.37 191.14Z" fill="currentColor" fill-opacity="1.000000" fill-rule="evenodd"/>
        <path id="Vector" d="M3.26 184.4C2.69 182.69 2.23 181.06 1.84 179.59L0 185.88L0 195.99L3.26 184.4Z" fill="currentColor" fill-opacity="1.000000" fill-rule="evenodd"/>
        <path id="Vector" d="M1.71 178.68C1.38 177.13 1.23 175.57 1.02 174.07L0 177.47L0 184.49L1.71 178.68Z" fill="currentColor" fill-opacity="1.000000" fill-rule="evenodd"/>
        <path id="Vector" d="M0.94 173.5C0.79 172.01 0.89 170.35 1.04 168.77L0 172.14L0 176.61L0.94 173.5Z" fill="currentColor" fill-opacity="1.000000" fill-rule="evenodd"/>
        <path id="Vector" d="M1.1 167.69C1.12 166.43 1.38 164.97 1.64 163.41L0 168.71L0 171.24L1.1 167.69Z" fill="currentColor" fill-opacity="1.000000" fill-rule="evenodd"/>
        <path id="Vector" d="M1.67 163.02C1.92 161.7 2.34 160.42 2.82 158.98L0 168.06L0 168.36L1.67 163.02L1.67 163.02Z" fill="currentColor" fill-opacity="1.000000" fill-rule="evenodd"/>
        <path id="Vector" d="M3.09 158.13C3.67 156.87 4.32 155.5 4.77 154.42C3.18 159.56 1.59 164.7 0 169.83L0 168.08C1.04 164.77 2.07 161.45 3.09 158.13Z" fill="currentColor" fill-opacity="1.000000" fill-rule="evenodd"/>
        <path id="Vector" d="M5.27 153.61C5.95 152.41 6.86 151.07 7.76 149.81C5.17 158.29 2.57 166.77 -0.01 175.23L-0.01 170.69C1.76 164.99 3.52 159.29 5.26 153.61L5.27 153.61Z" fill="currentColor" fill-opacity="1.000000" fill-rule="evenodd"/>
        <path id="Vector" d="M140.49 308C134.22 301.9 128.26 296.23 122.6 290.45C119.12 296.16 115.48 302.07 111.85 308L140.49 308Z" fill="currentColor" fill-opacity="1.000000" fill-rule="evenodd"/>
        <path id="Vector" d="M119.37 287.52C112.9 280.72 106.89 275.08 101.24 269.87C94.85 278.67 88.93 287.21 82.69 296.68C85.48 300.1 88.33 303.94 91.31 308L106.57 308C110.87 300.97 115.13 294.18 119.37 287.52Z" fill="currentColor"
              fill-opacity="1.000000" fill-rule="evenodd"/>
        <path id="Vector" d="M98.59 267.08C92.99 262.08 88.05 257.33 83.27 252.76C77.67 260.26 71.92 268.26 66.32 276.16C70.6 281.62 75.32 287.21 80.17 293.38C86.34 284.46 92.25 275.81 98.59 267.08Z" fill="currentColor" fill-opacity="1.000000"
              fill-rule="evenodd"/>
        <path id="Vector" d="M80.95 250.65C76.53 246.79 72.29 242.86 68.33 239.21C63.37 245.79 58.22 252.17 53 258.98C56.63 263.46 60.34 268.19 64.28 273.51C69.84 265.85 75.46 257.95 80.95 250.65L80.95 250.65Z" fill="currentColor"
              fill-opacity="1.000000" fill-rule="evenodd"/>
        <path id="Vector" d="M54.57 225.8C51.53 222.79 48.54 220.1 45.65 217.51C41.55 222.36 37.07 227.69 32.99 232.85C35.31 235.96 37.99 239.28 40.67 243.07C45.32 236.98 49.87 231.67 54.57 225.8Z" fill="currentColor" fill-opacity="1.000000"
              fill-rule="evenodd"/>
        <path id="Vector" d="M43.97 216.62C41.39 214.09 38.77 211.8 36.5 209.23C32.84 213.55 28.99 218.01 25.42 222.33C27.37 225.25 29.54 228.17 31.81 231.29C35.77 226.44 40 221.37 43.97 216.62Z" fill="currentColor" fill-opacity="1.000000"
              fill-rule="evenodd"/>
        <path id="Vector" d="M34.86 207.76C32.76 205.43 30.74 203.32 28.81 201.22C25.47 205.03 22.01 209.06 18.84 212.81C20.38 215.22 22.19 217.66 24.1 220.35C27.67 216.07 31.44 211.79 34.86 207.76L34.86 207.76Z" fill="currentColor"
              fill-opacity="1.000000" fill-rule="evenodd"/>
        <path id="Vector" d="M27.6 200.05C25.77 198.25 24.14 196.37 22.39 194.64C19.49 197.9 16.43 201.25 13.53 204.51C14.75 206.87 16.18 209.18 17.5 211.66C20.86 207.88 24.38 203.87 27.6 200.05Z" fill="currentColor" fill-opacity="1.000000"
              fill-rule="evenodd"/>
        <path id="Vector" d="M21.72 193.73C20.18 192.07 18.79 190.15 17.58 188.45C14.88 191.36 12.34 194.23 9.46 197.33C10.64 199.42 11.84 201.39 13.11 203.54C15.95 200.38 18.88 197.09 21.72 193.73L21.72 193.73Z" fill="currentColor"
              fill-opacity="1.000000" fill-rule="evenodd"/>
        <path id="Vector" d="M16.81 187.1C15.5 185.58 14.38 184.13 13.21 182.65C10.71 185.36 8.24 188.16 6.07 190.54C6.79 192.42 7.77 194.18 8.57 196.2C11.26 193.17 14.05 190.05 16.81 187.1L16.81 187.1Z" fill="currentColor" fill-opacity="1.000000"
              fill-rule="evenodd"/>
        <path id="Vector" d="M12.74 182.18C11.71 180.69 10.86 179.09 9.95 177.79C7.96 179.86 5.95 182.15 3.98 184.37C4.57 186.09 5.09 187.92 5.8 189.69C8.09 187.17 10.37 184.65 12.74 182.18Z" fill="currentColor" fill-opacity="1.000000"
              fill-rule="evenodd"/>
        <path id="Vector" d="M9.57 176.9C8.67 175.66 8.13 174.22 7.6 172.89C5.87 174.69 4.07 176.59 2.38 178.43C2.71 180.01 3.22 181.57 3.55 183.43C5.51 181.31 7.65 178.93 9.57 176.9L9.57 176.9Z" fill="currentColor" fill-opacity="1.000000"
              fill-rule="evenodd"/>
        <path id="Vector" d="M7.21 172.31C6.81 170.92 6.34 169.75 5.93 168.44C4.4 170.04 3.03 171.61 1.42 173.3C1.63 174.74 1.84 176.29 2.17 177.78C3.92 175.85 5.61 174.02 7.21 172.31L7.21 172.31Z" fill="currentColor" fill-opacity="1.000000"
              fill-rule="evenodd"/>
        <path id="Vector" d="M5.74 167.5C5.52 166.22 5.23 165.08 5.18 163.72C3.78 165.24 2.55 166.58 1.38 167.81C1.23 169.41 1.27 170.82 1.35 172.39C2.72 170.9 4.33 169.09 5.74 167.5L5.74 167.5Z" fill="currentColor" fill-opacity="1.000000"
              fill-rule="evenodd"/>
        <path id="Vector" d="M26.45 132.23C28.22 131.28 29.89 130.38 31.72 129.65C31.71 129.91 31.77 130.07 31.93 130.05C29.99 130.96 27.94 132.16 26.32 133.03C26.33 132.67 26.33 132.57 26.45 132.23Z" fill="currentColor" fill-opacity="1.000000"
              fill-rule="evenodd"/>
        <path id="Vector" d="M4.97 159.12C5.21 157.9 5.38 156.73 5.66 155.7C4.95 156.41 3.98 157.45 3.2 158.34C2.77 159.72 2.36 161.07 1.93 162.47C3.08 161.24 3.94 160.26 4.96 159.12L4.97 159.12Z" fill="currentColor" fill-opacity="1.000000"
              fill-rule="evenodd"/>
        <path id="Vector" d="M5.99 154.77C6.39 153.64 6.84 152.49 7.29 151.39C6.58 152.22 6.04 152.93 5.32 153.73C4.57 155.05 3.99 156.31 3.4 157.7C4.31 156.62 5.04 155.79 5.99 154.77L5.99 154.77Z" fill="currentColor" fill-opacity="1.000000"
              fill-rule="evenodd"/>
        <path id="Vector" d="M14.48 141.41C15.51 140.33 16.6 139.34 17.74 138.45C17.45 138.85 17.16 139.27 16.92 139.61C15.67 140.73 14.46 141.77 13.31 142.84C13.72 142.39 13.96 142.06 14.48 141.41Z" fill="currentColor" fill-opacity="1.000000"
              fill-rule="evenodd"/>
        <path id="Vector" d="M204.98 297.92C194.02 290.54 184.54 283.55 174.63 277.13C168.73 287.15 162.59 297.05 156.39 308L199.59 308C201.37 304.6 203.17 301.24 204.98 297.92Z" fill="currentColor" fill-opacity="1.000000" fill-rule="evenodd"/>
        <path id="Vector" d="M170.19 274.28C161.48 268.14 153.34 262.26 145.8 256.88C139.47 266.29 133.21 275.66 126.98 285.62C134.3 292.4 141.79 299.94 150.35 307.26C156.91 295.73 163.74 284.96 170.19 274.28Z" fill="currentColor"
              fill-opacity="1.000000" fill-rule="evenodd"/>
        <path id="Vector" d="M142.19 254.36C134.97 250.18 128.57 245.57 122.36 241.28C116.62 248.96 110.7 257.01 104.97 265.4C110.8 270.87 116.78 276.44 123.49 282.84C129.87 272.82 135.84 263.38 142.19 254.36Z" fill="currentColor"
              fill-opacity="1.000000" fill-rule="evenodd"/>
        <path id="Vector" d="M119.53 238.99C113.54 235.14 108.08 231.23 102.82 227.95C97.55 234.52 91.95 241.97 86.61 249.57C91.5 253.87 96.72 258.07 102.35 262.88C107.86 254.86 113.75 246.88 119.53 238.99Z" fill="currentColor"
              fill-opacity="1.000000" fill-rule="evenodd"/>
        <path id="Vector" d="M100.31 226.35C95.3 223.37 90.78 220.21 86.29 217.63C81.3 223.49 76.51 229.59 71.41 236.15C75.42 239.64 79.83 243.2 84.26 247.16C89.55 240.22 95.03 232.87 100.31 226.35Z" fill="currentColor" fill-opacity="1.000000"
              fill-rule="evenodd"/>
        <path id="Vector" d="M40.61 126.3C39.45 126.18 38.4 126.06 37.46 125.88C35.53 127.78 33.76 129.55 31.87 131.35C32.81 131.48 33.7 131.78 34.7 132.02C36.65 130.18 38.52 128.27 40.61 126.3Z" fill="currentColor" fill-opacity="1.000000"
              fill-rule="evenodd"/>
        <path id="Vector" d="M70.59 207.04C67.05 204.92 63.84 202.68 60.54 200.62C56.45 205.47 52.24 210.35 48.11 215.32C51.06 217.68 54.11 220.31 57.4 222.94C61.75 217.59 66.11 212.36 70.59 207.04Z" fill="currentColor" fill-opacity="1.000000"
              fill-rule="evenodd"/>
        <path id="Vector" d="M58.7 199.96C55.76 197.9 52.79 196.04 49.97 194.14C46.46 198.19 42.79 202.42 39.27 206.69C41.67 209.08 44.21 211.34 46.86 213.81C50.76 209.31 54.72 204.63 58.7 199.96Z" fill="currentColor" fill-opacity="1.000000"
              fill-rule="evenodd"/>
        <path id="Vector" d="M48.22 193.02C45.57 191.41 43.43 189.53 41.08 188C37.74 191.73 34.36 195.42 31.2 199.1C33.13 201.12 35.26 203.09 37.56 205.3C41.2 200.86 44.76 196.86 48.21 193.02L48.22 193.02Z" fill="currentColor" fill-opacity="1.000000"
              fill-rule="evenodd"/>
        <path id="Vector" d="M39.75 186.97C37.54 185.43 35.54 183.86 33.43 182.65C30.51 185.82 27.44 189.11 24.33 192.81C26.01 194.56 27.77 196.26 29.74 198.24C32.97 194.59 36.4 190.62 39.75 186.97Z" fill="currentColor" fill-opacity="1.000000"
              fill-rule="evenodd"/>
        <path id="Vector" d="M32.69 181.99C30.84 180.52 29.07 179.29 27.55 177.87C24.88 180.77 22.12 183.77 19.45 186.59C20.84 188.23 22.24 190.05 23.9 191.82C26.82 188.42 29.76 185.2 32.69 181.99L32.69 181.99Z" fill="currentColor"
              fill-opacity="1.000000" fill-rule="evenodd"/>
        <path id="Vector" d="M26.47 176.9C24.85 175.84 23.54 174.43 22.24 173.22C19.68 175.88 17.11 178.68 14.57 181.52C15.93 182.76 16.99 184.4 18.24 185.9C20.91 182.94 23.79 179.82 26.47 176.9L26.47 176.9Z" fill="currentColor"
              fill-opacity="1.000000" fill-rule="evenodd"/>
        <path id="Vector" d="M21.52 172.84C20.11 171.81 19.19 170.44 18.03 169.27C15.85 171.54 13.59 173.96 11.49 176.27C12.52 177.56 13.44 179 14.48 180.49C16.82 177.93 19.15 175.37 21.52 172.84Z" fill="currentColor" fill-opacity="1.000000"
              fill-rule="evenodd"/>
        <path id="Vector" d="M11.62 161.48C11.15 160.36 10.73 159.36 10.37 158.33C8.87 159.91 7.55 161.31 6.16 162.8C6.38 164 6.73 165.11 6.84 166.52C8.54 164.76 10.06 163.11 11.62 161.49L11.62 161.48Z" fill="currentColor" fill-opacity="1.000000"
              fill-rule="evenodd"/>
        <path id="Vector" d="M9.98 157.96C9.86 156.76 9.5 155.94 9.44 154.93C8.3 156.11 7.1 157.39 5.96 158.63C5.9 159.78 6.01 160.98 6.13 162.12C7.4 160.73 8.66 159.31 9.98 157.96Z" fill="currentColor" fill-opacity="1.000000" fill-rule="evenodd"/>
        <path id="Vector" d="M9.61 150.98C9.71 150.23 9.98 149.13 10.18 148.3C9.42 149.14 8.59 150.1 7.88 150.88C7.31 152.05 6.92 153.16 6.58 154.28C7.59 153.26 8.55 152.13 9.61 150.98L9.61 150.98Z" fill="currentColor" fill-opacity="1.000000"
              fill-rule="evenodd"/>
        <path id="Vector" d="M11.54 145.32C11.97 144.59 12.62 143.5 13.5 142.42C13.03 143.03 12.45 143.69 12.21 144.16C11.15 145.42 10.38 146.43 9.55 147.57C10.14 146.86 10.9 146.04 11.55 145.32L11.54 145.32Z" fill="currentColor"
              fill-opacity="1.000000" fill-rule="evenodd"/>
        <path id="Vector" d="M17.48 137.81C18.28 136.92 19.13 136.13 19.92 135.43C19.41 136.1 18.95 136.73 18.44 137.27C17.47 138.17 16.5 139.14 15.64 139.92C16.33 139.14 16.85 138.56 17.48 137.81L17.48 137.81Z" fill="currentColor"
              fill-opacity="1.000000" fill-rule="evenodd"/>
        <path id="Vector" d="M15.39 142.29C15.52 141.61 15.83 140.88 15.96 140.2C15.15 141.16 14.29 142.12 13.47 142.98C13.17 143.77 12.74 144.63 12.43 145.49C13.36 144.49 14.41 143.43 15.39 142.29Z" fill="currentColor" fill-opacity="1.000000"
              fill-rule="evenodd"/>
        <path id="Vector" d="M386.16 194.21C368.29 190.45 351.87 186.74 336.41 183.21C330.45 192.83 324.36 202 318.67 211.85C333.67 216.03 350.22 221.4 368.54 226.88C374.5 215.54 380.28 204.81 386.16 194.21L386.16 194.21Z" fill="currentColor"
              fill-opacity="1.000000" fill-rule="evenodd"/>
        <path id="Vector" d="M283.11 183.36C270.63 180.59 259.66 177.87 248.74 175.8C243.38 183.06 237.55 190.57 231.73 198.45C242.39 201.68 253.57 205.16 265.6 209.01C271.2 200.37 277.29 191.49 283.11 183.36L283.11 183.36Z" fill="currentColor"
              fill-opacity="1.000000" fill-rule="evenodd"/>
        <path id="Vector" d="M268.43 126.9C258.5 126.5 249.2 125.9 240.23 125.43C235.19 130.93 230.25 136.31 225.5 141.89C234.2 142.68 243.44 143.68 253.27 145.12C258.17 138.83 263.07 132.74 268.43 126.9Z" fill="currentColor" fill-opacity="1.000000"
              fill-rule="evenodd"/>
        <path id="Vector" d="M321.22 308C308.48 301.24 296.57 294.85 285.34 288.7C282.14 295 278.92 301.43 275.75 308L321.22 308L321.22 308Z" fill="currentColor" fill-opacity="1.000000" fill-rule="evenodd"/>
        <path id="Vector" d="M277.72 284.74C263.1 276.97 250.21 269.47 237.61 262.76C231 274.2 224.22 286.5 217.48 298.78C221.61 301.83 225.81 304.89 230.11 308L266.37 308C270.21 300.05 273.99 292.33 277.72 284.74Z" fill="currentColor"
              fill-opacity="1.000000" fill-rule="evenodd"/>
        <path id="Vector" d="M231.78 259.75C220.36 254.15 209.83 248.95 200.15 243.79C193.91 253.26 187.27 263.42 181.27 273.91C190.7 280.44 200.84 287.14 211.99 294.36C218.44 282.27 225.16 271.03 231.78 259.75Z" fill="currentColor"
              fill-opacity="1.000000" fill-rule="evenodd"/>
        <path id="Vector" d="M194.85 242.36C185.42 237.54 176.83 233.32 168.68 229.29C163.07 237.27 157.14 245.53 151.19 253.93C159.01 259.26 167.57 265.13 176.59 271.31C182.78 260.89 188.75 251.67 194.85 242.35L194.85 242.36Z" fill="currentColor"
              fill-opacity="1.000000" fill-rule="evenodd"/>
        <path id="Vector" d="M163.66 226.36C156.13 222.89 149.02 219.5 142.29 216.13C136.92 223.02 131.52 230.28 126.12 237.75C132.49 242.16 139.16 246.37 146.44 250.58C152.08 242.6 157.92 234.43 163.66 226.36L163.66 226.36Z" fill="currentColor"
              fill-opacity="1.000000" fill-rule="evenodd"/>
        <path id="Vector" d="M138.4 214.16C132.28 210.7 126.42 208.15 120.61 205.63C115.55 212.06 110.36 218.64 105.03 225.28C110.53 228.37 116.27 231.95 122.06 235.92C127.43 228.57 133.03 221.19 138.4 214.16Z" fill="currentColor"
              fill-opacity="1.000000" fill-rule="evenodd"/>
        <path id="Vector" d="M118.07 204.92C112.9 202.42 107.8 200.07 102.84 197.99C98.44 203.53 93.79 209.06 89.21 214.58C93.71 217.37 98.48 220.38 103.32 223.6C108.3 217.27 113.33 210.94 118.06 204.92L118.07 204.92Z" fill="currentColor"
              fill-opacity="1.000000" fill-rule="evenodd"/>
        <path id="Vector" d="M85.26 189.71C81.16 188.22 77.58 186.55 74.02 184.91C70.19 189.22 66.21 193.75 62.55 198.01C65.78 200.1 68.92 202.34 72.78 204.32C76.82 199.46 81 194.54 85.26 189.71L85.26 189.71Z" fill="currentColor"
              fill-opacity="1.000000" fill-rule="evenodd"/>
        <path id="Vector" d="M72.13 184.14C68.68 182.51 65.56 180.88 62.49 179.67C58.92 183.54 55.62 187.3 51.93 191.48C54.75 193.31 57.64 195.08 60.63 197.1C64.55 192.71 68.23 188.39 72.13 184.14Z" fill="currentColor" fill-opacity="1.000000"
              fill-rule="evenodd"/>
        <path id="Vector" d="M60.96 179.07C58.15 177.75 55.61 176.38 52.98 175.24C49.63 178.82 46.3 182.34 43.32 185.89C45.5 187.49 48.05 189.03 50.57 190.67C54.15 186.71 57.57 182.88 60.95 179.07L60.96 179.07Z" fill="currentColor"
              fill-opacity="1.000000" fill-rule="evenodd"/>
        <path id="Vector" d="M51.06 174.74C48.5 173.59 46.21 172.51 43.99 171.28C41.34 174.14 38.18 177.51 35.49 180.6C37.41 181.99 39.6 183.37 41.81 184.94C44.79 181.48 48 178.06 51.06 174.74Z" fill="currentColor" fill-opacity="1.000000"
              fill-rule="evenodd"/>
        <path id="Vector" d="M42.76 170.65C40.63 169.7 38.5 168.77 36.63 167.81C34.03 170.57 31.53 173.3 28.94 176C30.58 177.24 32.47 178.38 34.25 179.91C37.07 176.73 39.81 173.69 42.76 170.65L42.76 170.65Z" fill="currentColor"
              fill-opacity="1.000000" fill-rule="evenodd"/>
        <path id="Vector" d="M36.09 167.28C34.23 166.4 32.62 165.41 30.84 164.61C28.59 166.92 26.2 169.45 23.8 171.95C25.28 173.06 26.72 174.31 28.34 175.59C30.86 172.82 33.48 170.1 36.09 167.28Z" fill="currentColor" fill-opacity="1.000000"
              fill-rule="evenodd"/>
        <path id="Vector" d="M30.07 163.83C28.66 162.78 27.25 161.8 25.85 161.06C23.55 163.48 21.46 165.68 19.36 167.92C20.46 169.11 21.68 170.2 22.97 171.37C25.38 168.79 27.76 166.33 30.07 163.83L30.07 163.83Z" fill="currentColor"
              fill-opacity="1.000000" fill-rule="evenodd"/>
        <path id="Vector" d="M25.04 160.54C23.77 159.84 22.56 159.12 21.53 158.21C19.58 160.27 17.79 162.14 15.69 164.38C16.6 165.39 17.51 166.37 18.54 167.39C20.64 165.2 22.73 163.06 25.04 160.54Z" fill="currentColor" fill-opacity="1.000000"
              fill-rule="evenodd"/>
        <path id="Vector" d="M219.9 152.94C211.59 151.79 203.66 150.82 195.97 149.61C191.17 155.37 186.34 160.92 181.25 166.69C188.58 168.24 196.39 169.7 204.7 171.75C209.8 165.31 214.92 159.12 219.91 152.94L219.9 152.94Z" fill="currentColor"
              fill-opacity="1.000000" fill-rule="evenodd"/>
        <path id="Vector" d="M65.58 123.31C63.31 123.33 61.17 123.33 59.14 123.37C56.76 125.75 54.31 128.07 52.02 130.38C54 130.35 55.72 130.68 57.89 130.75C60.39 128.25 62.93 125.76 65.58 123.31L65.58 123.31Z" fill="currentColor"
              fill-opacity="1.000000" fill-rule="evenodd"/>
        <path id="Vector" d="M65.22 115.92C63.17 116.17 61.22 116.35 59.34 116.51C57.03 118.67 54.83 120.75 52.67 122.79C54.4 122.8 56.19 122.78 58.04 122.71C60.35 120.51 62.82 118.18 65.22 115.92Z" fill="currentColor" fill-opacity="1.000000"
              fill-rule="evenodd"/>
        <path id="Vector" d="M459.33 308C453.26 305.44 447.34 302.92 441.56 300.44C440.59 302.92 439.64 305.44 438.7 308L459.33 308L459.33 308Z" fill="currentColor" fill-opacity="1.000000" fill-rule="evenodd"/>
        <path id="Vector" d="M215.44 98.63C208.27 99.01 201.46 99.34 194.97 99.64C190.97 103.61 187.02 107.63 182.93 111.47C189.42 111.51 195.91 111.42 202.9 111.32C206.95 107.03 211.24 102.83 215.44 98.63L215.44 98.63Z" fill="currentColor"
              fill-opacity="1.000000" fill-rule="evenodd"/>
        <path id="Vector" d="M354.7 263.92C336.45 256.46 319.71 249.87 303.79 243.77C297.58 255.23 290.94 267.55 284.88 280.74C300.52 288.91 316.89 297.2 335.2 306.07C341.39 291.74 348.08 277.53 354.7 263.92L354.7 263.92Z" fill="currentColor"
              fill-opacity="1.000000" fill-rule="evenodd"/>
        <path id="Vector" d="M251.37 223.29C239.82 219 228.83 215.19 218.63 211.43C212.7 219.92 206.65 228.91 200.77 238.01C210.51 242.99 221.24 248.05 232.2 253.17C238.59 243.15 244.96 232.83 251.36 223.29L251.37 223.29Z" fill="currentColor"
              fill-opacity="1.000000" fill-rule="evenodd"/>
        <path id="Vector" d="M181.29 199.23C173.31 196.53 166.03 194.07 159.1 191.53C154.07 197.71 148.81 204.43 143.77 211.34C150.37 214.53 157.59 217.91 164.89 221.4C170.16 213.73 175.84 206.21 181.29 199.23L181.29 199.23Z" fill="currentColor"
              fill-opacity="1.000000" fill-rule="evenodd"/>
        <path id="Vector" d="M155.14 190.3C148.53 188.09 142.34 186.13 136.4 184.34C131.43 190.2 126.61 196.15 121.64 202.07C127.28 204.48 133.03 206.9 139.26 209.91C144.64 203 149.81 196.34 155.14 190.3Z" fill="currentColor" fill-opacity="1.000000"
              fill-rule="evenodd"/>
        <path id="Vector" d="M133.85 183.69C128.35 181.91 123.01 180.17 117.77 178.4C113.41 183.57 109.04 188.64 104.58 193.91C109.41 196.07 114.5 198.49 119.68 200.83C124.54 194.98 129.33 189.2 133.85 183.68L133.85 183.69Z" fill="currentColor"
              fill-opacity="1.000000" fill-rule="evenodd"/>
        <path id="Vector" d="M114.31 177.35C109.62 175.93 105.02 174.58 100.82 173.22C96.43 178.11 92.27 182.65 88.16 187.54C92.1 189.09 96.34 190.85 100.98 193.06C105.36 187.5 109.97 182.3 114.31 177.35Z" fill="currentColor" fill-opacity="1.000000"
              fill-rule="evenodd"/>
        <path id="Vector" d="M98.76 172.79C94.5 171.61 90.67 170.27 86.83 169.16C83.06 173.22 79.23 177.59 75.65 181.82C79.12 183.34 82.69 185.02 86.83 186.43C90.68 182.04 94.76 177.28 98.76 172.79L98.76 172.79Z" fill="currentColor"
              fill-opacity="1.000000" fill-rule="evenodd"/>
        <path id="Vector" d="M84.78 168.5C81.11 167.52 77.64 166.66 74.38 165.7C70.93 169.46 67.38 173.16 64.1 176.84C67.1 177.98 70.37 179.32 73.63 180.93C77.27 176.66 81.02 172.61 84.78 168.5Z" fill="currentColor" fill-opacity="1.000000"
              fill-rule="evenodd"/>
        <path id="Vector" d="M72.87 165.23C69.76 164.37 66.77 163.47 63.92 162.47C60.73 165.9 57.52 169.32 54.51 172.65C57.02 173.86 59.79 175.05 62.64 176.17C66.05 172.57 69.41 168.87 72.87 165.23L72.87 165.23Z" fill="currentColor"
              fill-opacity="1.000000" fill-rule="evenodd"/>
        <path id="Vector" d="M61.97 162.13C59.21 161.29 56.76 160.35 54.39 159.61C51.46 162.54 48.57 165.55 45.72 168.47C47.82 169.77 50.23 170.95 52.83 172C55.9 168.64 58.89 165.39 61.97 162.13L61.97 162.13Z" fill="currentColor"
              fill-opacity="1.000000" fill-rule="evenodd"/>
        <path id="Vector" d="M52.65 159.46C50.35 158.67 48.07 158.01 45.86 157.4C43.45 159.93 40.78 162.69 38.33 165.38C40.31 166.19 42.25 167.12 44.38 168.03C47.06 165.23 49.83 162.4 52.65 159.46L52.65 159.46Z" fill="currentColor"
              fill-opacity="1.000000" fill-rule="evenodd"/>
        <path id="Vector" d="M45.26 156.94C43.35 156.16 41.46 155.44 39.51 154.8C37.2 157.19 34.71 159.87 32.43 162.28C34.15 163.14 35.81 164.06 37.61 164.95C40.12 162.29 42.73 159.68 45.26 156.94L45.26 156.94Z" fill="currentColor"
              fill-opacity="1.000000" fill-rule="evenodd"/>
        <path id="Vector" d="M38.63 154.26C36.87 153.61 35.3 153.03 33.67 152.53C31.41 154.76 29.2 156.95 27.04 159.27C28.49 159.97 29.89 160.82 31.36 161.74C33.76 159.28 36.14 156.74 38.63 154.26L38.63 154.26Z" fill="currentColor"
              fill-opacity="1.000000" fill-rule="evenodd"/>
        <path id="Vector" d="M166.46 146.59C160.23 145.95 154.23 145.47 148.48 144.84C144.22 149.42 139.88 154.1 135.56 158.73C141.11 159.66 146.65 160.77 152.87 162.03C157.41 156.78 161.9 151.56 166.46 146.59Z" fill="currentColor"
              fill-opacity="1.000000" fill-rule="evenodd"/>
        <path id="Vector" d="M145.86 144.42C140.44 143.74 135.14 143.28 130.38 142.65C126.21 146.92 122.08 151.3 118.21 155.58C122.93 156.49 127.79 157.41 133.04 158.25C137.21 153.77 141.61 148.98 145.86 144.42Z" fill="currentColor"
              fill-opacity="1.000000" fill-rule="evenodd"/>
        <path id="Vector" d="M128.01 142.38C123.07 141.91 118.63 141.49 114.33 141.07C110.6 144.86 106.69 148.91 102.97 152.8C107.11 153.57 111.39 154.36 115.89 155.32C119.81 150.9 123.95 146.53 128.01 142.38Z" fill="currentColor"
              fill-opacity="1.000000" fill-rule="evenodd"/>
        <path id="Vector" d="M112.29 140.84C108.08 140.44 104.08 140.19 100.26 139.84C96.77 143.37 93.05 147.27 89.67 150.74C93.31 151.35 97.12 151.81 101.03 152.42C104.59 148.7 108.57 144.64 112.3 140.84L112.29 140.84Z" fill="currentColor"
              fill-opacity="1.000000" fill-rule="evenodd"/>
        <path id="Vector" d="M98.39 139.7C94.71 139.29 91.26 138.79 87.81 138.66C84.56 141.89 81.23 145.25 77.95 148.73C81.05 149.26 84.34 149.87 87.9 150.53C91.32 146.88 94.95 143.22 98.39 139.7Z" fill="currentColor" fill-opacity="1.000000"
              fill-rule="evenodd"/>
        <path id="Vector" d="M86.21 138.6C82.98 138.29 80.01 138.01 77 137.81C73.83 140.87 70.64 144.02 67.89 146.95C70.53 147.48 73.36 148.02 76.48 148.42C79.66 145.02 82.83 141.82 86.2 138.6L86.21 138.6Z" fill="currentColor" fill-opacity="1.000000"
              fill-rule="evenodd"/>
        <path id="Vector" d="M75.65 137.71C72.76 137.42 69.94 137.23 67.42 136.95C64.51 139.79 61.64 142.71 58.81 145.54C61.18 146.09 63.9 146.38 66.46 146.75C69.45 143.8 72.41 140.77 75.65 137.71L75.65 137.71Z" fill="currentColor"
              fill-opacity="1.000000" fill-rule="evenodd"/>
        <path id="Vector" d="M65.97 137C63.41 136.77 61.03 136.55 58.77 136.34C56.29 138.9 53.68 141.48 51.05 143.99C53.21 144.35 55.51 144.9 57.69 145.39C60.41 142.56 63.12 139.87 65.97 137Z" fill="currentColor" fill-opacity="1.000000"
              fill-rule="evenodd"/>
        <path id="Vector" d="M57.38 136.19C55.19 136.03 53.24 135.78 51.23 135.68C48.84 137.95 46.45 140.3 44.04 142.69C45.89 143.04 47.63 143.45 49.6 143.77C52.17 141.26 54.84 138.68 57.38 136.18L57.38 136.19Z" fill="currentColor"
              fill-opacity="1.000000" fill-rule="evenodd"/>
        <path id="Vector" d="M50.08 135.48C48.2 135.25 46.54 135.05 44.79 134.89C42.5 137.12 40.21 139.28 37.96 141.59C39.5 141.97 41.17 142.24 42.89 142.68C45.25 140.27 47.7 137.84 50.08 135.48L50.08 135.48Z" fill="currentColor"
              fill-opacity="1.000000" fill-rule="evenodd"/>
        <path id="Vector" d="M44.05 134.85C42.46 134.59 41.1 134.25 39.69 133.99C37.63 136.05 35.5 138.14 33.58 140.08C34.83 140.45 36.25 140.8 37.56 141.24C39.69 139.11 41.93 136.94 44.05 134.85Z" fill="currentColor" fill-opacity="1.000000"
              fill-rule="evenodd"/>
        <path id="Vector" d="M38.79 133.81C37.56 133.56 36.21 133.49 35.09 133.19C33.14 135.11 31.17 137.02 29.37 138.86C30.37 139.2 31.39 139.57 32.57 139.89C34.54 137.96 36.67 135.96 38.79 133.81L38.79 133.81Z" fill="currentColor"
              fill-opacity="1.000000" fill-rule="evenodd"/>
        <path id="Vector" d="M24.74 134.97C24.36 134.64 24.04 134.14 23.77 133.78C22.47 135.15 21.17 136.36 20.09 137.58C20.07 138.17 20.27 138.7 20.54 139.21C21.96 137.81 23.27 136.46 24.74 134.97L24.74 134.97Z" fill="currentColor"
              fill-opacity="1.000000" fill-rule="evenodd"/>
        <path id="Vector" d="M50.07 123.75C53.18 123.09 56.23 122.43 59.74 121.74C60.56 121.32 61.34 121.13 62.33 120.76C58.61 121.66 55.23 122.38 51.95 123.16C51.19 123.67 50.68 123.44 50.07 123.75Z" fill="currentColor" fill-opacity="1.000000"
              fill-rule="evenodd"/>
        <path id="Vector" d="M71.23 120.28C75.63 119.9 80.08 119.91 84.93 119.69C85.83 119.6 86.86 119.53 87.92 119.21C82.86 119.69 78.23 119.58 73.75 119.85C72.7 120.24 71.9 120.1 71.23 120.28L71.23 120.28Z" fill="currentColor"
              fill-opacity="1.000000" fill-rule="evenodd"/>
        <path id="Vector" d="M159.42 129.42C153.81 129.07 148.24 128.87 143.21 128.54C139.18 132.57 135.2 136.67 131.31 140.85C136.29 141.35 141.58 141.83 146.86 142.44C151.02 137.95 155.33 133.49 159.42 129.42L159.42 129.42Z" fill="currentColor"
              fill-opacity="1.000000" fill-rule="evenodd"/>
        <path id="Vector" d="M140.77 128.4C135.74 128.32 130.98 128.22 126.5 128.03C122.87 131.75 118.87 135.65 115.36 139.37C119.59 139.79 124.19 140.11 128.94 140.5C132.79 136.44 136.84 132.33 140.77 128.4L140.77 128.4Z" fill="currentColor"
              fill-opacity="1.000000" fill-rule="evenodd"/>
        <path id="Vector" d="M124.35 128.01C119.91 127.9 115.74 127.91 111.63 127.81C108.14 131.13 104.66 134.67 101.28 138.31C105.14 138.52 109.13 138.79 113.3 139.28C116.76 135.58 120.7 131.66 124.35 128.01L124.35 128.01Z" fill="currentColor"
              fill-opacity="1.000000" fill-rule="evenodd"/>
        <path id="Vector" d="M109.72 127.69C105.8 127.61 102.15 127.68 98.61 127.57C95.26 130.77 92.01 133.97 88.84 137.15C92.18 137.29 95.67 137.71 99.4 138.12C102.81 134.64 106.29 131.05 109.72 127.69Z" fill="currentColor" fill-opacity="1.000000"
              fill-rule="evenodd"/>
        <path id="Vector" d="M96.9 127.49C93.39 127.55 90.34 127.39 87.14 127.42C83.98 130.46 80.91 133.39 77.94 136.37C80.9 136.64 83.98 136.89 87.24 137.1C90.4 133.86 93.62 130.81 96.9 127.49Z" fill="currentColor" fill-opacity="1.000000"
              fill-rule="evenodd"/>
        <path id="Vector" d="M85.67 127.31C82.54 127.28 79.7 127.26 76.87 127.16C73.96 129.97 71.15 132.74 68.32 135.57C70.86 136.06 73.6 136.18 76.48 136.38C79.57 133.32 82.46 130.36 85.68 127.31L85.67 127.31Z" fill="currentColor"
              fill-opacity="1.000000" fill-rule="evenodd"/>
        <path id="Vector" d="M75.54 127.2C72.9 127.2 70.21 127.31 67.91 127.25C65.26 129.73 62.54 132.39 59.85 134.94C62.16 135.07 64.54 135.26 67.05 135.56C69.76 132.75 72.69 130 75.54 127.2Z" fill="currentColor" fill-opacity="1.000000"
              fill-rule="evenodd"/>
        <path id="Vector" d="M173.48 114.47C167.58 114.53 161.88 114.62 156.56 114.75C152.67 118.64 148.8 122.38 144.98 126.24C150.21 126.41 155.72 126.68 161.25 126.91C165.39 122.73 169.55 118.49 173.48 114.47L173.48 114.47Z" fill="currentColor"
              fill-opacity="1.000000" fill-rule="evenodd"/>
        <path id="Vector" d="M154.07 114.92C148.88 114.94 143.85 115.17 139.17 115.32C135.49 118.89 131.79 122.47 128.22 126.02C132.77 125.97 137.65 126.04 142.56 126.27C146.32 122.32 150.16 118.63 154.07 114.92Z" fill="currentColor"
              fill-opacity="1.000000" fill-rule="evenodd"/>
        <path id="Vector" d="M136.81 115.36C132.2 115.45 127.74 115.63 123.53 115.82C120.17 119.05 116.75 122.38 113.33 125.88C117.36 125.9 121.6 125.98 125.96 126.05C129.52 122.45 133.22 118.81 136.8 115.36L136.81 115.36Z" fill="currentColor"
              fill-opacity="1.000000" fill-rule="evenodd"/>
        <path id="Vector" d="M121.59 115.84C117.4 116.08 113.78 116.15 109.96 116.37C106.57 119.52 103.48 122.55 100.22 125.7C103.87 125.72 107.57 125.68 111.54 125.76C114.75 122.41 118.17 119.08 121.59 115.84Z" fill="currentColor"
              fill-opacity="1.000000" fill-rule="evenodd"/>
        <path id="Vector" d="M108 116.54C104.52 116.6 101.11 116.7 97.72 116.9C94.57 119.93 91.57 122.8 88.65 125.63C91.69 125.78 94.96 125.8 98.52 125.73C101.67 122.56 104.82 119.6 108 116.54Z" fill="currentColor" fill-opacity="1.000000"
              fill-rule="evenodd"/>
        <path id="Vector" d="M96.05 116.95C92.73 117.18 89.81 117.3 87.01 117.42C84.05 120.15 81.01 122.9 78.3 125.57C81.07 125.62 83.97 125.71 87.14 125.63C90.06 122.81 93.02 119.94 96.05 116.95Z" fill="currentColor" fill-opacity="1.000000"
              fill-rule="evenodd"/>
        <path id="Vector" d="M85.27 117.75C82.32 117.99 79.71 118.13 77.04 118.28C74.33 120.85 71.49 123.5 68.87 126.15C71.38 125.95 74.01 125.92 76.76 125.81C79.49 123.24 82.2 120.68 85.27 117.75L85.27 117.75Z" fill="currentColor"
              fill-opacity="1.000000" fill-rule="evenodd"/>
        <path id="Vector" d="M166.59 102.44C161.18 102.75 156.07 102.96 151.13 103.36C147.46 106.86 143.92 110.24 140.35 113.88C145.22 113.55 150.1 113.51 155.39 113.36C158.98 109.71 162.73 106.07 166.58 102.44L166.59 102.44Z" fill="currentColor"
              fill-opacity="1.000000" fill-rule="evenodd"/>
        <path id="Vector" d="M148.65 103.71C143.81 103.93 139.37 104.35 134.88 104.82C131.47 107.96 128.17 111.15 124.78 114.41C129.14 114.04 133.39 114.03 138.1 113.88C141.65 110.41 145.22 106.88 148.65 103.71Z" fill="currentColor"
              fill-opacity="1.000000" fill-rule="evenodd"/>
        <path id="Vector" d="M132.81 105C128.55 105.32 124.6 105.74 120.6 106.18C117.36 109.11 114.23 112.16 110.98 115.22C114.83 114.83 118.62 114.75 122.85 114.43C126.03 111.37 129.4 108.2 132.81 105Z" fill="currentColor" fill-opacity="1.000000"
              fill-rule="evenodd"/>
        <path id="Vector" d="M118.65 106.32C114.88 106.65 111.33 106.86 107.81 107.19C104.77 110.03 101.82 112.84 98.8 115.72C102.19 115.54 105.53 115.39 109.29 115.22C112.49 112.2 115.46 109.26 118.65 106.32Z" fill="currentColor"
              fill-opacity="1.000000" fill-rule="evenodd"/>
        <path id="Vector" d="M106.06 107.4C102.88 107.61 99.71 107.91 96.45 108.38C93.59 110.99 90.72 113.71 87.94 116.32C90.9 116.17 93.98 115.88 97.13 115.8C100.21 112.92 103.18 110.19 106.06 107.4Z" fill="currentColor" fill-opacity="1.000000"
              fill-rule="evenodd"/>
        <path id="Vector" d="M86.71 110.41C83.91 110.75 81.23 111.07 78.77 111.29C76.24 113.61 73.55 116.07 70.94 118.51C73.42 118.29 75.97 118.23 78.51 118.08C81.09 115.54 83.88 112.98 86.71 110.41L86.71 110.41Z" fill="currentColor"
              fill-opacity="1.000000" fill-rule="evenodd"/>
        <path id="Vector" d="M77.26 111.42C74.86 111.63 72.58 111.78 70.36 112.06C68.03 114.3 65.69 116.39 63.46 118.57C65.42 118.55 67.66 118.39 69.8 118.32C72.19 116.09 74.78 113.67 77.26 111.42Z" fill="currentColor" fill-opacity="1.000000"
              fill-rule="evenodd"/>
        <path id="Vector" d="M160.74 92.54C155.88 93.11 151.19 93.66 146.47 94.23C143.12 97.34 139.86 100.36 136.42 103.52C141.05 102.92 145.4 102.66 150.36 102.12C153.75 98.84 157.27 95.76 160.74 92.54Z" fill="currentColor" fill-opacity="1.000000"
              fill-rule="evenodd"/>
        <path id="Vector" d="M144.3 94.45C139.97 94.93 135.62 95.54 131.49 96.06C128.42 98.95 125.23 101.87 122.03 104.86C126.08 104.41 129.98 104.1 134.35 103.73C137.78 100.52 141.06 97.53 144.3 94.45L144.3 94.45Z" fill="currentColor"
              fill-opacity="1.000000" fill-rule="evenodd"/>
        <path id="Vector" d="M129.51 96.29C125.67 96.72 121.9 97.24 118.04 97.82C115.09 100.58 112.28 103.11 109.2 105.94C112.72 105.6 116.32 105.32 120.1 105.07C123.24 102.06 126.48 99.07 129.51 96.29Z" fill="currentColor" fill-opacity="1.000000"
              fill-rule="evenodd"/>
        <path id="Vector" d="M116.36 98.08C112.94 98.6 109.53 99.05 106.3 99.49C103.48 102.07 100.54 104.66 97.74 107.2C100.96 106.87 104.12 106.53 107.45 106.15C110.53 103.36 113.45 100.72 116.36 98.08Z" fill="currentColor" fill-opacity="1.000000"
              fill-rule="evenodd"/>
        <path id="Vector" d="M95.86 101.71C92.92 102.18 90.21 102.51 87.65 102.84C85.02 105.25 82.36 107.63 79.86 110.06C82.37 109.79 84.94 109.54 87.79 109.17C90.44 106.71 93.08 104.29 95.86 101.71L95.86 101.71Z" fill="currentColor"
              fill-opacity="1.000000" fill-rule="evenodd"/>
        <path id="Vector" d="M85.76 103.56C83.16 103.91 80.85 104.27 78.49 104.71C76.03 106.9 73.62 109.06 71.05 111.39C73.26 111.1 75.66 110.92 78.05 110.72C80.56 108.32 83.11 105.95 85.76 103.56L85.76 103.56Z" fill="currentColor"
              fill-opacity="1.000000" fill-rule="evenodd"/>
        <path id="Vector" d="M171.17 81.04C166.05 81.84 161.21 82.56 156.56 83.36C153.21 86.14 150.04 89 146.61 92.13C151.3 91.41 156.04 90.9 160.87 90.27C164.32 87.09 167.73 84.07 171.17 81.04L171.17 81.04Z" fill="currentColor"
              fill-opacity="1.000000" fill-rule="evenodd"/>
        <path id="Vector" d="M154.35 83.59C149.77 84.38 145.39 85 141.1 85.74C138.13 88.49 135.02 91.15 131.86 94.04C136.02 93.44 140.32 92.91 144.67 92.25C147.85 89.36 151.03 86.54 154.35 83.59Z" fill="currentColor" fill-opacity="1.000000"
              fill-rule="evenodd"/>
        <path id="Vector" d="M166.21 73.36C161.55 74.18 157.09 75.08 152.72 75.89C149.58 78.67 146.51 81.33 143.44 84C147.56 83.3 152.03 82.62 156.72 81.82C159.82 79.07 163.05 76.22 166.21 73.36L166.21 73.36Z" fill="currentColor"
              fill-opacity="1.000000" fill-rule="evenodd"/>
        <path id="Vector" d="M216.88 76.27C210.18 77.2 203.94 78.06 198 78.67C194.05 82.07 190.44 85.56 186.94 88.83C192.7 88.35 198.84 87.66 205.34 86.96C209.04 83.43 212.89 79.85 216.88 76.27L216.88 76.27Z" fill="currentColor"
              fill-opacity="1.000000" fill-rule="evenodd"/>
        <path id="Vector" d="M36.03 142.24C34.6 141.84 33.3 141.43 32.06 141.09C30.12 143 28.13 144.95 26.23 147.09C27.2 147.59 28.33 148.19 29.53 148.74C31.59 146.65 33.82 144.38 36.03 142.24Z" fill="currentColor" fill-opacity="1.000000"
              fill-rule="evenodd"/>
        <path id="Vector" d="M41.36 143.58C39.69 143.19 38.14 142.76 36.66 142.38C34.39 144.67 32.22 146.88 30.16 148.97C31.36 149.63 32.68 150.24 34.12 150.87C36.47 148.44 38.92 145.94 41.36 143.58Z" fill="currentColor" fill-opacity="1.000000"
              fill-rule="evenodd"/>
        <path id="Vector" d="M47.55 144.99C45.64 144.64 43.9 144.17 42.22 143.7C39.68 146.27 37.23 148.71 34.94 151.09C36.5 151.59 38.08 152.19 39.95 152.66C42.46 150.09 45.07 147.51 47.56 144.99L47.55 144.99Z" fill="currentColor"
              fill-opacity="1.000000" fill-rule="evenodd"/>
        <path id="Vector" d="M55.46 146.56C53.22 146.08 51.05 145.57 48.89 145.23C46.35 147.74 43.69 150.57 41.12 153.23C43.06 153.76 44.96 154.53 46.92 155.3C49.71 152.3 52.66 149.45 55.46 146.56L55.46 146.56Z" fill="currentColor"
              fill-opacity="1.000000" fill-rule="evenodd"/>
        <path id="Vector" d="M64.06 147.98C61.44 147.59 58.83 147.2 56.64 146.7C53.78 149.54 50.83 152.42 47.99 155.4C50.2 156.12 52.54 156.75 54.95 157.43C57.83 154.34 60.87 151.22 64.06 147.98Z" fill="currentColor" fill-opacity="1.000000"
              fill-rule="evenodd"/>
        <path id="Vector" d="M73.86 149.85C70.84 149.39 68.08 148.86 65.43 148.31C62.14 151.65 59.05 154.87 56.16 157.91C58.58 158.6 61.21 159.47 63.9 160.28C67.29 156.71 70.41 153.42 73.86 149.85L73.86 149.85Z" fill="currentColor"
              fill-opacity="1.000000" fill-rule="evenodd"/>
        <path id="Vector" d="M84.92 152.17C81.49 151.59 78.31 150.93 75.21 150.3C71.89 153.83 68.58 157.22 65.26 160.73C68.1 161.66 71.14 162.56 74.26 163.47C77.78 159.64 81.44 155.79 84.92 152.17Z" fill="currentColor" fill-opacity="1.000000"
              fill-rule="evenodd"/>
        <path id="Vector" d="M98.92 154.2C94.98 153.42 91.22 152.83 87.72 152.32C84.12 155.9 80.47 159.82 76.9 163.64C80.21 164.43 83.79 165.28 87.36 166.46C91.29 162.15 95.03 158.14 98.92 154.2L98.92 154.2Z" fill="currentColor"
              fill-opacity="1.000000" fill-rule="evenodd"/>
        <path id="Vector" d="M113.31 156.75C108.88 155.88 104.52 154.91 100.69 154.15C96.76 158.27 92.79 162.33 89.04 166.54C92.82 167.69 96.81 168.95 101.18 169.98C105.18 165.54 109.21 161.23 113.31 156.75L113.31 156.75Z" fill="currentColor"
              fill-opacity="1.000000" fill-rule="evenodd"/>
        <path id="Vector" d="M130.42 159.8C125.29 158.91 120.2 158.13 115.8 156.87C111.66 161.43 107.43 166.03 103.5 170.51C107.86 171.77 112.45 173.05 117.3 174.28C121.74 169.3 125.99 164.59 130.42 159.8L130.42 159.8Z" fill="currentColor"
              fill-opacity="1.000000" fill-rule="evenodd"/>
        <path id="Vector" d="M149.81 163.89C143.78 162.65 138.23 161.54 133.02 160.35C128.54 165.27 124.02 170.17 119.6 175.29C125.04 176.8 130.06 178.67 135.82 180.14C140.57 174.68 145.28 169.24 149.81 163.89Z" fill="currentColor"
              fill-opacity="1.000000" fill-rule="evenodd"/>
        <path id="Vector" d="M172.21 169.01C165.16 167.63 158.91 166.33 152.6 164.96C147.9 170.35 143.21 175.85 138.5 181.22C144.39 183.16 150.63 185.06 157.17 187.01C162.34 180.71 167.26 174.79 172.21 169.01Z" fill="currentColor"
              fill-opacity="1.000000" fill-rule="evenodd"/>
        <path id="Vector" d="M405.42 137.83C400.98 134.28 396.63 130.71 392.66 127.44C386.24 131.07 379.85 134.45 373.39 138.28C377 142.04 380.56 145.97 384.87 150C391.83 145.89 398.78 141.81 405.42 137.83L405.42 137.83Z" fill="currentColor"
              fill-opacity="1.000000" fill-rule="evenodd"/>
        <path id="Vector" d="M187.58 130.55C185.81 128.78 184.08 127.12 182.29 125.71C179.79 127.46 177.18 129.32 174.61 131.09C176.21 132.77 177.72 134.58 179.34 136.61C182.1 134.55 184.87 132.5 187.58 130.55L187.58 130.55Z" fill="currentColor"
              fill-opacity="1.000000" fill-rule="evenodd"/>
        <path id="Vector" d="M117.65 64.92C116.97 63.87 116.34 62.78 115.75 61.69C113.5 63.55 111.1 65.56 108.74 67.52C109.11 68.78 109.63 69.92 110.22 71.16C112.69 69.09 115.2 66.98 117.65 64.92L117.65 64.92Z" fill="currentColor"
              fill-opacity="1.000000" fill-rule="evenodd"/>
        <path id="Vector" d="M482.91 246.62C477.36 242.28 472.12 238.12 467.04 234.46C460.42 236.49 453.92 238.9 447.1 241.2C452.04 245.2 456.91 249.52 461.91 254.18C469.02 251.51 476.3 249.1 482.91 246.61L482.91 246.62Z" fill="currentColor"
              fill-opacity="1.000000" fill-rule="evenodd"/>
        <path id="Vector" d="M133.5 78.99C132.95 78.39 132.52 77.81 132.09 77.25C130.63 78.31 129.16 79.35 127.74 80.39C128.07 81.03 128.41 81.78 128.79 82.42C130.36 81.28 131.88 80.15 133.5 78.99L133.5 78.99Z" fill="currentColor"
              fill-opacity="1.000000" fill-rule="evenodd"/>
        <path id="Vector" d="M183.88 51.57C182.57 51.01 181.32 50.51 180.08 50.05C178.22 51.32 176.35 52.63 174.45 54.01C175.49 54.64 176.63 55.19 177.93 55.91C179.87 54.4 181.88 52.98 183.88 51.57L183.88 51.57Z" fill="currentColor"
              fill-opacity="1.000000" fill-rule="evenodd"/>
        <path id="Vector" d="M464.33 102.92C459.1 100.78 454.24 98.9 449.63 97.13C443.66 99.61 438 101.97 432.59 104.48C436.77 106.56 441.16 108.69 446.07 111.31C452.38 108.37 458.52 105.46 464.33 102.92Z" fill="currentColor" fill-opacity="1.000000"
              fill-rule="evenodd"/>
        <path id="Vector" d="M162.51 48.22C161.71 47.85 161.12 47.36 160.49 46.99C158.97 47.98 157.52 49.1 156.06 50.18C156.59 50.65 157.09 51.21 157.73 51.64C159.19 50.53 160.85 49.36 162.51 48.22Z" fill="currentColor" fill-opacity="1.000000"
              fill-rule="evenodd"/>
        <path id="Vector" d="M129.28 40.05C128.86 39.74 128.4 39.5 127.99 39.22C126.89 40.07 125.69 40.94 124.64 41.75C125 42.08 125.32 42.41 125.64 42.79C126.84 41.89 128.09 40.97 129.28 40.05Z" fill="currentColor" fill-opacity="1.000000"
              fill-rule="evenodd"/>
        <path id="Vector" d="M49.06 123.37C48.88 122.92 48.65 122.46 48.52 122.03C47.65 122.62 46.83 123.31 45.96 123.93C46.03 124.46 46.15 124.96 46.27 125.46C47.26 124.76 48.13 124.07 49.06 123.37Z" fill="currentColor" fill-opacity="1.000000"
              fill-rule="evenodd"/>
        <path id="Vector" d="M486.92 173.37C483.2 171.59 480.19 169.91 477.01 168.31C472.35 169.62 467.88 170.82 463.43 172.11C466.16 173.75 469.25 175.67 472.52 177.49C477.4 176.17 482.18 174.73 486.92 173.37Z" fill="currentColor"
              fill-opacity="1.000000" fill-rule="evenodd"/>
        <path id="Vector" d="M213.11 42.97C211.8 42.59 210.47 42.32 209.34 41.93C207.52 43.11 205.6 44.34 203.88 45.48C204.98 45.96 206 46.37 207.21 46.82C209.02 45.58 211.14 44.21 213.11 42.97Z" fill="currentColor" fill-opacity="1.000000"
              fill-rule="evenodd"/>
        <path id="Vector" d="M165 13.71C164.17 13.56 163.34 13.42 162.53 13.38C161.16 14.25 159.86 15.24 158.55 16.19C159.32 16.32 160.1 16.47 160.89 16.64C162.28 15.62 163.64 14.65 165 13.71Z" fill="currentColor" fill-opacity="1.000000"
              fill-rule="evenodd"/>
        <path id="Vector" d="M144.36 49.56C143.6 49.32 142.86 49.15 142.17 48.94C141 49.78 139.68 50.7 138.45 51.53C139.15 51.78 139.79 52.01 140.49 52.26C141.82 51.34 143.04 50.48 144.36 49.56L144.36 49.56Z" fill="currentColor"
              fill-opacity="1.000000" fill-rule="evenodd"/>
        <path id="Vector" d="M17.37 146.54C17.16 146.2 17 145.92 16.78 145.58C16.09 146.05 15.41 146.52 14.77 146.97C14.93 147.33 15.03 147.66 15.24 147.95C15.93 147.5 16.68 147.02 17.37 146.54Z" fill="currentColor" fill-opacity="1.000000"
              fill-rule="evenodd"/>
        <path id="Vector" d="M126.62 68.86C125.86 68.62 125.16 68.33 124.47 68.15C123.37 68.9 122.16 69.7 120.99 70.44C121.69 70.69 122.39 70.95 123.04 71.24C124.2 70.46 125.41 69.67 126.62 68.86Z" fill="currentColor" fill-opacity="1.000000"
              fill-rule="evenodd"/>
        <path id="Vector" d="M243.75 79.19C242.11 78.76 240.55 78.33 239.04 77.93C237.06 78.99 235.13 80.01 233.04 81.13C234.58 81.48 236.1 81.96 237.62 82.41C239.59 81.31 241.75 80.22 243.75 79.19Z" fill="currentColor" fill-opacity="1.000000"
              fill-rule="evenodd"/>
        <path id="Vector" d="M12.09 139.06C11.89 138.71 11.63 138.4 11.42 138.13C10.75 138.56 10.12 139.01 9.5 139.52C9.7 139.82 9.9 140.13 10.11 140.48C10.79 140 11.47 139.52 12.09 139.06Z" fill="currentColor" fill-opacity="1.000000"
              fill-rule="evenodd"/>
        <path id="Vector" d="M108.39 85.76C107.69 85.52 106.98 85.2 106.34 84.94C105.26 85.66 104.29 86.32 103.25 87.02C103.84 87.3 104.43 87.6 105.08 87.93C106.17 87.18 107.25 86.53 108.39 85.76L108.39 85.76Z" fill="currentColor"
              fill-opacity="1.000000" fill-rule="evenodd"/>
        <path id="Vector" d="M117.25 57.12C116.64 56.96 116.04 56.9 115.43 56.79C114.54 57.39 113.61 58.07 112.71 58.64C113.22 58.75 113.82 58.9 114.33 59.08C115.32 58.39 116.26 57.74 117.25 57.12L117.25 57.12Z" fill="currentColor"
              fill-opacity="1.000000" fill-rule="evenodd"/>
        <path id="Vector" d="M566 213.24C561.03 211.74 555.78 209.97 550.47 208.43C545.56 209.49 540.25 210.23 535.26 211.15C540.03 212.61 545.2 214.32 549.97 216.02C555.55 215.08 560.71 214.22 566 213.24L566 213.24Z" fill="currentColor"
              fill-opacity="1.000000" fill-rule="evenodd"/>
        <path id="Vector" d="M184.4 22.63C183.3 22.68 182.32 22.69 181.33 22.7C180.17 23.43 178.97 24.2 177.72 25.02C178.71 24.97 179.6 25.05 180.59 25.04C181.84 24.23 183.09 23.4 184.39 22.63L184.4 22.63Z" fill="currentColor" fill-opacity="1.000000"
              fill-rule="evenodd"/>
        <path id="Vector" d="M25.72 143.38C25.38 143.14 25.05 142.88 24.83 142.64C24.2 143.04 23.52 143.49 22.95 143.86C23.17 144.12 23.44 144.35 23.72 144.64C24.4 144.17 25.03 143.79 25.72 143.39L25.72 143.38Z" fill="currentColor"
              fill-opacity="1.000000" fill-rule="evenodd"/>
        <path id="Vector" d="M320.76 116.86C318.29 116.26 315.64 115.9 313.12 115.35C310.64 116.22 308.38 116.97 306.15 117.86C308.44 118.28 310.92 118.87 313.51 119.46C315.93 118.57 318.41 117.71 320.76 116.86L320.76 116.86Z" fill="currentColor"
              fill-opacity="1.000000" fill-rule="evenodd"/>
        <path id="Vector" d="M312.32 161.69C310.09 160.3 307.89 158.92 305.67 157.71C302.56 158.9 299.39 160.31 296.2 161.66C298.27 163.03 300.32 164.37 302.39 165.94C305.85 164.37 309.13 163.06 312.32 161.69L312.32 161.69Z" fill="currentColor"
              fill-opacity="1.000000" fill-rule="evenodd"/>
        <path id="Vector" d="M18.67 154.73C18.46 154.12 18.3 153.49 18.15 152.96C17.27 153.58 16.34 154.28 15.4 155C15.5 155.62 15.59 156.33 15.74 156.97C16.68 156.23 17.68 155.48 18.67 154.73L18.67 154.73Z" fill="currentColor"
              fill-opacity="1.000000" fill-rule="evenodd"/>
        <path id="Vector" d="M258.32 106.33C256.31 105.18 254.46 104.16 252.74 103.16C250.09 104.63 247.33 106.18 244.58 107.77C246.31 108.83 247.86 110.11 249.79 111.2C252.72 109.56 255.51 107.93 258.32 106.33Z" fill="currentColor"
              fill-opacity="1.000000" fill-rule="evenodd"/>
    </g>
</svg>
