<svg viewBox="0 0 725 394" fill="none" xmlns="http://www.w3.org/2000/svg" xmlns:xlink="http://www.w3.org/1999/xlink">
    <defs>
        <clipPath id="clip181_3">
            <rect id="Abstract Design" rx="0.000000" width="724.000000" height="393.000000" transform="matrix(-1 0 0 1 725.5 0.5)" fill="white" fill-opacity="0"/>
        </clipPath>
    </defs>
    <rect id="Abstract Design" rx="0.000000" width="724.000000" height="393.000000" transform="matrix(-1 0 0 1 725.5 0.5)" fill="#FFFFFF" fill-opacity="0"/>
    <g clip-path="url(#clip181_3)">
        <path id="Vector" d="M547.54 5.96C547.01 5.2 546.24 5.47 546.72 2.18C548.51 -3.22 546.23 3.19 546.44 2.28C546.71 3.87 547.69 3.09 548.28 3.01C548.1 3.72 547.85 4.87 547.54 5.96Z" fill="currentColor" fill-opacity="1.000000"
              fill-rule="evenodd"/>
        <path id="Vector" d="M661.36 336.09C665.5 329.21 668.88 321.64 672.2 314.9C673.96 317.61 679.02 347.36 686 394L670.89 394C666.31 359.76 662.91 338.53 661.36 336.09Z" fill="currentColor" fill-opacity="1.000000" fill-rule="evenodd"/>
        <path id="Vector" d="M674.3 316.36C677.65 309.97 680.76 303.89 683.91 299.27C685.62 301.75 691.74 338.2 700.15 394L686.49 394C680.38 348.2 675.94 318.98 674.3 316.36Z" fill="currentColor" fill-opacity="1.000000" fill-rule="evenodd"/>
        <path id="Vector" d="M685.42 297.41C688.24 293.4 690.94 289.58 693.6 285.96C696.75 304.16 699.94 322.12 703 339.97C706.12 358.09 709.19 376.13 712.19 393.96L711.99 393.99L699.71 393.99C695.13 362.27 690.27 329.97 685.42 297.41L685.42 297.41Z"
              fill="currentColor" fill-opacity="1.000000" fill-rule="evenodd"/>
        <path id="Vector"
              d="M694.7 284.07C697.06 280.31 699.31 276.97 701.45 273.82C705.51 293.8 709.56 313.57 713.46 332.95C717.4 352.53 721.27 371.89 725 390.86L725 391.64C721.46 392.31 717.82 392.97 714.08 393.57C711.04 375.61 707.82 357.36 704.57 338.95C701.37 320.85 697.97 302.57 694.7 284.07Z"
              fill="currentColor" fill-opacity="1.000000" fill-rule="evenodd"/>
        <path id="Vector" d="M702.52 272.43C704.54 269.42 706.12 266.38 707.53 263.16C712.47 284.64 717.46 305.94 722.09 326.9L725 340.08L725 382.55C721.7 365.97 718.27 349.15 714.81 332.15C710.82 312.54 706.69 292.55 702.51 272.43L702.52 272.43Z"
              fill="currentColor" fill-opacity="1.000000" fill-rule="evenodd"/>
        <path id="Vector" d="M708.56 261.94C710.27 259.24 711.8 256.67 713.16 253.85C717.14 269.95 721.1 285.91 725 301.71L725 333.59L723.32 326.19C718.58 305.16 713.61 283.66 708.56 261.94L708.56 261.94Z" fill="currentColor" fill-opacity="1.000000"
              fill-rule="evenodd"/>
        <path id="Vector" d="M713.92 252.67C715.27 250.44 716.2 247.82 717.12 245.21C719.77 255.14 722.4 265.01 725 274.82L725 297.13C721.33 282.47 717.6 267.64 713.92 252.67L713.92 252.67Z" fill="currentColor" fill-opacity="1.000000"
              fill-rule="evenodd"/>
        <path id="Vector" d="M718.11 244.51C719.02 242.24 719.85 239.92 720.44 237.67L725 253.86L725 270.34C722.72 261.78 720.42 253.16 718.11 244.51Z" fill="currentColor" fill-opacity="1.000000" fill-rule="evenodd"/>
        <path id="Vector" d="M720.81 235.89C721.55 233.7 722.13 231.61 722.64 229.74L725 237.78L725 250.71L720.81 235.89Z" fill="currentColor" fill-opacity="1.000000" fill-rule="evenodd"/>
        <path id="Vector" d="M722.8 228.57C723.22 226.59 723.41 224.59 723.68 222.67L725 227.03L725 236.01L722.8 228.57Z" fill="currentColor" fill-opacity="1.000000" fill-rule="evenodd"/>
        <path id="Vector" d="M723.79 221.94C723.98 220.05 723.85 217.92 723.65 215.9L725 220.21L725 225.92L723.79 221.94Z" fill="currentColor" fill-opacity="1.000000" fill-rule="evenodd"/>
        <path id="Vector" d="M723.58 214.51C723.56 212.9 723.22 211.03 722.88 209.04L725 215.82L725 219.06L723.58 214.51Z" fill="currentColor" fill-opacity="1.000000" fill-rule="evenodd"/>
        <path id="Vector" d="M722.85 208.54C722.53 206.85 722 205.22 721.38 203.37L724.99 214.98L724.99 215.37L722.85 208.54L722.85 208.54Z" fill="currentColor" fill-opacity="1.000000" fill-rule="evenodd"/>
        <path id="Vector" d="M721.03 202.28C720.28 200.68 719.46 198.92 718.88 197.54C720.91 204.12 722.96 210.69 725 217.25L725 215.02C723.66 210.77 722.34 206.53 721.03 202.28Z" fill="currentColor" fill-opacity="1.000000" fill-rule="evenodd"/>
        <path id="Vector" d="M718.25 196.5C717.37 194.97 716.2 193.26 715.05 191.64C718.37 202.49 721.7 213.34 725 224.16L725 218.35C722.74 211.07 720.48 203.77 718.25 196.5L718.25 196.5Z" fill="currentColor" fill-opacity="1.000000"
              fill-rule="evenodd"/>
        <path id="Vector" d="M545.03 394C553.06 386.2 560.7 378.95 567.95 371.55C572.4 378.86 577.07 386.41 581.72 394L545.03 394Z" fill="currentColor" fill-opacity="1.000000" fill-rule="evenodd"/>
        <path id="Vector" d="M572.08 367.81C580.38 359.1 588.07 351.89 595.31 345.22C603.49 356.48 611.08 367.41 619.07 379.52C615.5 383.89 611.85 388.8 608.03 394L588.48 394C582.97 385.01 577.51 376.32 572.08 367.81Z" fill="currentColor"
              fill-opacity="1.000000" fill-rule="evenodd"/>
        <path id="Vector" d="M598.71 341.66C605.88 335.26 612.2 329.18 618.33 323.33C625.5 332.93 632.86 343.17 640.04 353.27C634.56 360.26 628.51 367.4 622.3 375.3C614.39 363.89 606.82 352.82 598.71 341.66Z" fill="currentColor"
              fill-opacity="1.000000" fill-rule="evenodd"/>
        <path id="Vector" d="M621.3 320.64C626.96 315.7 632.39 310.67 637.46 306.01C643.82 314.42 650.42 322.58 657.1 331.3C652.45 337.03 647.7 343.08 642.65 349.89C635.52 340.08 628.33 329.97 621.3 320.64L621.3 320.64Z" fill="currentColor"
              fill-opacity="1.000000" fill-rule="evenodd"/>
        <path id="Vector" d="M655.09 288.85C658.98 285 662.82 281.56 666.52 278.24C671.77 284.45 677.5 291.27 682.73 297.87C679.77 301.85 676.32 306.1 672.89 310.94C666.93 303.15 661.11 296.36 655.09 288.85Z" fill="currentColor"
              fill-opacity="1.000000" fill-rule="evenodd"/>
        <path id="Vector" d="M668.67 277.1C671.98 273.87 675.33 270.93 678.24 267.66C682.93 273.18 687.85 278.88 692.42 284.41C689.93 288.14 687.15 291.89 684.24 295.88C679.17 289.66 673.76 283.18 668.67 277.1Z" fill="currentColor"
              fill-opacity="1.000000" fill-rule="evenodd"/>
        <path id="Vector" d="M680.34 265.77C683.03 262.8 685.61 260.09 688.08 257.41C692.37 262.28 696.79 267.43 700.86 272.23C698.89 275.32 696.56 278.44 694.12 281.88C689.55 276.41 684.72 270.93 680.34 265.77L680.34 265.77Z" fill="currentColor"
              fill-opacity="1.000000" fill-rule="evenodd"/>
        <path id="Vector" d="M689.63 255.91C691.98 253.6 694.07 251.21 696.3 248.98C700.02 253.16 703.94 257.44 707.66 261.62C706.09 264.63 704.26 267.58 702.58 270.76C698.26 265.93 693.76 260.8 689.63 255.91Z" fill="currentColor"
              fill-opacity="1.000000" fill-rule="evenodd"/>
        <path id="Vector" d="M697.17 247.82C699.14 245.71 700.93 243.25 702.47 241.06C705.93 244.79 709.18 248.46 712.87 252.43C711.35 255.1 709.82 257.63 708.19 260.38C704.56 256.33 700.81 252.13 697.17 247.82L697.17 247.82Z" fill="currentColor"
              fill-opacity="1.000000" fill-rule="evenodd"/>
        <path id="Vector" d="M703.46 239.34C705.13 237.4 706.57 235.55 708.07 233.65C711.27 237.12 714.44 240.69 717.21 243.74C716.29 246.14 715.03 248.4 714.02 250.99C710.57 247.11 706.99 243.11 703.46 239.34L703.46 239.34Z" fill="currentColor"
              fill-opacity="1.000000" fill-rule="evenodd"/>
        <path id="Vector" d="M708.67 233.04C710 231.15 711.08 229.09 712.24 227.43C714.79 230.08 717.37 233.01 719.89 235.85C719.14 238.05 718.47 240.39 717.56 242.66C714.62 239.43 711.71 236.2 708.67 233.04Z" fill="currentColor"
              fill-opacity="1.000000" fill-rule="evenodd"/>
        <path id="Vector" d="M712.73 226.3C713.89 224.71 714.57 222.87 715.25 221.16C717.47 223.47 719.78 225.89 721.94 228.26C721.52 230.28 720.86 232.27 720.44 234.65C717.93 231.94 715.2 228.89 712.73 226.3L712.73 226.3Z" fill="currentColor"
              fill-opacity="1.000000" fill-rule="evenodd"/>
        <path id="Vector" d="M715.75 220.42C716.27 218.64 716.87 217.15 717.39 215.47C719.36 217.52 721.11 219.52 723.17 221.69C722.9 223.53 722.63 225.51 722.21 227.42C719.96 224.95 717.81 222.61 715.75 220.43L715.75 220.42Z" fill="currentColor"
              fill-opacity="1.000000" fill-rule="evenodd"/>
        <path id="Vector" d="M717.63 214.27C717.92 212.63 718.29 211.18 718.35 209.44C720.15 211.39 721.72 213.09 723.22 214.67C723.41 216.72 723.37 218.51 723.26 220.52C721.51 218.62 719.45 216.31 717.63 214.27L717.63 214.27Z" fill="currentColor"
              fill-opacity="1.000000" fill-rule="evenodd"/>
        <path id="Vector" d="M691.11 169.16C688.84 167.94 686.7 166.79 684.36 165.85C684.37 166.19 684.3 166.39 684.09 166.37C686.57 167.53 689.21 169.07 691.27 170.17C691.27 169.72 691.27 169.59 691.11 169.16Z" fill="currentColor"
              fill-opacity="1.000000" fill-rule="evenodd"/>
        <path id="Vector" d="M718.63 203.55C718.32 201.99 718.1 200.49 717.73 199.17C718.65 200.08 719.89 201.41 720.9 202.55C721.44 204.32 721.97 206.04 722.52 207.83C721.04 206.26 719.94 205.01 718.63 203.55L718.63 203.55Z" fill="currentColor"
              fill-opacity="1.000000" fill-rule="evenodd"/>
        <path id="Vector" d="M717.31 197.99C716.8 196.54 716.22 195.08 715.65 193.66C716.56 194.72 717.26 195.63 718.18 196.65C719.13 198.35 719.88 199.96 720.63 201.73C719.46 200.36 718.54 199.29 717.31 197.99L717.31 197.99Z" fill="currentColor"
              fill-opacity="1.000000" fill-rule="evenodd"/>
        <path id="Vector" d="M706.44 180.9C705.12 179.52 703.73 178.25 702.27 177.11C702.64 177.62 703.01 178.16 703.31 178.6C704.92 180.03 706.46 181.36 707.93 182.72C707.41 182.15 707.11 181.72 706.44 180.9Z" fill="currentColor"
              fill-opacity="1.000000" fill-rule="evenodd"/>
        <path id="Vector" d="M462.42 381.1C476.46 371.66 488.62 362.73 501.3 354.51C508.86 367.33 516.73 380 524.67 394L469.33 394C467.05 389.65 464.75 385.35 462.42 381.1Z" fill="currentColor" fill-opacity="1.000000" fill-rule="evenodd"/>
        <path id="Vector" d="M506.99 350.87C518.14 343.02 528.58 335.49 538.24 328.6C546.33 340.64 554.36 352.64 562.34 365.37C552.97 374.04 543.37 383.69 532.4 393.06C524 378.3 515.25 364.53 506.99 350.87Z" fill="currentColor"
              fill-opacity="1.000000" fill-rule="evenodd"/>
        <path id="Vector" d="M542.86 325.39C552.11 320.04 560.3 314.14 568.26 308.65C575.61 318.47 583.2 328.77 590.53 339.51C583.06 346.5 575.4 353.63 566.81 361.82C558.63 349 550.98 336.93 542.86 325.39Z" fill="currentColor" fill-opacity="1.000000"
              fill-rule="evenodd"/>
        <path id="Vector" d="M571.89 305.73C579.56 300.79 586.55 295.79 593.29 291.6C600.03 300 607.2 309.53 614.05 319.26C607.78 324.76 601.1 330.12 593.88 336.29C586.82 326.02 579.28 315.82 571.89 305.73Z" fill="currentColor"
              fill-opacity="1.000000" fill-rule="evenodd"/>
        <path id="Vector" d="M596.5 289.55C602.91 285.75 608.71 281.7 614.46 278.39C620.86 285.9 626.98 293.7 633.52 302.09C628.38 306.56 622.73 311.11 617.06 316.17C610.28 307.3 603.26 297.89 596.5 289.55Z" fill="currentColor"
              fill-opacity="1.000000" fill-rule="evenodd"/>
        <path id="Vector" d="M672.97 161.57C674.46 161.42 675.81 161.26 677.01 161.03C679.48 163.45 681.75 165.72 684.17 168.02C682.96 168.19 681.82 168.58 680.54 168.88C678.05 166.53 675.64 164.09 672.97 161.57Z" fill="currentColor"
              fill-opacity="1.000000" fill-rule="evenodd"/>
        <path id="Vector" d="M634.57 264.85C639.11 262.14 643.22 259.27 647.45 256.64C652.68 262.85 658.07 269.09 663.36 275.44C659.59 278.47 655.68 281.82 651.47 285.2C645.9 278.35 640.31 271.66 634.57 264.85Z" fill="currentColor"
              fill-opacity="1.000000" fill-rule="evenodd"/>
        <path id="Vector" d="M649.8 255.79C653.57 253.15 657.37 250.78 660.98 248.35C665.48 253.52 670.18 258.94 674.69 264.4C671.62 267.46 668.35 270.36 664.96 273.51C659.97 267.76 654.9 261.76 649.8 255.79Z" fill="currentColor"
              fill-opacity="1.000000" fill-rule="evenodd"/>
        <path id="Vector" d="M663.23 246.91C666.62 244.86 669.35 242.45 672.37 240.49C676.65 245.26 680.97 249.99 685.03 254.7C682.56 257.28 679.82 259.79 676.88 262.62C672.21 256.94 667.65 251.83 663.23 246.91L663.23 246.91Z" fill="currentColor"
              fill-opacity="1.000000" fill-rule="evenodd"/>
        <path id="Vector" d="M674.07 239.18C676.9 237.21 679.47 235.2 682.16 233.65C685.91 237.7 689.84 241.91 693.82 246.65C691.67 248.88 689.41 251.06 686.89 253.6C682.76 248.92 678.36 243.85 674.07 239.18Z" fill="currentColor"
              fill-opacity="1.000000" fill-rule="evenodd"/>
        <path id="Vector" d="M683.12 232.8C685.48 230.93 687.75 229.35 689.7 227.54C693.12 231.24 696.66 235.09 700.08 238.69C698.29 240.79 696.5 243.11 694.37 245.39C690.64 241.03 686.86 236.91 683.12 232.8L683.12 232.8Z" fill="currentColor"
              fill-opacity="1.000000" fill-rule="evenodd"/>
        <path id="Vector" d="M691.09 226.29C693.16 224.94 694.84 223.14 696.5 221.59C699.77 224.99 703.07 228.57 706.32 232.21C704.58 233.79 703.23 235.89 701.62 237.81C698.21 234.03 694.51 230.03 691.09 226.3L691.09 226.29Z" fill="currentColor"
              fill-opacity="1.000000" fill-rule="evenodd"/>
        <path id="Vector" d="M697.42 221.11C699.23 219.79 700.41 218.04 701.89 216.54C704.69 219.44 707.59 222.54 710.27 225.49C708.95 227.14 707.78 228.98 706.45 230.89C703.44 227.62 700.45 224.34 697.42 221.11Z" fill="currentColor"
              fill-opacity="1.000000" fill-rule="evenodd"/>
        <path id="Vector" d="M710.11 206.57C710.71 205.14 711.25 203.86 711.71 202.54C713.63 204.56 715.32 206.36 717.1 208.26C716.81 209.79 716.37 211.21 716.23 213.01C714.05 210.77 712.1 208.65 710.1 206.58L710.11 206.57Z" fill="currentColor"
              fill-opacity="1.000000" fill-rule="evenodd"/>
        <path id="Vector" d="M712.2 202.07C712.36 200.53 712.82 199.48 712.9 198.19C714.35 199.7 715.89 201.33 717.35 202.93C717.43 204.39 717.29 205.93 717.14 207.39C715.51 205.61 713.89 203.8 712.2 202.07Z" fill="currentColor"
              fill-opacity="1.000000" fill-rule="evenodd"/>
        <path id="Vector" d="M712.68 193.14C712.56 192.18 712.2 190.77 711.94 189.71C712.92 190.79 713.99 192.01 714.9 193.01C715.62 194.5 716.12 195.93 716.56 197.37C715.27 196.05 714.04 194.61 712.68 193.14L712.68 193.14Z" fill="currentColor"
              fill-opacity="1.000000" fill-rule="evenodd"/>
        <path id="Vector" d="M710.2 185.9C709.66 184.97 708.82 183.57 707.7 182.19C708.3 182.97 709.05 183.81 709.35 184.42C710.7 186.03 711.69 187.32 712.76 188.77C712 187.87 711.02 186.82 710.2 185.9L710.2 185.9Z" fill="currentColor"
              fill-opacity="1.000000" fill-rule="evenodd"/>
        <path id="Vector" d="M702.6 176.29C701.57 175.15 700.48 174.15 699.47 173.25C700.13 174.1 700.71 174.9 701.37 175.6C702.61 176.75 703.85 177.99 704.95 178.99C704.07 178 703.41 177.25 702.6 176.29L702.6 176.29Z" fill="currentColor"
              fill-opacity="1.000000" fill-rule="evenodd"/>
        <path id="Vector" d="M705.28 182.02C705.1 181.15 704.71 180.22 704.54 179.35C705.58 180.57 706.69 181.8 707.73 182.9C708.12 183.91 708.67 185.02 709.07 186.11C707.87 184.84 706.54 183.48 705.28 182.02Z" fill="currentColor"
              fill-opacity="1.000000" fill-rule="evenodd"/>
        <path id="Vector" d="M230.35 248.44C253.24 243.63 274.27 238.89 294.08 234.37C301.72 246.67 309.51 258.41 316.81 271.01C297.59 276.35 276.39 283.23 252.92 290.24C245.28 275.73 237.88 262 230.35 248.44L230.35 248.44Z" fill="currentColor"
              fill-opacity="1.000000" fill-rule="evenodd"/>
        <path id="Vector" d="M362.35 234.56C378.33 231.02 392.39 227.53 406.38 224.89C413.24 234.17 420.71 243.78 428.16 253.86C414.51 258 400.18 262.45 384.78 267.37C377.61 256.31 369.8 244.96 362.35 234.55L362.35 234.56Z" fill="currentColor"
              fill-opacity="1.000000" fill-rule="evenodd"/>
        <path id="Vector" d="M381.15 162.34C393.88 161.83 405.78 161.06 417.27 160.45C423.74 167.5 430.06 174.37 436.14 181.51C425 182.52 413.17 183.81 400.58 185.64C394.29 177.59 388.02 169.8 381.15 162.34Z" fill="currentColor"
              fill-opacity="1.000000" fill-rule="evenodd"/>
        <path id="Vector" d="M313.53 394C329.85 385.36 345.11 377.18 359.49 369.31C363.6 377.37 367.71 385.6 371.78 394L313.54 394L313.53 394Z" fill="currentColor" fill-opacity="1.000000" fill-rule="evenodd"/>
        <path id="Vector" d="M369.25 364.25C387.98 354.3 404.49 344.72 420.63 336.13C429.1 350.77 437.78 366.5 446.41 382.21C441.13 386.11 435.75 390.03 430.23 394L383.79 394C378.87 383.83 374.04 373.95 369.25 364.25Z" fill="currentColor"
              fill-opacity="1.000000" fill-rule="evenodd"/>
        <path id="Vector" d="M428.1 332.28C442.72 325.12 456.22 318.46 468.61 311.87C476.6 323.98 485.11 336.98 492.8 350.39C480.72 358.74 467.73 367.32 453.44 376.55C445.19 361.08 436.58 346.71 428.1 332.28Z" fill="currentColor"
              fill-opacity="1.000000" fill-rule="evenodd"/>
        <path id="Vector" d="M475.4 310.03C487.48 303.86 498.48 298.47 508.92 293.32C516.11 303.53 523.7 314.09 531.33 324.83C521.31 331.65 510.34 339.16 498.79 347.07C490.86 333.73 483.22 321.94 475.4 310.03L475.4 310.03Z" fill="currentColor"
              fill-opacity="1.000000" fill-rule="evenodd"/>
        <path id="Vector" d="M515.36 289.56C525 285.12 534.1 280.79 542.73 276.48C549.61 285.29 556.52 294.58 563.44 304.13C555.28 309.77 546.74 315.17 537.41 320.55C530.18 310.34 522.71 299.89 515.36 289.56L515.36 289.56Z" fill="currentColor"
              fill-opacity="1.000000" fill-rule="evenodd"/>
        <path id="Vector" d="M547.71 273.96C555.55 269.54 563.05 266.27 570.5 263.04C576.98 271.27 583.62 279.69 590.46 288.19C583.41 292.13 576.05 296.71 568.63 301.8C561.76 292.39 554.58 282.96 547.71 273.96Z" fill="currentColor"
              fill-opacity="1.000000" fill-rule="evenodd"/>
        <path id="Vector" d="M573.76 262.14C580.37 258.94 586.9 255.93 593.26 253.27C598.89 260.36 604.85 267.43 610.72 274.5C604.95 278.07 598.84 281.91 592.64 286.03C586.26 277.94 579.83 269.84 573.76 262.14L573.76 262.14Z" fill="currentColor"
              fill-opacity="1.000000" fill-rule="evenodd"/>
        <path id="Vector" d="M615.77 242.68C621.03 240.78 625.62 238.64 630.17 236.54C635.08 242.06 640.17 247.85 644.87 253.31C640.73 255.97 636.71 258.84 631.77 261.37C626.59 255.15 621.24 248.87 615.77 242.68L615.77 242.68Z" fill="currentColor"
              fill-opacity="1.000000" fill-rule="evenodd"/>
        <path id="Vector" d="M632.59 235.56C637.02 233.47 641.02 231.38 644.95 229.84C649.52 234.79 653.74 239.6 658.47 244.95C654.86 247.29 651.16 249.55 647.33 252.14C642.31 246.52 637.59 240.99 632.59 235.56Z" fill="currentColor"
              fill-opacity="1.000000" fill-rule="evenodd"/>
        <path id="Vector" d="M646.91 229.07C650.5 227.38 653.75 225.63 657.13 224.17C661.42 228.76 665.68 233.26 669.5 237.8C666.71 239.84 663.44 241.81 660.21 243.91C655.63 238.85 651.24 233.94 646.91 229.07L646.91 229.07Z" fill="currentColor"
              fill-opacity="1.000000" fill-rule="evenodd"/>
        <path id="Vector" d="M659.59 223.53C662.86 222.07 665.8 220.68 668.64 219.1C672.04 222.77 676.08 227.08 679.53 231.02C677.07 232.8 674.27 234.58 671.44 236.58C667.62 232.15 663.51 227.78 659.59 223.53Z" fill="currentColor"
              fill-opacity="1.000000" fill-rule="evenodd"/>
        <path id="Vector" d="M670.21 218.3C672.95 217.09 675.67 215.89 678.07 214.67C681.4 218.2 684.6 221.7 687.92 225.15C685.82 226.73 683.4 228.19 681.11 230.15C677.5 226.08 674 222.19 670.21 218.3L670.21 218.3Z" fill="currentColor"
              fill-opacity="1.000000" fill-rule="evenodd"/>
        <path id="Vector" d="M678.76 213.99C681.15 212.86 683.21 211.6 685.49 210.57C688.37 213.52 691.43 216.77 694.5 219.96C692.6 221.38 690.77 222.99 688.69 224.62C685.46 221.07 682.1 217.6 678.76 213.99Z" fill="currentColor"
              fill-opacity="1.000000" fill-rule="evenodd"/>
        <path id="Vector" d="M686.47 209.58C688.28 208.24 690.08 206.98 691.87 206.04C694.83 209.13 697.5 211.95 700.19 214.81C698.78 216.32 697.22 217.73 695.56 219.22C692.48 215.92 689.43 212.78 686.47 209.57L686.47 209.58Z" fill="currentColor"
              fill-opacity="1.000000" fill-rule="evenodd"/>
        <path id="Vector" d="M692.92 205.36C694.55 204.48 696.09 203.55 697.41 202.38C699.91 205.03 702.2 207.42 704.89 210.28C703.73 211.57 702.56 212.83 701.23 214.12C698.55 211.33 695.88 208.59 692.92 205.36Z" fill="currentColor"
              fill-opacity="1.000000" fill-rule="evenodd"/>
        <path id="Vector" d="M443.31 195.64C453.96 194.18 464.11 192.93 473.97 191.39C480.11 198.75 486.3 205.85 492.82 213.24C483.43 215.21 473.43 217.08 462.79 219.7C456.25 211.47 449.69 203.55 443.31 195.64L443.31 195.64Z" fill="currentColor"
              fill-opacity="1.000000" fill-rule="evenodd"/>
        <path id="Vector" d="M640.99 157.74C643.89 157.77 646.64 157.77 649.24 157.82C652.28 160.86 655.42 163.83 658.35 166.79C655.82 166.74 653.62 167.17 650.84 167.27C647.64 164.07 644.38 160.88 640.99 157.74L640.99 157.74Z" fill="currentColor"
              fill-opacity="1.000000" fill-rule="evenodd"/>
        <path id="Vector" d="M641.45 148.28C644.08 148.6 646.57 148.84 648.98 149.04C651.94 151.81 654.76 154.47 657.53 157.08C655.31 157.1 653.01 157.07 650.64 156.97C647.68 154.16 644.53 151.18 641.45 148.28Z" fill="currentColor"
              fill-opacity="1.000000" fill-rule="evenodd"/>
        <path id="Vector" d="M136.63 394C144.39 390.73 151.99 387.51 159.39 384.33C160.63 387.5 161.85 390.73 163.06 394L136.63 394L136.63 394Z" fill="currentColor" fill-opacity="1.000000" fill-rule="evenodd"/>
        <path id="Vector" d="M449.03 126.17C458.21 126.65 466.94 127.07 475.25 127.47C480.37 132.54 485.44 137.68 490.67 142.59C482.35 142.64 474.04 142.53 465.09 142.4C459.9 136.91 454.41 131.54 449.03 126.17L449.03 126.17Z" fill="currentColor"
              fill-opacity="1.000000" fill-rule="evenodd"/>
        <path id="Vector" d="M270.64 337.61C294.02 328.08 315.46 319.64 335.86 311.84C343.81 326.5 352.32 342.26 360.08 359.14C340.05 369.58 319.07 380.19 295.62 391.54C287.69 373.2 279.13 355.03 270.65 337.61L270.64 337.61Z" fill="currentColor"
              fill-opacity="1.000000" fill-rule="evenodd"/>
        <path id="Vector" d="M403.01 285.64C417.8 280.15 431.88 275.27 444.94 270.47C452.54 281.32 460.29 292.83 467.83 304.47C455.35 310.84 441.6 317.31 427.56 323.86C419.38 311.04 411.21 297.85 403.01 285.64L403.01 285.64Z" fill="currentColor"
              fill-opacity="1.000000" fill-rule="evenodd"/>
        <path id="Vector" d="M492.77 254.86C502.99 251.41 512.32 248.26 521.2 245.01C527.64 252.92 534.37 261.52 540.84 270.35C532.38 274.43 523.13 278.75 513.78 283.22C507.02 273.4 499.75 263.78 492.77 254.86L492.77 254.86Z" fill="currentColor"
              fill-opacity="1.000000" fill-rule="evenodd"/>
        <path id="Vector" d="M526.27 243.44C534.74 240.61 542.67 238.1 550.27 235.81C556.63 243.31 562.81 250.92 569.18 258.49C561.95 261.57 554.58 264.67 546.61 268.52C539.71 259.68 533.09 251.16 526.27 243.44Z" fill="currentColor"
              fill-opacity="1.000000" fill-rule="evenodd"/>
        <path id="Vector" d="M553.54 234.98C560.59 232.71 567.43 230.48 574.13 228.21C579.72 234.82 585.31 241.32 591.03 248.06C584.85 250.82 578.32 253.92 571.68 256.9C565.47 249.42 559.33 242.04 553.55 234.97L553.54 234.98Z" fill="currentColor"
              fill-opacity="1.000000" fill-rule="evenodd"/>
        <path id="Vector" d="M578.57 226.87C584.58 225.06 590.47 223.32 595.85 221.59C601.46 227.84 606.8 233.65 612.06 239.9C607.02 241.89 601.59 244.14 595.64 246.97C590.03 239.86 584.13 233.2 578.57 226.87Z" fill="currentColor"
              fill-opacity="1.000000" fill-rule="evenodd"/>
        <path id="Vector" d="M598.48 221.03C603.95 219.53 608.84 217.81 613.77 216.4C618.59 221.59 623.51 227.18 628.09 232.59C623.64 234.53 619.07 236.69 613.77 238.48C608.84 232.87 603.61 226.79 598.49 221.03L598.48 221.03Z" fill="currentColor"
              fill-opacity="1.000000" fill-rule="evenodd"/>
        <path id="Vector" d="M616.39 215.56C621.1 214.29 625.53 213.19 629.72 211.97C634.14 216.78 638.68 221.51 642.88 226.22C639.04 227.67 634.84 229.39 630.67 231.44C626.01 225.99 621.21 220.81 616.39 215.56Z" fill="currentColor"
              fill-opacity="1.000000" fill-rule="evenodd"/>
        <path id="Vector" d="M631.65 211.37C635.64 210.27 639.46 209.11 643.11 207.84C647.19 212.22 651.32 216.6 655.17 220.86C651.95 222.4 648.4 223.93 644.75 225.36C640.39 220.76 636.08 216.02 631.64 211.37L631.65 211.37Z" fill="currentColor"
              fill-opacity="1.000000" fill-rule="evenodd"/>
        <path id="Vector" d="M645.62 207.4C649.15 206.33 652.29 205.12 655.32 204.17C659.08 207.93 662.77 211.78 666.43 215.51C663.74 217.18 660.65 218.68 657.32 220.03C653.38 215.72 649.56 211.58 645.61 207.4L645.62 207.4Z" fill="currentColor"
              fill-opacity="1.000000" fill-rule="evenodd"/>
        <path id="Vector" d="M657.55 203.99C660.49 202.98 663.41 202.13 666.24 201.35C669.34 204.58 672.76 208.12 675.9 211.55C673.35 212.6 670.87 213.79 668.14 214.95C664.71 211.36 661.16 207.75 657.55 203.99L657.55 203.99Z" fill="currentColor"
              fill-opacity="1.000000" fill-rule="evenodd"/>
        <path id="Vector" d="M667.01 200.76C669.46 199.77 671.88 198.84 674.37 198.02C677.33 201.08 680.53 204.5 683.45 207.59C681.25 208.7 679.12 209.87 676.82 211.01C673.6 207.61 670.25 204.27 667.01 200.76L667.01 200.76Z" fill="currentColor"
              fill-opacity="1.000000" fill-rule="evenodd"/>
        <path id="Vector" d="M675.51 197.33C677.76 196.5 679.78 195.76 681.86 195.13C684.75 197.98 687.58 200.77 690.36 203.74C688.5 204.64 686.7 205.72 684.82 206.9C681.74 203.76 678.69 200.5 675.51 197.33L675.51 197.33Z" fill="currentColor"
              fill-opacity="1.000000" fill-rule="evenodd"/>
        <path id="Vector" d="M511.77 187.52C519.75 186.7 527.43 186.09 534.8 185.28C540.25 191.14 545.81 197.13 551.35 203.05C544.24 204.24 537.15 205.66 529.17 207.27C523.36 200.56 517.61 193.88 511.77 187.52Z" fill="currentColor"
              fill-opacity="1.000000" fill-rule="evenodd"/>
        <path id="Vector" d="M538.15 184.75C545.1 183.88 551.89 183.29 557.99 182.48C563.33 187.95 568.61 193.54 573.57 199.02C567.53 200.19 561.3 201.37 554.57 202.44C549.23 196.7 543.6 190.59 538.15 184.75Z" fill="currentColor"
              fill-opacity="1.000000" fill-rule="evenodd"/>
        <path id="Vector" d="M561.02 182.14C567.35 181.53 573.04 180.99 578.55 180.47C583.32 185.3 588.33 190.49 593.1 195.46C587.8 196.46 582.31 197.46 576.54 198.69C571.52 193.03 566.22 187.45 561.02 182.14Z" fill="currentColor"
              fill-opacity="1.000000" fill-rule="evenodd"/>
        <path id="Vector" d="M581.15 180.17C586.55 179.65 591.67 179.34 596.56 178.89C601.04 183.4 605.8 188.39 610.12 192.83C605.47 193.61 600.58 194.2 595.58 194.98C591.01 190.22 585.92 185.04 581.15 180.17L581.15 180.17Z" fill="currentColor"
              fill-opacity="1.000000" fill-rule="evenodd"/>
        <path id="Vector" d="M598.95 178.71C603.68 178.19 608.09 177.55 612.52 177.38C616.68 181.51 620.94 185.81 625.14 190.26C621.18 190.94 616.95 191.72 612.39 192.57C608.01 187.9 603.36 183.22 598.95 178.71Z" fill="currentColor"
              fill-opacity="1.000000" fill-rule="evenodd"/>
        <path id="Vector" d="M614.57 177.3C618.69 176.91 622.5 176.55 626.36 176.29C630.42 180.21 634.5 184.24 638.03 187.98C634.64 188.66 631.02 189.36 627.02 189.86C622.95 185.52 618.89 181.42 614.57 177.3L614.57 177.3Z" fill="currentColor"
              fill-opacity="1.000000" fill-rule="evenodd"/>
        <path id="Vector" d="M628.09 176.16C631.79 175.79 635.4 175.55 638.62 175.2C642.36 178.82 646.03 182.56 649.66 186.18C646.62 186.89 643.13 187.25 639.86 187.73C636.03 183.95 632.24 180.08 628.09 176.17L628.09 176.16Z" fill="currentColor"
              fill-opacity="1.000000" fill-rule="evenodd"/>
        <path id="Vector" d="M640.48 175.26C643.76 174.96 646.82 174.67 649.71 174.41C652.89 177.68 656.23 180.98 659.59 184.19C656.83 184.66 653.89 185.36 651.1 185.98C647.61 182.37 644.14 178.93 640.48 175.26Z" fill="currentColor"
              fill-opacity="1.000000" fill-rule="evenodd"/>
        <path id="Vector" d="M651.49 174.21C654.29 174.02 656.8 173.69 659.37 173.57C662.42 176.46 665.5 179.48 668.58 182.54C666.21 182.98 663.98 183.5 661.46 183.92C658.16 180.7 654.74 177.41 651.49 174.21L651.49 174.21Z" fill="currentColor"
              fill-opacity="1.000000" fill-rule="evenodd"/>
        <path id="Vector" d="M660.84 173.31C663.25 173.02 665.37 172.76 667.62 172.56C670.55 175.41 673.49 178.17 676.37 181.13C674.39 181.61 672.26 181.96 670.05 182.52C667.03 179.44 663.89 176.33 660.83 173.31L660.84 173.31Z" fill="currentColor"
              fill-opacity="1.000000" fill-rule="evenodd"/>
        <path id="Vector" d="M668.57 172.51C670.6 172.17 672.34 171.74 674.15 171.4C676.79 174.04 679.52 176.71 681.97 179.19C680.38 179.66 678.56 180.12 676.88 180.68C674.15 177.95 671.28 175.17 668.57 172.51Z" fill="currentColor"
              fill-opacity="1.000000" fill-rule="evenodd"/>
        <path id="Vector" d="M675.3 171.17C676.88 170.86 678.61 170.76 680.04 170.38C682.54 172.84 685.06 175.28 687.37 177.64C686.08 178.07 684.79 178.54 683.27 178.95C680.74 176.48 678.01 173.92 675.3 171.17L675.3 171.17Z" fill="currentColor"
              fill-opacity="1.000000" fill-rule="evenodd"/>
        <path id="Vector" d="M693.3 172.65C693.79 172.24 694.2 171.59 694.55 171.13C696.21 172.89 697.87 174.44 699.26 175.99C699.29 176.76 699.02 177.43 698.68 178.09C696.86 176.28 695.18 174.56 693.3 172.65L693.3 172.65Z" fill="currentColor"
              fill-opacity="1.000000" fill-rule="evenodd"/>
        <path id="Vector" d="M660.85 158.3C656.87 157.46 652.96 156.62 648.47 155.73C647.41 155.19 646.42 154.95 645.15 154.47C649.91 155.64 654.25 156.56 658.44 157.55C659.42 158.21 660.08 157.9 660.85 158.3Z" fill="currentColor"
              fill-opacity="1.000000" fill-rule="evenodd"/>
        <path id="Vector" d="M633.75 153.87C628.12 153.38 622.41 153.39 616.21 153.11C615.04 153 613.73 152.9 612.37 152.49C618.85 153.11 624.79 152.97 630.52 153.31C631.87 153.82 632.9 153.64 633.75 153.87L633.75 153.87Z" fill="currentColor"
              fill-opacity="1.000000" fill-rule="evenodd"/>
        <path id="Vector" d="M520.78 165.56C527.97 165.1 535.1 164.85 541.55 164.43C546.71 169.59 551.81 174.84 556.79 180.18C550.42 180.82 543.63 181.43 536.87 182.22C531.54 176.47 526.03 170.77 520.79 165.56L520.78 165.56Z" fill="currentColor"
              fill-opacity="1.000000" fill-rule="evenodd"/>
        <path id="Vector" d="M544.68 164.25C551.11 164.15 557.22 164.02 562.95 163.78C567.6 168.54 572.72 173.53 577.23 178.29C571.8 178.82 565.91 179.24 559.83 179.73C554.9 174.54 549.71 169.28 544.68 164.26L544.68 164.25Z" fill="currentColor"
              fill-opacity="1.000000" fill-rule="evenodd"/>
        <path id="Vector" d="M565.71 163.75C571.39 163.61 576.73 163.62 582 163.5C586.47 167.75 590.93 172.27 595.26 176.92C590.31 177.19 585.2 177.55 579.87 178.17C575.43 173.44 570.38 168.42 565.71 163.75L565.71 163.75Z" fill="currentColor"
              fill-opacity="1.000000" fill-rule="evenodd"/>
        <path id="Vector" d="M584.45 163.35C589.46 163.24 594.14 163.33 598.68 163.19C602.96 167.29 607.14 171.38 611.19 175.44C606.92 175.63 602.45 176.17 597.66 176.69C593.3 172.24 588.84 167.65 584.45 163.35Z" fill="currentColor"
              fill-opacity="1.000000" fill-rule="evenodd"/>
        <path id="Vector" d="M600.86 163.08C605.36 163.17 609.27 162.96 613.37 163C617.41 166.89 621.34 170.64 625.15 174.46C621.37 174.8 617.42 175.12 613.24 175.38C609.19 171.24 605.07 167.34 600.86 163.08Z" fill="currentColor"
              fill-opacity="1.000000" fill-rule="evenodd"/>
        <path id="Vector" d="M615.25 162.86C619.26 162.81 622.9 162.8 626.53 162.67C630.25 166.26 633.85 169.8 637.47 173.42C634.23 174.05 630.71 174.21 627.02 174.46C623.07 170.54 619.36 166.76 615.25 162.86L615.25 162.86Z" fill="currentColor"
              fill-opacity="1.000000" fill-rule="evenodd"/>
        <path id="Vector" d="M628.22 162.71C631.61 162.71 635.06 162.86 638 162.78C641.4 165.96 644.88 169.36 648.32 172.61C645.37 172.79 642.32 173.04 639.11 173.41C635.63 169.82 631.88 166.29 628.22 162.71Z" fill="currentColor"
              fill-opacity="1.000000" fill-rule="evenodd"/>
        <path id="Vector" d="M502.77 146.43C510.34 146.51 517.63 146.62 524.45 146.79C529.43 151.77 534.39 156.55 539.29 161.49C532.58 161.71 525.53 162.05 518.44 162.35C513.13 157 507.81 151.57 502.77 146.44L502.77 146.43Z" fill="currentColor"
              fill-opacity="1.000000" fill-rule="evenodd"/>
        <path id="Vector" d="M527.63 147.01C534.29 147.03 540.73 147.33 546.72 147.52C551.43 152.09 556.18 156.66 560.74 161.2C554.92 161.14 548.67 161.24 542.38 161.53C537.57 156.48 532.65 151.75 527.63 147.01Z" fill="currentColor"
              fill-opacity="1.000000" fill-rule="evenodd"/>
        <path id="Vector" d="M549.75 147.57C555.65 147.69 561.37 147.92 566.76 148.16C571.06 152.29 575.44 156.55 579.83 161.02C574.65 161.06 569.23 161.16 563.64 161.25C559.09 156.64 554.34 151.99 549.75 147.57L549.75 147.57Z" fill="currentColor"
              fill-opacity="1.000000" fill-rule="evenodd"/>
        <path id="Vector" d="M569.24 148.19C574.61 148.49 579.24 148.59 584.14 148.87C588.49 152.9 592.43 156.77 596.61 160.8C591.95 160.82 587.2 160.77 582.12 160.87C578.01 156.59 573.62 152.33 569.24 148.19Z" fill="currentColor"
              fill-opacity="1.000000" fill-rule="evenodd"/>
        <path id="Vector" d="M586.65 149.08C591.11 149.16 595.48 149.29 599.82 149.54C603.85 153.41 607.7 157.09 611.43 160.71C607.54 160.9 603.35 160.93 598.79 160.83C594.76 156.78 590.72 152.99 586.65 149.08Z" fill="currentColor"
              fill-opacity="1.000000" fill-rule="evenodd"/>
        <path id="Vector" d="M601.96 149.61C606.21 149.9 609.95 150.06 613.53 150.2C617.33 153.7 621.22 157.22 624.7 160.64C621.15 160.69 617.44 160.81 613.36 160.71C609.63 157.1 605.84 153.44 601.96 149.61Z" fill="currentColor"
              fill-opacity="1.000000" fill-rule="evenodd"/>
        <path id="Vector" d="M615.77 150.62C619.55 150.94 622.89 151.11 626.3 151.31C629.78 154.6 633.41 157.98 636.77 161.37C633.56 161.12 630.19 161.08 626.66 160.94C623.17 157.66 619.7 154.38 615.77 150.63L615.77 150.62Z" fill="currentColor"
              fill-opacity="1.000000" fill-rule="evenodd"/>
        <path id="Vector" d="M511.61 131.05C518.53 131.44 525.08 131.71 531.41 132.23C536.1 136.69 540.64 141.02 545.22 145.67C538.97 145.25 532.72 145.21 525.95 145.01C521.34 140.35 516.54 135.69 511.61 131.05L511.61 131.05Z" fill="currentColor"
              fill-opacity="1.000000" fill-rule="evenodd"/>
        <path id="Vector" d="M534.58 132.67C540.78 132.95 546.47 133.49 552.22 134.09C556.59 138.1 560.82 142.19 565.15 146.35C559.57 145.89 554.13 145.87 548.1 145.68C543.55 141.24 538.98 136.73 534.58 132.67Z" fill="currentColor"
              fill-opacity="1.000000" fill-rule="evenodd"/>
        <path id="Vector" d="M554.87 134.31C560.33 134.73 565.39 135.27 570.51 135.82C574.66 139.57 578.67 143.48 582.84 147.39C577.9 146.89 573.05 146.79 567.63 146.39C563.56 142.47 559.24 138.42 554.87 134.31Z" fill="currentColor"
              fill-opacity="1.000000" fill-rule="evenodd"/>
        <path id="Vector" d="M573.01 136C577.84 136.43 582.38 136.69 586.89 137.12C590.79 140.75 594.57 144.34 598.44 148.03C594.1 147.8 589.81 147.61 585 147.39C580.9 143.53 577.09 139.77 573.01 136Z" fill="currentColor" fill-opacity="1.000000"
              fill-rule="evenodd"/>
        <path id="Vector" d="M589.14 137.39C593.21 137.66 597.27 138.05 601.45 138.64C605.11 141.98 608.78 145.46 612.35 148.79C608.55 148.61 604.61 148.23 600.57 148.13C596.62 144.45 592.83 140.95 589.14 137.39Z" fill="currentColor"
              fill-opacity="1.000000" fill-rule="evenodd"/>
        <path id="Vector" d="M613.92 141.24C617.5 141.68 620.94 142.09 624.09 142.36C627.33 145.33 630.78 148.48 634.12 151.61C630.95 151.32 627.68 151.25 624.43 151.05C621.12 147.81 617.54 144.53 613.92 141.24L613.92 141.24Z" fill="currentColor"
              fill-opacity="1.000000" fill-rule="evenodd"/>
        <path id="Vector" d="M626.02 142.53C629.09 142.8 632.02 142.99 634.87 143.35C637.84 146.21 640.84 148.89 643.71 151.68C641.19 151.65 638.32 151.44 635.58 151.36C632.52 148.51 629.2 145.41 626.02 142.53Z" fill="currentColor"
              fill-opacity="1.000000" fill-rule="evenodd"/>
        <path id="Vector" d="M519.09 118.38C525.32 119.11 531.32 119.82 537.37 120.54C541.66 124.52 545.84 128.38 550.25 132.42C544.31 131.66 538.74 131.32 532.39 130.64C528.05 126.45 523.54 122.5 519.09 118.38Z" fill="currentColor"
              fill-opacity="1.000000" fill-rule="evenodd"/>
        <path id="Vector" d="M540.15 120.83C545.7 121.43 551.27 122.22 556.56 122.88C560.49 126.58 564.58 130.31 568.68 134.14C563.5 133.57 558.49 133.16 552.9 132.7C548.5 128.59 544.3 124.77 540.15 120.83L540.15 120.83Z" fill="currentColor"
              fill-opacity="1.000000" fill-rule="evenodd"/>
        <path id="Vector" d="M559.09 123.17C564.02 123.73 568.84 124.39 573.79 125.14C577.57 128.67 581.17 131.9 585.11 135.52C580.6 135.09 576 134.73 571.16 134.41C567.14 130.56 562.98 126.73 559.09 123.17Z" fill="currentColor"
              fill-opacity="1.000000" fill-rule="evenodd"/>
        <path id="Vector" d="M575.95 125.47C580.32 126.14 584.69 126.71 588.83 127.27C592.44 130.57 596.21 133.88 599.79 137.13C595.67 136.71 591.62 136.27 587.35 135.79C583.4 132.22 579.67 128.84 575.95 125.47Z" fill="currentColor"
              fill-opacity="1.000000" fill-rule="evenodd"/>
        <path id="Vector" d="M602.2 130.11C605.96 130.72 609.44 131.13 612.71 131.55C616.09 134.64 619.5 137.68 622.7 140.79C619.48 140.45 616.19 140.12 612.54 139.66C609.14 136.5 605.76 133.41 602.2 130.12L602.2 130.11Z" fill="currentColor"
              fill-opacity="1.000000" fill-rule="evenodd"/>
        <path id="Vector" d="M615.14 132.48C618.46 132.92 621.43 133.39 624.45 133.95C627.6 136.74 630.68 139.51 633.99 142.49C631.15 142.12 628.08 141.89 625.01 141.63C621.8 138.56 618.53 135.53 615.13 132.48L615.14 132.48Z" fill="currentColor"
              fill-opacity="1.000000" fill-rule="evenodd"/>
        <path id="Vector" d="M505.73 103.67C512.3 104.7 518.5 105.61 524.46 106.64C528.74 110.2 532.8 113.85 537.19 117.85C531.18 116.94 525.12 116.28 518.92 115.48C514.51 111.41 510.14 107.54 505.74 103.67L505.73 103.67Z" fill="currentColor"
              fill-opacity="1.000000" fill-rule="evenodd"/>
        <path id="Vector" d="M527.28 106.94C533.15 107.95 538.75 108.73 544.25 109.68C548.06 113.21 552.05 116.6 556.09 120.3C550.76 119.53 545.25 118.85 539.68 118.01C535.61 114.31 531.53 110.71 527.28 106.94Z" fill="currentColor"
              fill-opacity="1.000000" fill-rule="evenodd"/>
        <path id="Vector" d="M512.09 93.84C518.06 94.89 523.78 96.04 529.37 97.08C533.39 100.63 537.32 104.04 541.26 107.46C535.98 106.56 530.26 105.69 524.25 104.67C520.28 101.14 516.14 97.5 512.09 93.84L512.09 93.84Z" fill="currentColor"
              fill-opacity="1.000000" fill-rule="evenodd"/>
        <path id="Vector" d="M447.18 97.57C455.77 98.75 463.76 99.85 471.36 100.64C476.42 104.99 481.05 109.45 485.54 113.64C478.16 113.02 470.3 112.13 461.96 111.24C457.22 106.72 452.29 102.15 447.18 97.57L447.18 97.57Z" fill="currentColor"
              fill-opacity="1.000000" fill-rule="evenodd"/>
        <path id="Vector" d="M678.84 181.95C680.66 181.45 682.33 180.92 683.93 180.49C686.4 182.93 688.96 185.42 691.39 188.16C690.15 188.8 688.7 189.57 687.17 190.27C684.52 187.6 681.67 184.69 678.84 181.95Z" fill="currentColor"
              fill-opacity="1.000000" fill-rule="evenodd"/>
        <path id="Vector" d="M672.01 183.67C674.15 183.17 676.13 182.63 678.03 182.13C680.94 185.07 683.72 187.89 686.36 190.57C684.82 191.41 683.13 192.2 681.28 193C678.27 189.89 675.13 186.7 672.01 183.67Z" fill="currentColor"
              fill-opacity="1.000000" fill-rule="evenodd"/>
        <path id="Vector" d="M664.08 185.47C666.53 185.04 668.76 184.43 670.91 183.82C674.17 187.11 677.31 190.23 680.24 193.27C678.23 193.92 676.21 194.68 673.82 195.29C670.6 192 667.25 188.7 664.07 185.47L664.08 185.47Z" fill="currentColor"
              fill-opacity="1.000000" fill-rule="evenodd"/>
        <path id="Vector" d="M653.94 187.49C656.81 186.87 659.6 186.22 662.36 185.78C665.61 189 669.02 192.61 672.31 196.02C669.83 196.69 667.4 197.68 664.89 198.66C661.31 194.82 657.54 191.18 653.94 187.49L653.94 187.49Z" fill="currentColor"
              fill-opacity="1.000000" fill-rule="evenodd"/>
        <path id="Vector" d="M642.94 189.3C646.29 188.8 649.63 188.3 652.44 187.66C656.11 191.29 659.88 194.99 663.52 198.79C660.69 199.72 657.7 200.52 654.61 201.39C650.91 197.43 647.02 193.44 642.94 189.3Z" fill="currentColor"
              fill-opacity="1.000000" fill-rule="evenodd"/>
        <path id="Vector" d="M630.39 191.7C634.25 191.1 637.79 190.43 641.17 189.72C645.4 194 649.36 198.11 653.05 202C649.95 202.89 646.59 204 643.14 205.03C638.8 200.46 634.79 196.26 630.39 191.69L630.39 191.7Z" fill="currentColor"
              fill-opacity="1.000000" fill-rule="evenodd"/>
        <path id="Vector" d="M616.21 194.67C620.6 193.92 624.68 193.07 628.66 192.27C632.91 196.78 637.14 201.12 641.4 205.61C637.75 206.8 633.86 207.95 629.87 209.12C625.36 204.21 620.67 199.29 616.21 194.67Z" fill="currentColor"
              fill-opacity="1.000000" fill-rule="evenodd"/>
        <path id="Vector" d="M598.28 197.26C603.32 196.26 608.15 195.51 612.63 194.85C617.24 199.43 621.91 204.44 626.49 209.34C622.24 210.35 617.66 211.43 613.09 212.94C608.05 207.42 603.26 202.3 598.28 197.26L598.28 197.26Z" fill="currentColor"
              fill-opacity="1.000000" fill-rule="evenodd"/>
        <path id="Vector" d="M579.84 200.52C585.52 199.41 591.11 198.16 596.02 197.2C601.05 202.46 606.14 207.66 610.94 213.04C606.1 214.52 600.98 216.13 595.39 217.45C590.26 211.76 585.1 206.25 579.84 200.52L579.84 200.52Z" fill="currentColor"
              fill-opacity="1.000000" fill-rule="evenodd"/>
        <path id="Vector" d="M557.93 204.42C564.5 203.28 571.03 202.29 576.66 200.67C581.96 206.51 587.38 212.39 592.42 218.12C586.82 219.74 580.95 221.38 574.73 222.94C569.05 216.57 563.6 210.55 557.93 204.42L557.93 204.42Z" fill="currentColor"
              fill-opacity="1.000000" fill-rule="evenodd"/>
        <path id="Vector" d="M533.1 209.66C540.82 208.06 547.93 206.64 554.61 205.13C560.34 211.41 566.13 217.69 571.79 224.24C564.82 226.16 558.39 228.56 551.02 230.44C544.93 223.45 538.9 216.49 533.1 209.66Z" fill="currentColor"
              fill-opacity="1.000000" fill-rule="evenodd"/>
        <path id="Vector" d="M504.4 216.21C513.43 214.44 521.44 212.77 529.52 211.02C535.54 217.92 541.55 224.95 547.58 231.82C540.03 234.3 532.05 236.74 523.67 239.23C517.04 231.17 510.75 223.59 504.4 216.21Z" fill="currentColor"
              fill-opacity="1.000000" fill-rule="evenodd"/>
        <path id="Vector" d="M205.68 176.32C211.37 171.78 216.94 167.2 222.03 163.03C230.25 167.67 238.44 171.99 246.7 176.9C242.09 181.7 237.52 186.74 232 191.89C223.09 186.63 214.18 181.41 205.68 176.32L205.68 176.32Z" fill="currentColor"
              fill-opacity="1.000000" fill-rule="evenodd"/>
        <path id="Vector" d="M484.72 167.01C486.98 164.74 489.19 162.62 491.49 160.81C494.7 163.05 498.03 165.43 501.33 167.7C499.28 169.85 497.35 172.16 495.27 174.76C491.73 172.12 488.19 169.49 484.72 167.01L484.72 167.01Z" fill="currentColor"
              fill-opacity="1.000000" fill-rule="evenodd"/>
        <path id="Vector" d="M574.28 83.05C575.17 81.71 575.97 80.31 576.72 78.91C579.6 81.29 582.68 83.86 585.7 86.37C585.23 87.98 584.56 89.45 583.81 91.03C580.65 88.38 577.43 85.68 574.29 83.05L574.28 83.05Z" fill="currentColor"
              fill-opacity="1.000000" fill-rule="evenodd"/>
        <path id="Vector" d="M106.42 315.48C113.53 309.93 120.24 304.61 126.75 299.93C135.23 302.53 143.56 305.61 152.29 308.55C145.96 313.67 139.72 319.19 133.32 325.15C124.21 321.74 114.89 318.66 106.42 315.47L106.42 315.48Z" fill="currentColor"
              fill-opacity="1.000000" fill-rule="evenodd"/>
        <path id="Vector" d="M553.99 101.05C554.69 100.28 555.24 99.54 555.79 98.82C557.66 100.17 559.55 101.5 561.37 102.83C560.95 103.65 560.51 104.62 560.02 105.43C558.01 103.98 556.07 102.53 553.99 101.05L553.99 101.05Z" fill="currentColor"
              fill-opacity="1.000000" fill-rule="evenodd"/>
        <path id="Vector" d="M489.45 65.97C491.14 65.25 492.74 64.62 494.32 64.03C496.71 65.65 499.1 67.33 501.54 69.09C500.2 69.89 498.74 70.6 497.08 71.52C494.59 69.59 492.02 67.78 489.45 65.97L489.45 65.97Z" fill="currentColor"
              fill-opacity="1.000000" fill-rule="evenodd"/>
        <path id="Vector" d="M130.22 131.66C136.92 128.91 143.14 126.52 149.05 124.26C156.7 127.42 163.94 130.45 170.87 133.66C165.53 136.32 159.9 139.04 153.6 142.39C145.52 138.64 137.67 134.91 130.22 131.66Z" fill="currentColor"
              fill-opacity="1.000000" fill-rule="evenodd"/>
        <path id="Vector" d="M516.83 61.69C517.85 61.21 518.61 60.58 519.42 60.11C521.36 61.38 523.22 62.81 525.09 64.19C524.4 64.79 523.77 65.51 522.95 66.06C521.08 64.64 518.96 63.14 516.83 61.69Z" fill="currentColor" fill-opacity="1.000000"
              fill-rule="evenodd"/>
        <path id="Vector" d="M559.39 51.23C559.93 50.84 560.52 50.53 561.05 50.17C562.45 51.25 563.99 52.37 565.33 53.41C564.87 53.83 564.46 54.25 564.05 54.74C562.51 53.59 560.92 52.41 559.39 51.23Z" fill="currentColor" fill-opacity="1.000000"
              fill-rule="evenodd"/>
        <path id="Vector" d="M662.15 157.82C662.38 157.24 662.68 156.66 662.83 156.1C663.95 156.87 665 157.74 666.12 158.53C666.03 159.21 665.88 159.85 665.72 160.49C664.46 159.6 663.33 158.71 662.15 157.82Z" fill="currentColor"
              fill-opacity="1.000000" fill-rule="evenodd"/>
        <path id="Vector" d="M101.28 221.78C106.05 219.5 109.9 217.36 113.97 215.3C119.95 216.99 125.67 218.51 131.37 220.16C127.88 222.27 123.92 224.73 119.72 227.05C113.48 225.36 107.36 223.51 101.28 221.78Z" fill="currentColor"
              fill-opacity="1.000000" fill-rule="evenodd"/>
        <path id="Vector" d="M452.02 54.97C453.69 54.48 455.4 54.14 456.84 53.64C459.17 55.15 461.63 56.72 463.83 58.18C462.43 58.8 461.12 59.32 459.57 59.9C457.25 58.31 454.54 56.56 452.02 54.97Z" fill="currentColor" fill-opacity="1.000000"
              fill-rule="evenodd"/>
        <path id="Vector" d="M513.64 17.54C514.7 17.34 515.77 17.17 516.81 17.12C518.56 18.23 520.22 19.49 521.9 20.71C520.91 20.88 519.91 21.07 518.91 21.29C517.12 19.98 515.38 18.74 513.64 17.54Z" fill="currentColor" fill-opacity="1.000000"
              fill-rule="evenodd"/>
        <path id="Vector" d="M540.08 63.4C541.04 63.09 542 62.88 542.88 62.6C544.38 63.68 546.08 64.86 547.65 65.92C546.75 66.24 545.93 66.53 545.03 66.85C543.33 65.68 541.77 64.57 540.08 63.4L540.08 63.4Z" fill="currentColor" fill-opacity="1.000000"
              fill-rule="evenodd"/>
        <path id="Vector" d="M702.74 187.46C703.01 187.02 703.22 186.67 703.49 186.23C704.38 186.83 705.26 187.44 706.07 188.01C705.87 188.46 705.74 188.89 705.47 189.26C704.58 188.69 703.62 188.07 702.74 187.46Z" fill="currentColor"
              fill-opacity="1.000000" fill-rule="evenodd"/>
        <path id="Vector" d="M562.8 88.09C563.77 87.78 564.67 87.42 565.56 87.18C566.97 88.14 568.52 89.16 570.01 90.12C569.11 90.43 568.22 90.76 567.38 91.14C565.9 90.13 564.35 89.12 562.8 88.09Z" fill="currentColor" fill-opacity="1.000000"
              fill-rule="evenodd"/>
        <path id="Vector" d="M412.77 101.3C414.86 100.76 416.87 100.2 418.8 99.69C421.34 101.05 423.81 102.35 426.49 103.78C424.51 104.23 422.56 104.85 420.62 105.42C418.09 104.01 415.33 102.62 412.77 101.3Z" fill="currentColor"
              fill-opacity="1.000000" fill-rule="evenodd"/>
        <path id="Vector" d="M709.5 177.89C709.76 177.44 710.1 177.05 710.36 176.7C711.22 177.25 712.02 177.83 712.83 178.47C712.57 178.86 712.3 179.26 712.04 179.71C711.17 179.09 710.3 178.47 709.5 177.89Z" fill="currentColor"
              fill-opacity="1.000000" fill-rule="evenodd"/>
        <path id="Vector" d="M586.15 109.71C587.05 109.4 587.95 108.99 588.77 108.66C590.16 109.58 591.41 110.42 592.73 111.32C591.98 111.67 591.22 112.06 590.39 112.49C589 111.53 587.61 110.69 586.15 109.71L586.15 109.71Z" fill="currentColor"
              fill-opacity="1.000000" fill-rule="evenodd"/>
        <path id="Vector" d="M574.8 73.07C575.58 72.87 576.35 72.79 577.13 72.64C578.27 73.42 579.46 74.29 580.61 75.01C579.97 75.15 579.19 75.35 578.54 75.57C577.27 74.7 576.07 73.86 574.8 73.07L574.8 73.07Z" fill="currentColor"
              fill-opacity="1.000000" fill-rule="evenodd"/>
        <path id="Vector" d="M0 272.78C6.36 270.87 13.08 268.6 19.88 266.63C26.18 267.98 32.98 268.94 39.37 270.11C33.26 271.98 26.64 274.17 20.52 276.33C13.38 275.14 6.77 274.03 0 272.78L0 272.78Z" fill="currentColor" fill-opacity="1.000000"
              fill-rule="evenodd"/>
        <path id="Vector" d="M488.79 28.95C490.2 29.01 491.46 29.02 492.72 29.03C494.2 29.97 495.75 30.95 497.34 32C496.08 31.94 494.93 32.05 493.66 32.04C492.07 30.99 490.47 29.93 488.8 28.95L488.79 28.95Z" fill="currentColor"
              fill-opacity="1.000000" fill-rule="evenodd"/>
        <path id="Vector" d="M692.05 183.42C692.48 183.1 692.91 182.77 693.19 182.47C693.99 182.98 694.86 183.56 695.59 184.02C695.31 184.37 694.96 184.66 694.6 185.02C693.73 184.43 692.92 183.94 692.05 183.42L692.05 183.42Z" fill="currentColor"
              fill-opacity="1.000000" fill-rule="evenodd"/>
        <path id="Vector" d="M314.12 149.49C317.28 148.72 320.68 148.26 323.91 147.56C327.09 148.67 329.99 149.63 332.83 150.77C329.9 151.31 326.72 152.06 323.41 152.82C320.31 151.68 317.13 150.58 314.12 149.49L314.12 149.49Z" fill="currentColor"
              fill-opacity="1.000000" fill-rule="evenodd"/>
        <path id="Vector" d="M324.93 206.84C327.78 205.06 330.61 203.29 333.45 201.75C337.43 203.28 341.49 205.07 345.58 206.8C342.93 208.56 340.3 210.27 337.65 212.27C333.22 210.27 329.02 208.58 324.93 206.84L324.93 206.84Z" fill="currentColor"
              fill-opacity="1.000000" fill-rule="evenodd"/>
        <path id="Vector" d="M701.07 197.94C701.35 197.15 701.54 196.35 701.75 195.67C702.86 196.47 704.06 197.35 705.26 198.28C705.14 199.08 705.01 199.98 704.82 200.8C703.62 199.86 702.35 198.9 701.07 197.93L701.07 197.94Z" fill="currentColor"
              fill-opacity="1.000000" fill-rule="evenodd"/>
        <path id="Vector" d="M394.1 136.02C396.68 134.55 399.05 133.24 401.26 131.97C404.65 133.84 408.18 135.83 411.71 137.86C409.49 139.22 407.51 140.85 405.03 142.25C401.28 140.15 397.7 138.06 394.1 136.02Z" fill="currentColor"
              fill-opacity="1.000000" fill-rule="evenodd"/>
    </g>
</svg>
