<svg viewBox="0 0 30 30" fill="none" xmlns="http://www.w3.org/2000/svg" xmlns:xlink="http://www.w3.org/1999/xlink">
    <defs>
        <clipPath id="clip75_589">
            <rect id="Icon" rx="0.000000" width="29.000000" height="29.000000" transform="translate(0.500000 0.500000)" fill="white" fill-opacity="0"/>
        </clipPath>
    </defs>
    <g clip-path="url(#clip75_589)">
        <path id="Vector (Stroke)"
              d="M25.5 15C25.5 15.62 24.99 16.12 24.37 16.12L8.41 16.12L14.65 22.06C15.1 22.49 15.11 23.2 14.68 23.65C14.25 24.1 13.54 24.11 13.09 23.68L4.84 15.81C4.62 15.59 4.5 15.3 4.5 15C4.5 14.69 4.62 14.4 4.84 14.18L13.09 6.31C13.54 5.88 14.25 5.89 14.68 6.34C15.11 6.79 15.1 7.5 14.65 7.93L8.41 13.87L24.37 13.87C24.99 13.87 25.5 14.37 25.5 15Z"
              fill="#808080" fill-opacity="1.000000" fill-rule="evenodd"/>
    </g>
</svg>
