<svg viewBox="0 0 21.3076 20.3619" fill="none" xmlns="http://www.w3.org/2000/svg" xmlns:xlink="http://www.w3.org/1999/xlink">
    <defs/>
    <path id="Shape"
          d="M9.81 0.45L6.77 5.19C6.63 5.4 6.42 5.55 6.18 5.61L0.74 7.04C0.04 7.23 -0.24 8.08 0.22 8.64L3.78 12.99C3.94 13.19 4.02 13.43 4.01 13.68L3.68 19.3C3.64 20.03 4.37 20.55 5.05 20.29L10.29 18.25C10.52 18.16 10.78 18.16 11.01 18.25L16.25 20.29C16.93 20.55 17.65 20.03 17.61 19.3L17.29 13.68C17.28 13.43 17.36 13.19 17.52 12.99L21.08 8.64C21.54 8.08 21.26 7.23 20.56 7.04L15.12 5.61C14.87 5.55 14.66 5.4 14.53 5.19L11.49 0.45C11.1 -0.16 10.2 -0.16 9.81 0.45Z"
          fill="var(--description-color)" fill-opacity="1.000000" fill-rule="evenodd"/>
</svg>
