<svg viewBox="0 0 68.3999 30" fill="none" xmlns="http://www.w3.org/2000/svg" xmlns:xlink="http://www.w3.org/1999/xlink">
    <defs>
        <clipPath id="clip75_605">
            <rect id="Frame 3186" rx="0.000000" width="29.000000" height="29.000000" transform="translate(0.500000 0.500000)" fill="white" fill-opacity="0"/>
        </clipPath>
        <clipPath id="clip75_612">
            <rect id="Frame 3187" rx="0.000000" width="17.000000" height="17.000000" transform="translate(36.500000 6.500000)" fill="white" fill-opacity="0"/>
        </clipPath>
        <clipPath id="clip75_619">
            <rect id="Frame 3188" rx="0.000000" width="7.400001" height="7.400000" transform="translate(60.500000 11.300049)" fill="white" fill-opacity="0"/>
        </clipPath>
    </defs>
    <g clip-path="url(#clip75_605)">
        <path id="Vector" d="M30 15.01C30 23.3 23.28 30.01 15 30.01C6.71 30.01 0 23.3 0 15.01C0 6.73 6.71 0.01 15 0.01C23.28 0.01 30 6.73 30 15.01Z" fill="#666666" fill-opacity="1.000000" fill-rule="evenodd"/>
        <path id="Vector" d="M15 30C15 38.28 8.28 45 0 45C-8.29 45 -15 38.28 -15 30C-15 21.71 -8.29 15 0 15C8.28 15 15 21.71 15 30Z" fill="#141414" fill-opacity="1.000000" fill-rule="evenodd"/>
        <path id="Vector" d="M45 30C45 38.28 38.28 45 30 45C21.71 45 15 38.28 15 30C15 21.71 21.71 15 30 15C38.28 15 45 21.71 45 30Z" fill="#141414" fill-opacity="1.000000" fill-rule="evenodd"/>
        <path id="Vector" d="M15 0C15 8.28 8.28 15 0 15C-8.29 15 -15 8.28 -15 0C-15 -8.29 -8.29 -15 0 -15C8.28 -15 15 -8.29 15 0Z" fill="#141414" fill-opacity="1.000000" fill-rule="evenodd"/>
        <path id="Vector" d="M45 0C45 8.28 38.28 15 30 15C21.71 15 15 8.28 15 0C15 -8.29 21.71 -15 30 -15C38.28 -15 45 -8.29 45 0Z" fill="#141414" fill-opacity="1.000000" fill-rule="evenodd"/>
    </g>
    <g clip-path="url(#clip75_612)">
        <path id="Vector" d="M54 15.01C54 19.98 49.97 24.01 45 24.01C40.02 24.01 36 19.98 36 15.01C36 10.03 40.02 6.01 45 6.01C49.97 6.01 54 10.03 54 15.01Z" fill="#333333" fill-opacity="1.000000" fill-rule="evenodd"/>
        <path id="Vector" d="M45 24C45 28.97 40.97 33 36 33C31.02 33 27 28.97 27 24C27 19.02 31.02 15 36 15C40.97 15 45 19.02 45 24Z" fill="#141414" fill-opacity="1.000000" fill-rule="evenodd"/>
        <path id="Vector" d="M63 24C63 28.97 58.97 33 54 33C49.02 33 45 28.97 45 24C45 19.02 49.02 15 54 15C58.97 15 63 19.02 63 24Z" fill="#141414" fill-opacity="1.000000" fill-rule="evenodd"/>
        <path id="Vector" d="M45 6C45 10.97 40.97 15 36 15C31.02 15 27 10.97 27 6C27 1.02 31.02 -3 36 -3C40.97 -3 45 1.02 45 6Z" fill="#141414" fill-opacity="1.000000" fill-rule="evenodd"/>
        <path id="Vector" d="M63 6C63 10.97 58.97 15 54 15C49.02 15 45 10.97 45 6C45 1.02 49.02 -3 54 -3C58.97 -3 63 1.02 63 6Z" fill="#141414" fill-opacity="1.000000" fill-rule="evenodd"/>
    </g>
    <g clip-path="url(#clip75_619)">
        <path id="Vector" d="M68.39 15C68.39 17.32 66.51 19.2 64.2 19.2C61.88 19.2 60 17.32 60 15C60 12.68 61.88 10.8 64.2 10.8C66.51 10.8 68.39 12.68 68.39 15Z" fill="#333333" fill-opacity="1.000000" fill-rule="evenodd"/>
        <path id="Vector" d="M64.19 19.2C64.19 21.51 62.31 23.4 60 23.4C57.68 23.4 55.79 21.51 55.79 19.2C55.79 16.88 57.68 15 60 15C62.31 15 64.19 16.88 64.19 19.2Z" fill="#141414" fill-opacity="1.000000" fill-rule="evenodd"/>
        <path id="Vector" d="M72.6 19.2C72.6 21.51 70.71 23.4 68.4 23.4C66.08 23.4 64.2 21.51 64.2 19.2C64.2 16.88 66.08 15 68.4 15C70.71 15 72.6 16.88 72.6 19.2Z" fill="#141414" fill-opacity="1.000000" fill-rule="evenodd"/>
        <path id="Vector" d="M64.19 10.8C64.19 13.11 62.31 15 60 15C57.68 15 55.79 13.11 55.79 10.8C55.79 8.48 57.68 6.6 60 6.6C62.31 6.6 64.19 8.48 64.19 10.8Z" fill="#141414" fill-opacity="1.000000" fill-rule="evenodd"/>
        <path id="Vector" d="M72.6 10.8C72.6 13.11 70.71 15 68.4 15C66.08 15 64.2 13.11 64.2 10.8C64.2 8.48 66.08 6.6 68.4 6.6C70.71 6.6 72.6 8.48 72.6 10.8Z" fill="#141414" fill-opacity="1.000000" fill-rule="evenodd"/>
    </g>
</svg>
