<svg viewBox="0 0 24 24" fill="none" xmlns="http://www.w3.org/2000/svg" xmlns:xlink="http://www.w3.org/1999/xlink">
    <defs>
        <clipPath id="clip122_2006">
            <rect id="BACKGROUND_2" rx="0.000000" width="21.000000" height="16.000000" transform="translate(1.500000 4.500000)" fill="white" fill-opacity="0"/>
        </clipPath>
        <clipPath id="clip122_2005">
            <rect id="Icon" rx="0.000000" width="23.000000" height="23.000000" transform="translate(0.500000 0.500000)" fill="white" fill-opacity="0"/>
        </clipPath>
    </defs>
    <g clip-path="url(#clip122_2005)">
        <rect id="BACKGROUND_2" rx="0.000000" width="21.000000" height="16.000000" transform="translate(1.500000 4.500000)" fill="#FFFFFF" fill-opacity="0"/>
        <g clip-path="url(#clip122_2006)">
            <path id="Vector"
                  d="M12.01 19.45C9.01 19.45 6.01 19.45 3.01 19.45C2.71 19.45 2.57 19.59 2.57 19.89C2.57 19.97 2.57 20.05 2.57 20.12C2.56 20.22 2.55 20.31 2.54 20.4C2.47 20.73 2.15 21 1.77 20.99C1.39 20.99 1.08 20.71 1.02 20.34C1.01 20.26 1 20.17 1 20.08C1 18.32 0.99 16.56 1 14.8C1.01 13.77 1.39 12.88 2.12 12.14C2.56 11.69 3.09 11.36 3.69 11.16C4.16 11 4.65 10.95 5.15 10.95C9.76 10.95 14.37 10.95 18.98 10.95C20.33 10.96 21.43 11.49 22.24 12.56C22.64 13.08 22.87 13.68 22.95 14.33C22.98 14.55 22.99 14.77 22.99 15C23 16.71 23 18.42 23 20.13C23 20.39 22.93 20.64 22.71 20.81C22.47 21 22.21 21.05 21.92 20.93C21.66 20.82 21.48 20.62 21.45 20.33C21.43 20.19 21.43 20.04 21.43 19.89C21.42 19.65 21.32 19.51 21.12 19.46C21.07 19.45 21.03 19.46 20.98 19.46C17.99 19.46 15 19.46 12.01 19.46L12.01 19.45Z"
                  fill="currentColor" fill-opacity="1.000000" fill-rule="nonzero"/>
            <path id="Vector"
                  d="M11.9 4C13.84 4 15.79 4 17.73 4C18.38 4 18.99 4.14 19.52 4.53C20.19 5.04 20.58 5.71 20.62 6.56C20.65 7.27 20.63 7.99 20.64 8.7C20.64 9.16 20.64 9.62 20.64 10.08C20.64 10.12 20.63 10.17 20.62 10.21C20.59 10.33 20.52 10.38 20.39 10.36C20.25 10.33 20.12 10.27 19.97 10.26C19.64 10.22 19.31 10.2 18.98 10.18C18.76 10.17 18.69 10.13 18.66 9.91C18.55 9.23 17.91 8.62 17.1 8.63C16.18 8.64 15.27 8.63 14.36 8.63C13.68 8.63 13.1 9.03 12.87 9.66C12.83 9.75 12.82 9.85 12.8 9.94C12.77 10.11 12.71 10.17 12.54 10.18C12.18 10.18 11.81 10.18 11.46 10.18C11.29 10.18 11.22 10.11 11.19 9.92C11.15 9.66 11.05 9.42 10.88 9.22C10.57 8.84 10.17 8.64 9.68 8.63C8.74 8.63 7.8 8.63 6.85 8.63C6.06 8.63 5.44 9.24 5.34 9.91C5.31 10.13 5.24 10.17 5.02 10.18C4.65 10.21 4.29 10.24 3.92 10.28C3.81 10.29 3.7 10.34 3.59 10.36C3.47 10.38 3.41 10.34 3.38 10.22C3.36 10.17 3.36 10.12 3.36 10.08C3.36 8.97 3.34 7.87 3.36 6.76C3.38 5.61 3.92 4.76 4.98 4.24C5.4 4.04 5.86 4 6.32 4C8.18 4 10.04 4 11.9 4Z"
                  fill="currentColor" fill-opacity="1.000000" fill-rule="nonzero"/>
        </g>
    </g>
</svg>
