<svg viewBox="0 0 18 18" fill="none" xmlns="http://www.w3.org/2000/svg" xmlns:xlink="http://www.w3.org/1999/xlink">
    <defs/>
    <path id="Vector"
          d="M5.25 0.75C6.49 0.75 7.5 1.75 7.5 3L7.5 5.25C7.5 6.49 6.49 7.5 5.25 7.5L3 7.5C1.75 7.5 0.75 6.49 0.75 5.25L0.75 3C0.75 1.75 1.75 0.75 3 0.75L5.25 0.75ZM5.25 10.5C6.49 10.5 7.5 11.5 7.5 12.75L7.5 15C7.5 16.24 6.49 17.25 5.25 17.25L3 17.25C1.75 17.25 0.75 16.24 0.75 15L0.75 12.75C0.75 11.5 1.75 10.5 3 10.5L5.25 10.5ZM15 0.75C16.24 0.75 17.25 1.75 17.25 3L17.25 5.25C17.25 6.49 16.24 7.5 15 7.5L12.75 7.5C11.5 7.5 10.5 6.49 10.5 5.25L10.5 3C10.5 1.75 11.5 0.75 12.75 0.75L15 0.75ZM15 10.5C16.24 10.5 17.25 11.5 17.25 12.75L17.25 15C17.25 16.24 16.24 17.25 15 17.25L12.75 17.25C11.5 17.25 10.5 16.24 10.5 15L10.5 12.75C10.5 11.5 11.5 10.5 12.75 10.5L15 10.5Z"
          stroke="currentColor" stroke-opacity="1.000000" stroke-width="1.500000" stroke-linejoin="round"/>
</svg>
