<svg viewBox="0 0 60 60" fill="none" xmlns="http://www.w3.org/2000/svg" xmlns:xlink="http://www.w3.org/1999/xlink">
    <defs>
        <clipPath id="clip139_6452">
            <rect id="Icon" rx="0.000000" width="23.000000" height="23.000000" transform="translate(18.500000 18.500000)" fill="white" fill-opacity="0"/>
        </clipPath>
        <linearGradient x1="4.939018" y1="63.292686" x2="62.743927" y2="-4.024376" id="paint_linear_139_6450_0" gradientUnits="userSpaceOnUse">
            <stop stop-color="#A685FA"/>
            <stop offset="0.323723" stop-color="#A685FA" stop-opacity="0.000000"/>
        </linearGradient>
        <linearGradient x1="59.817078" y1="-7.682915" x2="4.939034" y2="60.000023" id="paint_linear_139_6450_1" gradientUnits="userSpaceOnUse">
            <stop stop-color="#A685FA"/>
            <stop offset="0.576615" stop-color="#A685FA" stop-opacity="0.000000"/>
        </linearGradient>
        <linearGradient x1="3.209686" y1="10.483860" x2="51.822578" y2="52.000004" id="paint_linear_139_6451_0" gradientUnits="userSpaceOnUse">
            <stop stop-color="#A685FA"/>
            <stop offset="0.323723" stop-color="#A685FA" stop-opacity="0.000000"/>
        </linearGradient>
        <linearGradient x1="60.693550" y1="61.935467" x2="9.596779" y2="25.741936" id="paint_linear_139_6451_1" gradientUnits="userSpaceOnUse">
            <stop stop-color="#A685FA"/>
            <stop offset="0.576615" stop-color="#A685FA" stop-opacity="0.000000"/>
        </linearGradient>
    </defs>
    <g clip-path="url(#clip139_6452)">
        <path id="Union"
              d="M26.54 26.54C25.13 27.95 22.86 27.95 21.45 26.54C20.04 25.13 20.04 22.86 21.45 21.45L21.8 21.1C22.25 20.65 22.86 20.4 23.5 20.4L36.49 20.4C37.13 20.4 37.74 20.65 38.19 21.1L38.54 21.45C39.95 22.86 39.95 25.13 38.54 26.54C37.14 27.95 34.86 27.95 33.45 26.54C33.28 26.37 33.13 26.18 33 25.99C32.35 26.96 31.25 27.59 30 27.59C28.74 27.59 27.64 26.96 27 25.99C26.86 26.18 26.71 26.37 26.54 26.54ZM27 28.49C25.38 29.57 23.31 29.68 21.6 28.83L21.6 37.8L21.29 37.8C20.8 37.8 20.39 38.2 20.39 38.7C20.39 39.19 20.8 39.59 21.29 39.59L26.69 39.59C27.19 39.59 27.6 39.19 27.6 38.7L27.6 34.5C27.6 34 28 33.59 28.5 33.59L31.5 33.59C31.99 33.59 32.39 34 32.39 34.5L32.39 38.7C32.39 39.19 32.8 39.59 33.29 39.59L38.69 39.59C39.19 39.59 39.6 39.19 39.6 38.7C39.6 38.2 39.19 37.8 38.69 37.8L38.39 37.8L38.39 28.83C36.68 29.68 34.61 29.57 32.99 28.49C32.14 29.06 31.11 29.39 30 29.39C28.88 29.39 27.85 29.06 27 28.49Z"
              fill="#A685FA" fill-opacity="1.000000" fill-rule="evenodd"/>
    </g>
    <rect id="Container" rx="21.500000" width="43.000000" height="43.000000" transform="translate(8.500000 8.500000)" stroke="url(#paint_linear_139_6451_0)" stroke-opacity="1.000000" stroke-width="1.000000"/>
    <rect id="Container" rx="21.500000" width="43.000000" height="43.000000" transform="translate(8.500000 8.500000)" stroke="url(#paint_linear_139_6451_1)" stroke-opacity="1.000000" stroke-width="1.000000"/>
    <rect id="Icon Container" rx="29.500000" width="59.000000" height="59.000000" transform="translate(0.500000 0.500000)" stroke="url(#paint_linear_139_6450_0)" stroke-opacity="1.000000" stroke-width="1.000000"/>
    <rect id="Icon Container" rx="29.500000" width="59.000000" height="59.000000" transform="translate(0.500000 0.500000)" stroke="url(#paint_linear_139_6450_1)" stroke-opacity="1.000000" stroke-width="1.000000"/>
</svg>
