<svg viewBox="0 0 60 60" fill="none" xmlns="http://www.w3.org/2000/svg" xmlns:xlink="http://www.w3.org/1999/xlink">
    <defs>
        <clipPath id="clip139_6460">
            <rect id="Icon" rx="0.000000" width="23.000000" height="23.000000" transform="translate(18.500000 18.500000)" fill="white" fill-opacity="0"/>
        </clipPath>
        <linearGradient x1="4.939018" y1="63.292686" x2="62.743927" y2="-4.024376" id="paint_linear_139_6458_0" gradientUnits="userSpaceOnUse">
            <stop stop-color="#A685FA"/>
            <stop offset="0.323723" stop-color="#A685FA" stop-opacity="0.000000"/>
        </linearGradient>
        <linearGradient x1="59.817078" y1="-7.682915" x2="4.939034" y2="60.000023" id="paint_linear_139_6458_1" gradientUnits="userSpaceOnUse">
            <stop stop-color="#A685FA"/>
            <stop offset="0.576615" stop-color="#A685FA" stop-opacity="0.000000"/>
        </linearGradient>
        <linearGradient x1="3.209686" y1="10.483860" x2="51.822578" y2="52.000004" id="paint_linear_139_6459_0" gradientUnits="userSpaceOnUse">
            <stop stop-color="#A685FA"/>
            <stop offset="0.323723" stop-color="#A685FA" stop-opacity="0.000000"/>
        </linearGradient>
        <linearGradient x1="60.693550" y1="61.935467" x2="9.596779" y2="25.741936" id="paint_linear_139_6459_1" gradientUnits="userSpaceOnUse">
            <stop stop-color="#A685FA"/>
            <stop offset="0.576615" stop-color="#A685FA" stop-opacity="0.000000"/>
        </linearGradient>
    </defs>
    <g clip-path="url(#clip139_6460)">
        <path id="Union"
              d="M19.5 22.87C19.5 21.83 20.33 21 21.37 21L38.62 21C39.66 21 40.5 21.83 40.5 22.87L40.5 32.62C40.5 33.66 39.66 34.5 38.62 34.5L21.37 34.5C20.33 34.5 19.5 33.66 19.5 32.62L19.5 22.87ZM26.25 27.75C26.25 25.67 27.92 24 30 24C32.07 24 33.75 25.67 33.75 27.75C33.75 29.82 32.07 31.5 30 31.5C27.92 31.5 26.25 29.82 26.25 27.75ZM30 25.5C28.75 25.5 27.75 26.5 27.75 27.75C27.75 28.99 28.75 30 30 30C31.24 30 32.25 28.99 32.25 27.75C32.25 26.5 31.24 25.5 30 25.5ZM22.5 27.75C22.5 27.33 22.83 27 23.25 27L23.25 27C23.67 27 24 27.33 24 27.75L24 27.75C24 28.17 23.67 28.5 23.25 28.5L23.25 28.5C22.83 28.5 22.5 28.17 22.5 27.75L22.5 27.75ZM36.75 27C36.33 27 36 27.33 36 27.75L36 27.75C36 28.17 36.33 28.5 36.75 28.5L36.75 28.5C37.17 28.5 37.5 28.17 37.5 27.75L37.5 27.75C37.5 27.33 37.17 27 36.75 27L36.75 27ZM19.5 36.75C19.5 36.33 19.83 36 20.25 36L37.5 36C37.91 36 38.25 36.33 38.25 36.75L38.25 37.75C38.25 39.01 37.04 39.89 35.84 39.57C30.87 38.22 25.65 37.5 20.25 37.5C19.83 37.5 19.5 37.16 19.5 36.75Z"
              fill="#A685FA" fill-opacity="1.000000" fill-rule="evenodd"/>
    </g>
    <rect id="Container" rx="21.500000" width="43.000000" height="43.000000" transform="translate(8.500000 8.500000)" stroke="url(#paint_linear_139_6459_0)" stroke-opacity="1.000000" stroke-width="1.000000"/>
    <rect id="Container" rx="21.500000" width="43.000000" height="43.000000" transform="translate(8.500000 8.500000)" stroke="url(#paint_linear_139_6459_1)" stroke-opacity="1.000000" stroke-width="1.000000"/>
    <rect id="Icon Container" rx="29.500000" width="59.000000" height="59.000000" transform="translate(0.500000 0.500000)" stroke="url(#paint_linear_139_6458_0)" stroke-opacity="1.000000" stroke-width="1.000000"/>
    <rect id="Icon Container" rx="29.500000" width="59.000000" height="59.000000" transform="translate(0.500000 0.500000)" stroke="url(#paint_linear_139_6458_1)" stroke-opacity="1.000000" stroke-width="1.000000"/>
</svg>
