<svg viewBox="0 0 24 24" fill="none" xmlns="http://www.w3.org/2000/svg" xmlns:xlink="http://www.w3.org/1999/xlink">
    <defs>
        <clipPath id="clip129_4771">
            <rect id="Icon" rx="0.000000" width="23.000000" height="23.000000" transform="translate(0.500000 0.500000)" fill="white" fill-opacity="0"/>
        </clipPath>
    </defs>
    <rect id="Icon" rx="0.000000" width="23.000000" height="23.000000" transform="translate(0.500000 0.500000)" fill="#FFFFFF" fill-opacity="0"/>
    <g clip-path="url(#clip129_4771)">
        <path id="Vector"
              d="M22 5.8C21.24 6.12 20.45 6.34 19.64 6.44C20.49 5.92 21.14 5.12 21.44 4.17C20.64 4.65 19.76 4.98 18.83 5.17C18.22 4.5 17.4 4.05 16.5 3.9C15.61 3.75 14.69 3.9 13.89 4.33C13.09 4.76 12.45 5.44 12.08 6.27C11.71 7.09 11.62 8.02 11.83 8.91C10.2 8.82 8.61 8.4 7.15 7.66C5.7 6.92 4.41 5.88 3.39 4.62C3.02 5.25 2.83 5.96 2.83 6.69C2.83 7.36 3 8.02 3.32 8.62C3.63 9.21 4.09 9.72 4.66 10.1C4 10.08 3.36 9.9 2.8 9.59L2.8 9.64C2.8 10.58 3.13 11.49 3.73 12.22C4.33 12.95 5.17 13.45 6.09 13.64C5.74 13.74 5.37 13.8 5 13.81C4.74 13.8 4.48 13.78 4.23 13.74C4.49 14.55 5 15.26 5.69 15.77C6.37 16.28 7.2 16.56 8.06 16.58C6.61 17.71 4.83 18.33 3 18.34C2.66 18.34 2.33 18.32 2 18.28C3.87 19.49 6.05 20.13 8.28 20.13C9.83 20.14 11.35 19.85 12.78 19.27C14.2 18.69 15.5 17.83 16.59 16.74C17.68 15.65 18.54 14.36 19.13 12.94C19.71 11.51 20.01 9.98 20 8.45C20 8.28 20 8.1 20 7.92C20.78 7.33 21.46 6.61 22 5.8Z"
              fill="#FFFFFF" fill-opacity="1.000000" fill-rule="nonzero"/>
    </g>
</svg>
