<svg style="display: none">
    <symbol id="icon-logo">
        <path d="M24 48.5C10.7467 48.5 0 37.7533 0 24.5H24V48.5Z" fill="#703BF7"/>
        <path d="M0 0.5C13.2533 0.5 24 11.2467 24 24.5H0V0.5Z" fill="#703BF7"/>
        <path d="M24 48.5C37.2533 48.5 48 37.7533 48 24.5H24V48.5Z" fill="#703BF7"/>
        <path d="M48 24.5C48 11.2467 37.2533 0.5 24 0.5V24.5H48Z" fill="#703BF7"/>
        <path d="M156.82 35.3603V27.3536C156.82 26.4286 156.522 25.6675 155.924 25.0701C155.346 24.4727 154.595 24.174 153.67 24.174C153.053 24.174 152.504 24.3089 152.022 24.5787C151.54 24.8485 151.165 25.2242 150.895 25.706C150.625 26.1877 150.49 26.737 150.49 27.3536L149.247 26.6599C149.247 25.6 149.478 24.6654 149.941 23.8561C150.403 23.0274 151.039 22.3819 151.849 21.9194C152.677 21.4377 153.602 21.1968 154.624 21.1968C155.664 21.1968 156.589 21.4666 157.398 22.0061C158.208 22.5264 158.844 23.2105 159.306 24.0584C159.769 24.887 160 25.7542 160 26.6599V35.3603H156.82ZM147.311 35.3603V21.4858H150.49V35.3603H147.311Z"
              fill="white"/>
        <path d="M140.565 35.3604V21.4859H143.745V35.3604H140.565ZM142.155 18.9422C141.615 18.9422 141.162 18.7591 140.796 18.393C140.449 18.0269 140.276 17.574 140.276 17.0345C140.276 16.4949 140.449 16.042 140.796 15.6759C141.162 15.3098 141.615 15.1267 142.155 15.1267C142.714 15.1267 143.166 15.3098 143.513 15.6759C143.86 16.042 144.034 16.4949 144.034 17.0345C144.034 17.574 143.86 18.0269 143.513 18.393C143.166 18.7591 142.714 18.9422 142.155 18.9422Z"
              fill="white"/>
        <path d="M131.541 35.6494C130.154 35.6494 128.901 35.3411 127.783 34.7244C126.685 34.0885 125.808 33.2214 125.153 32.123C124.517 31.0246 124.199 29.7913 124.199 28.4231C124.199 27.0549 124.517 25.8313 125.153 24.7521C125.789 23.6537 126.647 22.7866 127.726 22.1506C128.824 21.5147 130.038 21.1968 131.368 21.1968C132.659 21.1968 133.796 21.4955 134.779 22.0928C135.781 22.6902 136.561 23.5092 137.12 24.5498C137.698 25.5904 137.987 26.7755 137.987 28.1051C137.987 28.3364 137.968 28.5773 137.929 28.8278C137.91 29.059 137.871 29.3192 137.814 29.6082H126.425V27.0067H136.166L134.981 28.0473C134.942 27.1994 134.779 26.4864 134.489 25.9083C134.2 25.3302 133.786 24.887 133.247 24.5787C132.726 24.2704 132.081 24.1162 131.31 24.1162C130.501 24.1162 129.797 24.2896 129.2 24.6365C128.602 24.9834 128.14 25.4748 127.812 26.1107C127.485 26.7273 127.321 27.4692 127.321 28.3364C127.321 29.2035 127.494 29.9647 127.841 30.6199C128.188 31.2751 128.68 31.7857 129.315 32.1519C129.951 32.4987 130.684 32.6722 131.512 32.6722C132.225 32.6722 132.88 32.5469 133.478 32.2964C134.094 32.0459 134.615 31.6797 135.039 31.198L137.062 33.2503C136.388 34.0403 135.569 34.6377 134.605 35.0424C133.642 35.4471 132.62 35.6494 131.541 35.6494Z"
              fill="white"/>
        <path d="M116.677 35.3604V15.7048H119.856V35.3604H116.677ZM113.353 24.3764V21.4859H123.18V24.3764H113.353Z" fill="white"/>
        <path d="M103.609 35.6494C102.357 35.6494 101.22 35.3314 100.198 34.6955C99.1964 34.0596 98.3967 33.2021 97.7993 32.123C97.2212 31.0246 96.9321 29.8009 96.9321 28.452C96.9321 27.0838 97.2212 25.8602 97.7993 24.781C98.3967 23.6826 99.1964 22.8155 100.198 22.1796C101.22 21.5244 102.357 21.1968 103.609 21.1968C104.669 21.1968 105.604 21.428 106.413 21.8905C107.242 22.3337 107.897 22.9504 108.379 23.7404C108.86 24.5305 109.101 25.4266 109.101 26.4286V30.4176C109.101 31.4196 108.86 32.3157 108.379 33.1057C107.916 33.8958 107.271 34.5221 106.442 34.9846C105.613 35.4278 104.669 35.6494 103.609 35.6494ZM104.13 32.6433C105.305 32.6433 106.249 32.2482 106.962 31.4581C107.695 30.6681 108.061 29.6564 108.061 28.4231C108.061 27.5945 107.897 26.8622 107.569 26.2263C107.242 25.5904 106.779 25.099 106.182 24.7521C105.604 24.386 104.92 24.2029 104.13 24.2029C103.359 24.2029 102.675 24.386 102.077 24.7521C101.499 25.099 101.037 25.5904 100.69 26.2263C100.362 26.8622 100.198 27.5945 100.198 28.4231C100.198 29.2517 100.362 29.984 100.69 30.6199C101.037 31.2558 101.499 31.7568 102.077 32.123C102.675 32.4698 103.359 32.6433 104.13 32.6433ZM107.858 35.3603V31.6316L108.408 28.2497L107.858 24.8966V21.4858H111.038V35.3603H107.858Z"
              fill="white"/>
        <path d="M89.3798 35.3604V15.7048H92.5593V35.3604H89.3798ZM86.0557 24.3764V21.4859H95.8834V24.3764H86.0557Z" fill="white"/>
        <path d="M79.3879 35.6494C78.6171 35.6494 77.8752 35.5531 77.1622 35.3603C76.4492 35.1484 75.794 34.8593 75.1966 34.4932C74.5992 34.1078 74.079 33.6453 73.6357 33.1057L75.6591 31.0824C76.1409 31.6412 76.6901 32.0652 77.3067 32.3542C77.9426 32.624 78.6556 32.7589 79.4457 32.7589C80.1587 32.7589 80.6983 32.6529 81.0644 32.4409C81.4305 32.2289 81.6136 31.9206 81.6136 31.516C81.6136 31.092 81.4402 30.7644 81.0933 30.5332C80.7464 30.3019 80.2936 30.1092 79.7347 29.9551C79.1952 29.7816 78.6171 29.6082 78.0004 29.4348C77.4031 29.2613 76.825 29.0301 76.2661 28.741C75.7266 28.4327 75.2833 28.0184 74.9365 27.4981C74.5896 26.9778 74.4162 26.3034 74.4162 25.4748C74.4162 24.5883 74.6185 23.8272 75.0232 23.1912C75.4471 22.5553 76.0349 22.0639 76.7864 21.7171C77.5572 21.3702 78.4726 21.1968 79.5324 21.1968C80.6501 21.1968 81.6329 21.3991 82.4807 21.8038C83.3479 22.1892 84.0705 22.7769 84.6486 23.567L82.6253 25.5904C82.2206 25.0893 81.7581 24.7136 81.2378 24.4631C80.7175 24.2126 80.1202 24.0873 79.4457 24.0873C78.8098 24.0873 78.3184 24.1837 77.9715 24.3764C77.6247 24.5691 77.4512 24.8485 77.4512 25.2146C77.4512 25.6 77.6247 25.8987 77.9715 26.1107C78.3184 26.3226 78.7616 26.5057 79.3012 26.6599C79.86 26.814 80.4381 26.9875 81.0355 27.1802C81.6521 27.3536 82.2302 27.6041 82.7698 27.9317C83.3286 28.24 83.7815 28.664 84.1283 29.2035C84.4752 29.7238 84.6486 30.4079 84.6486 31.2558C84.6486 32.6047 84.1765 33.6742 83.2323 34.4643C82.288 35.2544 81.0066 35.6494 79.3879 35.6494Z"
              fill="white"/>
        <path d="M58.2339 35.3604V15.1267H61.558V35.3604H58.2339ZM60.5174 35.3604V32.3253H71.8483V35.3604H60.5174ZM60.5174 26.4865V23.567H70.8655V26.4865H60.5174ZM60.5174 18.1618V15.1267H71.7037V18.1618H60.5174Z" fill="white"/>
    </symbol>

    <symbol id="icon-star">
        <path
                d="M9.81 0.45L6.77 5.19C6.63 5.4 6.42 5.55 6.18 5.61L0.74 7.04C0.04 7.23 -0.24 8.08 0.22 8.64L3.78 12.99C3.94 13.19 4.02 13.43 4.01 13.68L3.68 19.3C3.64 20.03 4.37 20.55 5.05 20.29L10.29 18.25C10.52 18.16 10.78 18.16 11.01 18.25L16.25 20.29C16.93 20.55 17.65 20.03 17.61 19.3L17.29 13.68C17.28 13.43 17.36 13.19 17.52 12.99L21.08 8.64C21.54 8.08 21.26 7.23 20.56 7.04L15.12 5.61C14.87 5.55 14.66 5.4 14.53 5.19L11.49 0.45C11.1 -0.16 10.2 -0.16 9.81 0.45Z"
                fill="currentColor" fill-opacity="1.000000" fill-rule="evenodd"/>
    </symbol>

    <symbol id="icon-stars">
        <defs>
            <clipPath id="clip75_605">
                <rect id="Frame 3186" rx="0.000000" width="29.000000" height="29.000000" transform="translate(0.500000 0.500000)" fill="white" fill-opacity="0"/>
            </clipPath>
            <clipPath id="clip75_612">
                <rect id="Frame 3187" rx="0.000000" width="17.000000" height="17.000000" transform="translate(36.500000 6.500000)" fill="white" fill-opacity="0"/>
            </clipPath>
            <clipPath id="clip75_619">
                <rect id="Frame 3188" rx="0.000000" width="7.400001" height="7.400000" transform="translate(60.500000 11.300049)" fill="white" fill-opacity="0"/>
            </clipPath>
        </defs>
        <g clip-path="url(#clip75_605)">
            <path id="Vector" d="M30 15.01C30 23.3 23.28 30.01 15 30.01C6.71 30.01 0 23.3 0 15.01C0 6.73 6.71 0.01 15 0.01C23.28 0.01 30 6.73 30 15.01Z" fill="#666666" fill-opacity="1.000000" fill-rule="evenodd"/>
            <path id="Vector" d="M15 30C15 38.28 8.28 45 0 45C-8.29 45 -15 38.28 -15 30C-15 21.71 -8.29 15 0 15C8.28 15 15 21.71 15 30Z" fill="#141414" fill-opacity="1.000000" fill-rule="evenodd"/>
            <path id="Vector" d="M45 30C45 38.28 38.28 45 30 45C21.71 45 15 38.28 15 30C15 21.71 21.71 15 30 15C38.28 15 45 21.71 45 30Z" fill="#141414" fill-opacity="1.000000" fill-rule="evenodd"/>
            <path id="Vector" d="M15 0C15 8.28 8.28 15 0 15C-8.29 15 -15 8.28 -15 0C-15 -8.29 -8.29 -15 0 -15C8.28 -15 15 -8.29 15 0Z" fill="#141414" fill-opacity="1.000000" fill-rule="evenodd"/>
            <path id="Vector" d="M45 0C45 8.28 38.28 15 30 15C21.71 15 15 8.28 15 0C15 -8.29 21.71 -15 30 -15C38.28 -15 45 -8.29 45 0Z" fill="#141414" fill-opacity="1.000000" fill-rule="evenodd"/>
        </g>
        <g clip-path="url(#clip75_612)">
            <path id="Vector" d="M54 15.01C54 19.98 49.97 24.01 45 24.01C40.02 24.01 36 19.98 36 15.01C36 10.03 40.02 6.01 45 6.01C49.97 6.01 54 10.03 54 15.01Z" fill="#333333" fill-opacity="1.000000" fill-rule="evenodd"/>
            <path id="Vector" d="M45 24C45 28.97 40.97 33 36 33C31.02 33 27 28.97 27 24C27 19.02 31.02 15 36 15C40.97 15 45 19.02 45 24Z" fill="#141414" fill-opacity="1.000000" fill-rule="evenodd"/>
            <path id="Vector" d="M63 24C63 28.97 58.97 33 54 33C49.02 33 45 28.97 45 24C45 19.02 49.02 15 54 15C58.97 15 63 19.02 63 24Z" fill="#141414" fill-opacity="1.000000" fill-rule="evenodd"/>
            <path id="Vector" d="M45 6C45 10.97 40.97 15 36 15C31.02 15 27 10.97 27 6C27 1.02 31.02 -3 36 -3C40.97 -3 45 1.02 45 6Z" fill="#141414" fill-opacity="1.000000" fill-rule="evenodd"/>
            <path id="Vector" d="M63 6C63 10.97 58.97 15 54 15C49.02 15 45 10.97 45 6C45 1.02 49.02 -3 54 -3C58.97 -3 63 1.02 63 6Z" fill="#141414" fill-opacity="1.000000" fill-rule="evenodd"/>
        </g>
        <g clip-path="url(#clip75_619)">
            <path id="Vector" d="M68.39 15C68.39 17.32 66.51 19.2 64.2 19.2C61.88 19.2 60 17.32 60 15C60 12.68 61.88 10.8 64.2 10.8C66.51 10.8 68.39 12.68 68.39 15Z" fill="#333333" fill-opacity="1.000000" fill-rule="evenodd"/>
            <path id="Vector" d="M64.19 19.2C64.19 21.51 62.31 23.4 60 23.4C57.68 23.4 55.79 21.51 55.79 19.2C55.79 16.88 57.68 15 60 15C62.31 15 64.19 16.88 64.19 19.2Z" fill="#141414" fill-opacity="1.000000" fill-rule="evenodd"/>
            <path id="Vector" d="M72.6 19.2C72.6 21.51 70.71 23.4 68.4 23.4C66.08 23.4 64.2 21.51 64.2 19.2C64.2 16.88 66.08 15 68.4 15C70.71 15 72.6 16.88 72.6 19.2Z" fill="#141414" fill-opacity="1.000000" fill-rule="evenodd"/>
            <path id="Vector" d="M64.19 10.8C64.19 13.11 62.31 15 60 15C57.68 15 55.79 13.11 55.79 10.8C55.79 8.48 57.68 6.6 60 6.6C62.31 6.6 64.19 8.48 64.19 10.8Z" fill="#141414" fill-opacity="1.000000" fill-rule="evenodd"/>
            <path id="Vector" d="M72.6 10.8C72.6 13.11 70.71 15 68.4 15C66.08 15 64.2 13.11 64.2 10.8C64.2 8.48 66.08 6.6 68.4 6.6C70.71 6.6 72.6 8.48 72.6 10.8Z" fill="#141414" fill-opacity="1.000000" fill-rule="evenodd"/>
        </g>
    </symbol>

    <symbol id="icon-arrow-light">
        <path id="Vector 431" d="M1 22.25L22.25 1M22.25 16.93L22.25 1L6.31 1" stroke="currentColor" stroke-opacity="1" stroke-width="2" stroke-linejoin="round" stroke-linecap="round"/>
    </symbol>

    <symbol id="icon-arrow-strong">
        <defs>
            <clipPath id="clip75_589">
                <rect id="Icon" rx="0" width="29" height="29" transform="translate(0.500000 0.500000)" fill="none" fill-opacity="0"/>
            </clipPath>
        </defs>
        <g clip-path="url(#clip75_589)">
            <path id="Vector (Stroke)"
                  d="M25.5 15C25.5 15.62 24.99 16.12 24.37 16.12L8.41 16.12L14.65 22.06C15.1 22.49 15.11 23.2 14.68 23.65C14.25 24.1 13.54 24.11 13.09 23.68L4.84 15.81C4.62 15.59 4.5 15.3 4.5 15C4.5 14.69 4.62 14.4 4.84 14.18L13.09 6.31C13.54 5.88 14.25 5.89 14.68 6.34C15.11 6.79 15.1 7.5 14.65 7.93L8.41 13.87L24.37 13.87C24.99 13.87 25.5 14.37 25.5 15Z"
                  fill="currentColor" fill-opacity="1" fill-rule="evenodd"/>
        </g>
    </symbol>

    <symbol id="icon-email">
        <path d="M17 7H18V8C18 8.26522 18.1054 8.51957 18.2929 8.70711C18.4804 8.89464 18.7348 9 19 9C19.2652 9 19.5196 8.89464 19.7071 8.70711C19.8946 8.51957 20 8.26522 20 8V7H21C21.2652 7 21.5196 6.89464 21.7071 6.70711C21.8946 6.51957 22 6.26522 22 6C22 5.73478 21.8946 5.48043 21.7071 5.29289C21.5196 5.10536 21.2652 5 21 5H20V4C20 3.73478 19.8946 3.48043 19.7071 3.29289C19.5196 3.10536 19.2652 3 19 3C18.7348 3 18.4804 3.10536 18.2929 3.29289C18.1054 3.48043 18 3.73478 18 4V5H17C16.7348 5 16.4804 5.10536 16.2929 5.29289C16.1054 5.48043 16 5.73478 16 6C16 6.26522 16.1054 6.51957 16.2929 6.70711C16.4804 6.89464 16.7348 7 17 7ZM21 11C20.7348 11 20.4804 11.1054 20.2929 11.2929C20.1054 11.4804 20 11.7348 20 12V18C20 18.2652 19.8946 18.5196 19.7071 18.7071C19.5196 18.8946 19.2652 19 19 19H5C4.73478 19 4.48043 18.8946 4.29289 18.7071C4.10536 18.5196 4 18.2652 4 18V8.41L9.88 14.3C10.4425 14.8618 11.205 15.1774 12 15.1774C12.795 15.1774 13.5575 14.8618 14.12 14.3L16.59 11.83C16.7783 11.6417 16.8841 11.3863 16.8841 11.12C16.8841 10.8537 16.7783 10.5983 16.59 10.41C16.4017 10.2217 16.1463 10.1159 15.88 10.1159C15.6137 10.1159 15.3583 10.2217 15.17 10.41L12.7 12.88C12.5131 13.0632 12.2618 13.1659 12 13.1659C11.7382 13.1659 11.4869 13.0632 11.3 12.88L5.41 7H13C13.2652 7 13.5196 6.89464 13.7071 6.70711C13.8946 6.51957 14 6.26522 14 6C14 5.73478 13.8946 5.48043 13.7071 5.29289C13.5196 5.10536 13.2652 5 13 5H5C4.20435 5 3.44129 5.31607 2.87868 5.87868C2.31607 6.44129 2 7.20435 2 8V18C2 18.7956 2.31607 19.5587 2.87868 20.1213C3.44129 20.6839 4.20435 21 5 21H19C19.7956 21 20.5587 20.6839 21.1213 20.1213C21.6839 19.5587 22 18.7956 22 18V12C22 11.7348 21.8946 11.4804 21.7071 11.2929C21.5196 11.1054 21.2652 11 21 11Z"
              fill="currentColor"/>
    </symbol>

    <symbol id="icon-send">
        <path d="M26.7843 3.22287C26.1593 2.58412 25.2343 2.34787 24.3718 2.59787L4.25928 8.40912C3.34928 8.66162 2.70428 9.38287 2.53053 10.2979C2.35303 11.2304 2.97303 12.4154 3.78303 12.9104L10.0718 16.7504C10.7168 17.1454 11.5493 17.0466 12.083 16.5116L19.2843 9.31037C19.6468 8.93412 20.2468 8.93412 20.6093 9.31037C20.9718 9.67162 20.9718 10.2604 20.6093 10.6354L13.3955 17.8366C12.8605 18.3716 12.7605 19.2016 13.1543 19.8479L16.9968 26.1604C17.4468 26.9091 18.2218 27.3354 19.0718 27.3354C19.1718 27.3354 19.2843 27.3354 19.3843 27.3216C20.3593 27.1979 21.1343 26.5341 21.4218 25.5966L27.3843 5.63537C27.6468 4.78537 27.4093 3.86037 26.7843 3.22287Z"
              fill="white"/>
        <path opacity="0.4"
              d="M11.8145 23.9277C12.1795 24.294 12.1795 24.8877 11.8145 25.254L10.107 26.9602C9.92448 27.144 9.68448 27.2352 9.44448 27.2352C9.20448 27.2352 8.96448 27.144 8.78198 26.9602C8.41573 26.594 8.41573 26.0015 8.78198 25.6352L10.4882 23.9277C10.8545 23.5627 11.4482 23.5627 11.8145 23.9277ZM10.8349 19.1927C11.1999 19.559 11.1999 20.1527 10.8349 20.519L9.12736 22.2252C8.94486 22.409 8.70486 22.5002 8.46486 22.5002C8.22486 22.5002 7.98486 22.409 7.80236 22.2252C7.43611 21.859 7.43611 21.2665 7.80236 20.9002L9.50861 19.1927C9.87486 18.8277 10.4686 18.8277 10.8349 19.1927ZM6.13336 17.7022C6.49836 18.0685 6.49836 18.6622 6.13336 19.0285L4.42586 20.7347C4.24336 20.9185 4.00336 21.0097 3.76336 21.0097C3.52336 21.0097 3.28336 20.9185 3.10086 20.7347C2.73461 20.3685 2.73461 19.776 3.10086 19.4097L4.80711 17.7022C5.17336 17.3372 5.76711 17.3372 6.13336 17.7022Z"
              fill="white"/>
    </symbol>

    <symbol id="icon-hat">
        <defs>
            <clipPath id="clip122_2075">
                <rect id="Icon" rx="0.000000" width="33.000000" height="33.000000" transform="translate(0.500000 0.500000)" fill="white" fill-opacity="0"/>
            </clipPath>
        </defs>
        <g clip-path="url(#clip122_2075)">
            <path id="Union"
                  d="M16.57 3.97C16.84 3.85 17.15 3.85 17.42 3.97C22.69 6.27 27.68 9.08 32.34 12.35C32.67 12.58 32.84 12.99 32.77 13.4C32.7 13.8 32.41 14.13 32.01 14.24C31.04 14.51 30.08 14.8 29.12 15.11C25.26 16.35 21.53 17.92 17.98 19.78L17.98 19.79C17.82 19.87 17.66 19.96 17.5 20.04C17.18 20.21 16.81 20.21 16.5 20.04C16.33 19.95 16.17 19.87 16.01 19.78C14.25 18.86 12.46 18.02 10.62 17.24L10.62 16.92C10.62 16.74 10.72 16.57 10.86 16.48C13 15.19 15.2 14 17.45 12.91C17.98 12.66 18.21 12.03 17.95 11.5C17.7 10.97 17.06 10.74 16.54 11C14.21 12.11 11.95 13.34 9.76 14.67C9.12 15.06 8.69 15.69 8.55 16.41C7.33 15.94 6.11 15.51 4.87 15.11C3.91 14.8 2.95 14.51 1.98 14.24C1.58 14.13 1.29 13.8 1.22 13.4C1.15 12.99 1.32 12.58 1.65 12.35C6.31 9.08 11.3 6.27 16.57 3.97ZM18.5 21.92C21.95 20.07 25.58 18.51 29.36 17.27C29.55 19.27 29.67 21.29 29.72 23.34C29.73 23.77 29.47 24.17 29.07 24.34C25.03 26.03 21.19 28.09 17.58 30.49C17.23 30.73 16.76 30.73 16.41 30.49C14.24 29.05 11.98 27.72 9.64 26.53C9.19 27.45 8.58 28.31 7.82 29.07C7.4 29.48 6.73 29.48 6.32 29.07C5.9 28.65 5.9 27.98 6.32 27.57C6.91 26.97 7.38 26.3 7.73 25.59C6.81 25.15 5.87 24.74 4.92 24.34C4.52 24.17 4.26 23.77 4.27 23.34C4.32 21.29 4.44 19.27 4.63 17.26C5.94 17.69 7.23 18.16 8.5 18.67L8.5 20.47C7.86 20.83 7.43 21.52 7.43 22.31C7.43 23.01 7.77 23.63 8.3 24.02C8.17 24.56 7.98 25.09 7.73 25.59C8.38 25.89 9.01 26.21 9.64 26.53C10 25.8 10.26 25.03 10.42 24.25C11.16 23.92 11.68 23.17 11.68 22.31C11.68 21.52 11.26 20.83 10.62 20.47L10.62 19.55C12.28 20.28 13.91 21.07 15.49 21.92C16.43 22.42 17.56 22.42 18.5 21.92Z"
                  fill="currentColor" fill-opacity="1.000000" fill-rule="evenodd"/>
        </g>
    </symbol>

    <symbol id="icon-clients">
        <defs>
            <clipPath id="clip181_3299">
                <rect id="Icon" rx="0.000000" width="33.000000" height="33.000000" transform="translate(0.500000 0.500000)" fill="white" fill-opacity="0"/>
            </clipPath>
        </defs>
        <g clip-path="url(#clip181_3299)">
            <path id="Vector"
                  d="M17 4.25C14.06 4.25 11.68 6.62 11.68 9.56C11.68 12.49 14.06 14.87 17 14.87C19.93 14.87 22.31 12.49 22.31 9.56C22.31 6.62 19.93 4.25 17 4.25ZM3.18 13.81C3.18 11.46 5.08 9.56 7.43 9.56C9.78 9.56 11.68 11.46 11.68 13.81C11.68 16.15 9.78 18.06 7.43 18.06C5.08 18.06 3.18 16.15 3.18 13.81ZM26.56 9.56C24.21 9.56 22.31 11.46 22.31 13.81C22.31 16.15 24.21 18.06 26.56 18.06C28.91 18.06 30.81 16.15 30.81 13.81C30.81 11.46 28.91 9.56 26.56 9.56ZM17 17C13.61 17 10.63 18.76 8.93 21.41C7.76 23.25 7.25 25.46 7.49 27.62C7.53 27.95 7.72 28.25 8.02 28.42C10.66 29.94 13.73 30.81 17 30.81C20.26 30.81 23.33 29.94 25.97 28.42C26.27 28.25 26.46 27.95 26.5 27.62C26.74 25.46 26.23 23.25 25.06 21.41C23.36 18.76 20.38 17 17 17ZM7.2 20.19C7.18 20.21 7.16 20.24 7.14 20.27C5.78 22.41 5.15 24.95 5.34 27.46C4.48 27.33 3.65 27.12 2.84 26.84L2.68 26.78C2.38 26.68 2.18 26.41 2.15 26.09L2.14 25.92C2.13 25.78 2.12 25.64 2.12 25.5C2.12 22.64 4.37 20.31 7.2 20.19ZM26.85 20.27C28.21 22.41 28.84 24.95 28.65 27.46C29.51 27.33 30.34 27.12 31.15 26.84L31.31 26.78C31.61 26.68 31.81 26.41 31.84 26.09L31.85 25.92C31.86 25.78 31.87 25.64 31.87 25.5C31.87 22.64 29.62 20.31 26.8 20.19C26.81 20.21 26.83 20.24 26.85 20.27Z"
                  fill="currentColor" fill-opacity="1.000000" fill-rule="evenodd"/>
        </g>
    </symbol>

    <symbol id="icon-star-2">
        <defs/>
        <path id="Star 5 (Stroke)"
              d="M12.31 1.14C12.95 -0.39 15.11 -0.39 15.75 1.14L18.7 8.23L26.35 8.85C28 8.98 28.67 11.04 27.41 12.11L21.58 17.11L23.36 24.58C23.75 26.19 22 27.46 20.58 26.6L14.03 22.59L7.48 26.6C6.06 27.46 4.31 26.19 4.7 24.58L6.48 17.11L0.65 12.11C-0.61 11.04 0.06 8.98 1.71 8.85L9.36 8.23L12.31 1.14Z"
              fill="currentColor" fill-opacity="1.000000" fill-rule="evenodd"/>
    </symbol>

    <symbol id="icon-facebook">
        <defs>
            <clipPath id="clip139_7786">
                <rect id="Icon" rx="0.000000" width="23.000000" height="23.000000" transform="translate(0.500000 0.500000)" fill="white" fill-opacity="0"/>
            </clipPath>
        </defs>
        <rect id="Icon" rx="0.000000" width="23.000000" height="23.000000" transform="translate(0.500000 0.500000)" fill="#FFFFFF" fill-opacity="0"/>
        <g clip-path="url(#clip139_7786)">
            <g style="mix-blend-mode:normal">
                <path id="Icon"
                      d="M15.74 3.98L18 3.98L18 0.16C16.9 0.05 15.8 -0.01 14.71 0C11.44 0 9.21 1.99 9.21 5.64L9.21 8.78L5.53 8.78L5.53 13.05L9.21 13.05L9.21 24L13.63 24L13.63 13.05L17.3 13.05L17.85 8.78L13.63 8.78L13.63 6.06C13.63 4.8 13.96 3.98 15.74 3.98Z"
                      fill="currentColor" fill-opacity="1.000000" fill-rule="nonzero"/>
            </g>
        </g>
    </symbol>

    <symbol id="icon-linkedin">
        <defs>
            <clipPath id="clip129_4768">
                <rect id="Icon" rx="0.000000" width="23.000000" height="23.000000" transform="translate(0.500000 0.500000)" fill="white" fill-opacity="0"/>
            </clipPath>
        </defs>
        <rect id="Icon" rx="0.000000" width="23.000000" height="23.000000" transform="translate(0.500000 0.500000)" fill="#FFFFFF" fill-opacity="0"/>
        <g clip-path="url(#clip129_4768)">
            <path id="Vector"
                  d="M20.47 2L3.53 2C3.33 1.99 3.15 2.03 2.97 2.1C2.79 2.17 2.63 2.27 2.5 2.41C2.36 2.54 2.25 2.7 2.17 2.87C2.1 3.05 2.06 3.23 2.06 3.43L2.06 20.57C2.06 20.76 2.1 20.94 2.17 21.12C2.25 21.29 2.36 21.45 2.5 21.58C2.63 21.72 2.79 21.82 2.97 21.89C3.15 21.96 3.33 22 3.53 22L20.47 22C20.66 22 20.84 21.96 21.02 21.89C21.2 21.82 21.36 21.72 21.5 21.58C21.63 21.45 21.74 21.29 21.82 21.12C21.89 20.94 21.93 20.76 21.94 20.57L21.94 3.43C21.93 3.23 21.89 3.05 21.82 2.87C21.74 2.7 21.63 2.54 21.5 2.41C21.36 2.27 21.2 2.17 21.02 2.1C20.84 2.03 20.66 1.99 20.47 2ZM8.08 18.74L5.08 18.74L5.08 9.74L8.08 9.74L8.08 18.74ZM6.58 8.48C6.17 8.48 5.77 8.31 5.48 8.02C5.19 7.73 5.03 7.33 5.03 6.92C5.03 6.5 5.19 6.1 5.48 5.81C5.77 5.52 6.17 5.36 6.58 5.36C6.81 5.33 7.03 5.35 7.24 5.42C7.45 5.49 7.64 5.6 7.81 5.74C7.97 5.89 8.1 6.07 8.2 6.27C8.29 6.48 8.33 6.69 8.33 6.92C8.33 7.14 8.29 7.35 8.2 7.56C8.1 7.76 7.97 7.94 7.81 8.09C7.64 8.23 7.45 8.34 7.24 8.41C7.03 8.48 6.81 8.5 6.58 8.48ZM18.91 18.74L15.91 18.74L15.91 13.91C15.91 12.7 15.48 11.91 14.39 11.91C14.05 11.91 13.72 12.01 13.44 12.21C13.17 12.4 12.96 12.68 12.84 13C12.77 13.23 12.73 13.48 12.75 13.73L12.75 18.73L9.75 18.73C9.75 18.73 9.75 10.55 9.75 9.73L12.75 9.73L12.75 11C13.02 10.52 13.41 10.13 13.89 9.87C14.37 9.6 14.91 9.47 15.46 9.5C17.46 9.5 18.91 10.79 18.91 13.56L18.91 18.74Z"
                  fill="currentColor" fill-opacity="1.000000" fill-rule="nonzero"/>
        </g>
    </symbol>

    <symbol id="icon-twitter">
        <defs>
            <clipPath id="clip129_4771">
                <rect id="Icon" rx="0.000000" width="23.000000" height="23.000000" transform="translate(0.500000 0.500000)" fill="white" fill-opacity="0"/>
            </clipPath>
        </defs>
        <rect id="Icon" rx="0.000000" width="23.000000" height="23.000000" transform="translate(0.500000 0.500000)" fill="#FFFFFF" fill-opacity="0"/>
        <g clip-path="url(#clip129_4771)">
            <path id="Vector"
                  d="M22 5.8C21.24 6.12 20.45 6.34 19.64 6.44C20.49 5.92 21.14 5.12 21.44 4.17C20.64 4.65 19.76 4.98 18.83 5.17C18.22 4.5 17.4 4.05 16.5 3.9C15.61 3.75 14.69 3.9 13.89 4.33C13.09 4.76 12.45 5.44 12.08 6.27C11.71 7.09 11.62 8.02 11.83 8.91C10.2 8.82 8.61 8.4 7.15 7.66C5.7 6.92 4.41 5.88 3.39 4.62C3.02 5.25 2.83 5.96 2.83 6.69C2.83 7.36 3 8.02 3.32 8.62C3.63 9.21 4.09 9.72 4.66 10.1C4 10.08 3.36 9.9 2.8 9.59L2.8 9.64C2.8 10.58 3.13 11.49 3.73 12.22C4.33 12.95 5.17 13.45 6.09 13.64C5.74 13.74 5.37 13.8 5 13.81C4.74 13.8 4.48 13.78 4.23 13.74C4.49 14.55 5 15.26 5.69 15.77C6.37 16.28 7.2 16.56 8.06 16.58C6.61 17.71 4.83 18.33 3 18.34C2.66 18.34 2.33 18.32 2 18.28C3.87 19.49 6.05 20.13 8.28 20.13C9.83 20.14 11.35 19.85 12.78 19.27C14.2 18.69 15.5 17.83 16.59 16.74C17.68 15.65 18.54 14.36 19.13 12.94C19.71 11.51 20.01 9.98 20 8.45C20 8.28 20 8.1 20 7.92C20.78 7.33 21.46 6.61 22 5.8Z"
                  fill="currentColor" fill-opacity="1.000000" fill-rule="nonzero"/>
        </g>
    </symbol>

    <symbol id="icon-youtube">
        <defs>
            <clipPath id="clip129_4774">
                <rect id="Icon" rx="0.000000" width="23.000000" height="23.000000" transform="translate(0.500000 0.500000)" fill="white" fill-opacity="0"/>
            </clipPath>
        </defs>
        <rect id="Icon" rx="0.000000" width="23.000000" height="23.000000" transform="translate(0.500000 0.500000)" fill="#FFFFFF" fill-opacity="0"/>
        <g clip-path="url(#clip129_4774)">
            <path id="Vector"
                  d="M23 9.7C23.05 8.27 22.73 6.85 22.09 5.58C21.65 5.05 21.04 4.7 20.37 4.58C17.58 4.32 14.79 4.22 12 4.27C9.21 4.22 6.43 4.32 3.66 4.57C3.11 4.66 2.6 4.92 2.2 5.31C1.3 6.13 1.2 7.56 1.1 8.76C0.95 10.91 0.95 13.08 1.1 15.24C1.13 15.91 1.23 16.58 1.4 17.24C1.52 17.74 1.76 18.21 2.11 18.6C2.51 19 3.03 19.27 3.6 19.37C5.75 19.64 7.92 19.75 10.1 19.7C13.6 19.76 16.67 19.7 20.3 19.42C20.87 19.33 21.41 19.05 21.83 18.64C22.11 18.36 22.32 18.02 22.44 17.64C22.79 16.55 22.97 15.4 22.96 14.25C23 13.68 23 10.31 23 9.7ZM9.74 14.85L9.74 8.65L15.66 11.77C14 12.68 11.81 13.73 9.74 14.85Z"
                  fill="currentColor" fill-opacity="1.000000" fill-rule="nonzero"/>
        </g>
    </symbol>
</svg>