<svg viewBox="0 0 24 24" fill="none" xmlns="http://www.w3.org/2000/svg" xmlns:xlink="http://www.w3.org/1999/xlink">
    <defs>
        <clipPath id="clip122_2016">
            <rect id="Icon" rx="0.000000" width="23.000000" height="23.000000" transform="translate(0.500000 0.500000)" fill="white" fill-opacity="0"/>
        </clipPath>
    </defs>
    <g clip-path="url(#clip122_2016)">
        <path id="Subtract"
              d="M4.80029 4.19989L4.80029 19.7999L4.5 19.7999C4.00293 19.7999 3.6001 20.2028 3.6001 20.6999C3.6001 21.197 4.00293 21.5999 4.5 21.5999L8.7002 21.5999C9.19727 21.5999 9.6001 21.197 9.6001 20.6999L9.6001 17.6999C9.6001 17.2028 10.0029 16.7999 10.5 16.7999L13.5 16.7999C13.9971 16.7999 14.3999 17.2028 14.3999 17.6999L14.3999 20.6999C14.3999 21.197 14.8032 21.5999 15.3003 21.5999L19.5 21.5999C19.9971 21.5999 20.3999 21.197 20.3999 20.6999C20.3999 20.2028 19.9971 19.7999 19.5 19.7999L19.2002 19.7999L19.2002 4.19989L19.5 4.19989C19.9971 4.19989 20.3999 3.79694 20.3999 3.29993C20.3999 2.80286 19.9971 2.3999 19.5 2.3999L4.5 2.3999C4.00293 2.3999 3.6001 2.80286 3.6001 3.29993C3.6001 3.79694 4.00293 4.19989 4.5 4.19989L4.80029 4.19989ZM8.3999 6.59991C8.3999 6.26855 8.66895 5.99988 9 5.99988L10.2002 5.99988C10.5312 5.99988 10.8003 6.26855 10.8003 6.59991L10.8003 7.79993C10.8003 8.13129 10.5312 8.3999 10.2002 8.3999L9 8.3999C8.66895 8.3999 8.3999 8.13129 8.3999 7.79993L8.3999 6.59991ZM13.2002 6.59991C13.2002 6.26855 13.4688 5.99988 13.8003 5.99988L15 5.99988C15.3315 5.99988 15.6001 6.26855 15.6001 6.59991L15.6001 7.79993C15.6001 8.13129 15.3315 8.3999 15 8.3999L13.8003 8.3999C13.4688 8.3999 13.2002 8.13129 13.2002 7.79993L13.2002 6.59991ZM9 10.7999C8.66895 10.7999 8.3999 11.0685 8.3999 11.3999L8.3999 12.5999C8.3999 12.9313 8.66895 13.1999 9 13.1999L10.2002 13.1999C10.5312 13.1999 10.8003 12.9313 10.8003 12.5999L10.8003 11.3999C10.8003 11.0685 10.5312 10.7999 10.2002 10.7999L9 10.7999ZM13.8003 10.7999C13.4688 10.7999 13.2002 11.0685 13.2002 11.3999L13.2002 12.5999C13.2002 12.9313 13.4688 13.1999 13.8003 13.1999L15 13.1999C15.3315 13.1999 15.6001 12.9313 15.6001 12.5999L15.6001 11.3999C15.6001 11.0685 15.3315 10.7999 15 10.7999L13.8003 10.7999Z"
              clip-rule="evenodd" fill="#FFFFFF" fill-opacity="1.000000" fill-rule="evenodd"/>
    </g>
</svg>
